<mxfile host="app.diagrams.net" agent="Mozilla/5.0 (Windows NT 10.0; Win64; x64) AppleWebKit/537.36 (KHTML, like Gecko) Chrome/130.0.0.0 Safari/537.36" version="24.8.0">
  <diagram id="C5RBs43oDa-KdzZeNtuy" name="Page-1">
    <mxGraphModel dx="1000" dy="542" grid="1" gridSize="10" guides="1" tooltips="1" connect="1" arrows="1" fold="1" page="1" pageScale="1" pageWidth="827" pageHeight="1169" math="0" shadow="0">
      <root>
        <mxCell id="WIyWlLk6GJQsqaUBKTNV-0" />
        <mxCell id="WIyWlLk6GJQsqaUBKTNV-1" parent="WIyWlLk6GJQsqaUBKTNV-0" />
        <mxCell id="WIyWlLk6GJQsqaUBKTNV-3" value="&lt;div&gt;&lt;b&gt;Self-design:&lt;/b&gt;&lt;/div&gt;Includes some graph analysis, provides detail on how user had progress" style="rounded=1;whiteSpace=wrap;html=1;fontSize=12;glass=0;strokeWidth=1;shadow=0;" parent="WIyWlLk6GJQsqaUBKTNV-1" vertex="1">
          <mxGeometry x="15" y="60" width="120" height="90" as="geometry" />
        </mxCell>
        <mxCell id="XwaOPnEjYc4gbmmwaDbT-0" value="&lt;b&gt;System of Motivating user to enter data&amp;nbsp;&lt;/b&gt;" style="text;html=1;align=center;verticalAlign=middle;whiteSpace=wrap;rounded=0;" vertex="1" parent="WIyWlLk6GJQsqaUBKTNV-1">
          <mxGeometry x="10" y="20" width="130" height="30" as="geometry" />
        </mxCell>
        <mxCell id="XwaOPnEjYc4gbmmwaDbT-1" value="&lt;div&gt;&lt;b&gt;Self-association:&lt;/b&gt;&lt;/div&gt;&lt;div&gt;Includes the data of a healthy person and a average of a group of person&lt;/div&gt;" style="rounded=1;whiteSpace=wrap;html=1;fontSize=12;glass=0;strokeWidth=1;shadow=0;" vertex="1" parent="WIyWlLk6GJQsqaUBKTNV-1">
          <mxGeometry x="15" y="350" width="120" height="90" as="geometry" />
        </mxCell>
        <mxCell id="XwaOPnEjYc4gbmmwaDbT-6" value="" style="edgeStyle=orthogonalEdgeStyle;rounded=0;orthogonalLoop=1;jettySize=auto;html=1;" edge="1" parent="WIyWlLk6GJQsqaUBKTNV-1" source="XwaOPnEjYc4gbmmwaDbT-3" target="XwaOPnEjYc4gbmmwaDbT-4">
          <mxGeometry relative="1" as="geometry">
            <mxPoint x="235" y="365" as="targetPoint" />
          </mxGeometry>
        </mxCell>
        <mxCell id="XwaOPnEjYc4gbmmwaDbT-3" value="&lt;div&gt;&lt;b&gt;Self-discipline:&lt;/b&gt;&lt;/div&gt;&lt;div&gt;Associate this part with Self-dsign, provides how much more user should be working towards&lt;/div&gt;" style="rounded=1;whiteSpace=wrap;html=1;fontSize=12;glass=0;strokeWidth=1;shadow=0;" vertex="1" parent="WIyWlLk6GJQsqaUBKTNV-1">
          <mxGeometry x="15" y="680" width="120" height="90" as="geometry" />
        </mxCell>
        <mxCell id="XwaOPnEjYc4gbmmwaDbT-4" value="" style="shape=image;verticalLabelPosition=bottom;labelBackgroundColor=default;verticalAlign=top;aspect=fixed;imageAspect=0;image=data:image/png,iVBORw0KGgoAAAANSUhEUgAAASIAAAIeCAIAAACQjJWqAAAgAElEQVR4Aex9CXhbxbW/3vcvjxIaY5Y2cWRbsmOnSQut+ygu7aPPbgmQFlrH7LvMVrYEF1oeTdqSlgIJSzHQhqUUpyQtDwrYDmGLZclxnNhJLC9ZHEu2tdmOd13parO2e/VHOs5wc7VYlkar5376krvM+pv5+cycOXNGYCMXQYAgEGcEBHFOnyRPECAI2AjNSCcgCMQdAUKzuENMMiAIEJqRPkAQiDsChGZxh5hkQBAgNCN9gCAQdwQIzeIOMcmAIBANzaxWq+XUy2q1JhdKKFJyy0ByJwiEQmDeNLNarePj4zqdTsu5JiYmLBZLqDzi/Z6m6aGhoZGRkaSzPd41JemnKQLzppnZbO7q6pLJZK2trftPXoODgzRNJwUCq9Wq0WgaGxtbWlpMJlNSykAyJQiERyBKmnV3d09PT3OTtlqtFEUZjcbp6enJyUlgnclkmpycnJiYmJqaMpvNNpvNarUaDAaTyTQ9PT0xMTE9PW2xWIxG48TEBIoFydI0PTk5OT4+DmG4eXHvp6en9+/f39bWtnfvXkIzLjLkPnUQwEYzmqb7+vp6e3t7enq6urrGxsampqb6+/s7OzsPHjzY3d2t1+tpmjaZTEeOHOnv7z9y5Eh7e3tnZ6der+/v7+/o6Dh48KBarQaqUBQ1MDCgUCja29t7enpOnDgRdFBqsViOHj2qUCgGBgYIzVKnV5GS8BCIkmYdHR3Dw8OT/mt6etpsNhuNRoVCsXfv3iNHjgwPD1MUpdFoFAqFUqkcHh7u6ek5dOjQiRMnKIpqa2vbv3+/SqXSaDT79+9vaWk5evSoTqfr6elpbW0dGxszm83Hjh1rb28fGBjQ6/Xd3d1tbW0TExOBU6/h4eF9+/aNj49rNBpCM17TksfUQSBKmrW0tHR0dHT7r2PHjk1NTVEU1dHR0dPTgwaTRqPRYDDAvxqN5tChQ2q12mAw7Nu3r7e3F6SWUqlsb2+fnJy02WyTk5NtbW16vX5ycnL//v0DAwPT09Mwnty/f79arYZhJ8KOoqj29va+vj6YnhGaIWTITaohECXNDhw4MDg4OOy/RkdHTSaT0Wjs6Og4cuSIwWBAc7CRkZHBwcFjx451dHS0traq1erp6el9+/b19fXB5E2lUnV0dAAzgTYajWZoaKilpeXw4cN9/uv48eOtra0oCiBosViOHz/e1tZmMBgsFotarW5paTEajamGLykPQcBmm7+FPmgaA1UgPJqZTKZjx47t37+/q6tL5b9AmkVCM71ev2fPnq6urmOca3h4mDs9m56elslkPT09sKzQ09Mjk8nUajVhGunWKYhAlNJsTppNTk52dXUplUqapq1W69DQUOQ0m5iYaGtrQ6NEmqYnJiZMJhN3bjYxMXHgwIH9J6/m5ubPPvsMpnApiDIp0gJHIF40oyjqyJEjPT09Q0NDoAKJfNBI03Rvb++hQ4e0Wu3o6Gh/f39bW9vIyAhXmvGajahAeICQx5RCYN40s1gsfX19SqWSoihuTYAbAwMDMGyzWq0jIyOdnZ379+9vb28/fPgwaCCNRiOM9ECfodPpent7ISnQ9QOdTCZTb28v6CRB5Rh++XtkZKS7u5unI+EWj9wTBJKIwLxpNq+yWq1Wmqaj7v0Wi4U3VpxX7iQwQSBFEIgvzVKkkqQYBIHkIkBollz8Se4LAgFCswXRzKSSyUWA0Cy5+JPcFwQChGYLoplJJZOLwDxo5na7PVFfbo/b7XK5Xf5/3S63x+VyOi0Wh2HaaZh20ia3y+lyu53+z0630+1xRZ0VRBwZGdGRiyAQMwIjIyNjY2O85av5kjZSmlksFoZhvPO82JMXMzPjGBg0f/yZ6ennJ++8Z+zHl499479Gl58/Jv7GaMGq0aJvjn2jZPxHP5m6+U7jk5ttuz6Z6TnCOBwnY/v+n2fOXrVaDUZe5F+CABYE1Gr12NhY+PXbUPSLiGaw/OV2u+fV11kv63DOWA8cpH7z+/EflI+JV47mF5+I7DcqXjH2X/9N/XqjdW+rx+kkNMPSUUgisSOgVqujkGwR0cxsNhsMBqfTGSHNGA/joij65a2jP1w9WrhqNL94NH/FCd8vYpqJVvg4KSoeFa0YL7uMfvZF+/CQx8MwTKRijUiz2LsUSSEUArB1K5TsCnw/N82sVqvJZBofH3c4HOFpxnpZhmU8lNH4+htj5194Qvz1UWBLxOwKysNR8YrR/BVj53+PfvZ5x9iYj2oRjCEJzUJ1EfIeCwJTU1NcW/ZAanHfzE0zm81mNBpHR0ftdnsYmrEsyzCM+YOGiYsuGfEJohU+jmH+FU9+9/v0W/9k3B4f08IKNkIzLJ2JJBIKgf7+/sh9z8xNM5BmJ06cCE8z54mRqV88OFqwMqhEwvhyLK94quoe+8BgeJlGaBaqf5D3uBAYGhoKs2tkftLMarUajcaRkZGgNGO8rNvttuxrG/+vi3HLrnDCcPjbpaYPPwqj/CQ0w9WZSDphEHA6nVar1W63c0kVeB+RNAOa2Ww23qCRYVg3w5refGu0+JsnRPPQcGAQbnlFw+KvU1v/5gqxzEBoFqZzkE+4EKAoKhIV/9w0g7nZ0NAQT5qxLOtye0zPvHCicGUi5RjKayx/xYm8YsPjT7h9K2y8vwBk3QxXRyLphENgxH8Zjcbw6pC5aYYGjVardbYv+7QPrHvGRb/4V7+mPjI1vSiyYPk+JX6EyY74Qn6devwJj83KYxqRZuF6B/mGCQGNRnP06NHx8XE8NNPr9YhmrJd1eTzU394cE/lV9hGoE8dEXx+/6BLqoUci+RnXP3Lie5cgqRXm5oRoxbBoxbB4heG5F9ynjh4JzTB1JJLMHAgcOHDgxIkT4fcuRyrNtFqtxWIBacayLF2/c2Tlt+Y1xZr4+XURGmu5GUYruUufVxQ+/RFR8Yio2Ecz0Yqh/CLLv951ezxo7EhoNkfvIJ8xISCTyfR6PR6aQUJer5dhWffY6OjKb4URMkE/TVVcizgQ/sbDMIOSu7qXiXV5y0f9hiCBCZ4QrRjh/vKKh5avsvb2MewslwnNMPUikswcCMhkMo1Gg4dmsETAsqzbbJ5Ye11gv5/zzdTaedHszi5hQbdwuTa30Gerdeq4lMex4fziofxifd7yoR+tdkxPw7o1odkcvYN8xoRAU1OTXq8Pv4AW6aBRp9OZzWaPx2N6vXYsoN/zaBD0cU6aIXt8t4cZlNzRJRR3CcXdwkJd7vITnBxn52MwK4MRY17R0OxvueH5GlA6Epph6kUkmTkQkMlkMKUKXC5DbyKlmVarNZvNzrHxE+f/l0+TPn8zxfCDRsQxn8D006xzmdj/K+wWirV+pp3I903G/POx4mHfrKzYJ8fyivSc31DR+bb+QYZlCc3m6B3kMyYEpFIpNmmm1Wppk3nq/nVgNR9UXoV/GYZmXI4hmnUJC+DXKSzsXlagzV0+4qPZF1My/1hxVo7p84v0+UW6/CKtqGj0uusZD0NohqkXkWTmQADzoHHqyOHR5d8Mz6UwX8MMGsPTDMjWLSzU5C0fPsk0mI/BWNHHMVGR7uRPn7/c1t1DaDZH7yCfMSGAU9Po89H9yP/GYncflGY8gsEjd24GM7ROobhDKO7KLVDn+bQdPg3+F/OxLwgGTNPmrRi7b93g4CAmGEkyBIFwCEilUo1Gg00Forny56P54cx5w4iyUdGKQJoF5Rhn0OhTgXQJxQr/r8PHtIKu3AJN3ooh0RdjRSTETnKsWJtXrClY2d/WFg6bFPjW0NCw3X+hsigUCnijUCjQS3izc+dO9CbwBpKSy+UqlUoul2/fvj18+MBcAtMMfCOXy1euXLlq1Spu8QKDxfIGCr99+/ZYEklw3KamJp1Oh41m+ivXhidS+K+8uVkojvFo1nmSZkA2Ra5Ppg3kL9eLirkDRR/H8ou0+T6OafOLtHmF/Xv3Jhju+WZ3++23C/wX6rWbN2+GNzt27IDUGhoa4M2WLVvCpC8UCgUCwbp161QqVWVlpUAgKC0tDRVeLpdDmkDLUMEC36PCoOIFhonxzbp16wQCgVAonDOdzZs3r1u37pVXXpkzZLwDgAoEz7qZTqfTxUgzzrpZGI5xaFbQKSxQBPt1CwsG/UzTib8YMc5yLK9Im79ck7+8v6U13vjGmP6OHTt4pLr00kvhDRBGpVIh4oWnRGJoplKptm7dGj+OqVSqyGlWWloqEAgqKytjbIXYo0ulUtDDI/V94M3cCn2w0Nfr9dorK0Lq8UU+vx3hf0iahecYoplvPpYb8ueTaXnLZweK+cu1eUU+OeYTZcs1eYXqvOWqvalOM5VKtXjxYiSFVCoVsIUri0A0rVq1CnqDQqHYsGFDZWXlunXruCOrqGm2efPmysrKDRs28Gi8fft2iUTC+/T5uarr/BeIX7iHYZ7Ef/ESgcTXrVsnl8tB+ASlKOQlkUjkcnkgzYKWZMOGDVDlVatWrVu3Dg0HggaOnUjhU8C8bhZSmhV8c6z4gvGwv7Hib01ddyvr9c7JMd/+Go9bdecvDhd8Peivp+DrXQUrugpWdBeu1BSuGspbMUswkGM+jhUN5hWlBc1AfMEAD4ZkiGnQdeBRIpGoVKqGhgagJUi8QH7Od9AIHIbUhEIhIgn0dZSLUCiEmR5vtAkBuIlkZWWhOSH3vVAoBOGDpDTquBs2bEAZCQSC1atXcweNaFyNwgBREUrwHkrOzVEgEHALg7KLxw2euRmSZkFpdiK/mH79TXZmJvyPmZlxzszMyTEGLo/Hbbe7bTb4uWw2l83K/TmsFofV4rRYJv/9737hcl3eCo1vYjYrxwbTh2bQybKyslQqFdxXVlZCj9yxYwfq1ty+BX/1t2zZApTjfpovzYRC4datW1FSq1evVqlU27dvh767fv36hoaG9evXo36PygPdGoIJhcKN/gvKA6O4v/71r/BVIpHs2LEjcDCMujsSSlu3bt24cSNKE/6swOOOHTsaGhq4f5J27NixcuVKEPuAAIzAhUIhBIavUCOUV5xuQJrhmZvp9frgNBMVW/7xVnhTYG9kQmyWYwH/eU693Ccvl8s1Xr/zYE5hf16xLq8IxoqDeUUDecsH0mTQ2NHRAT1p586d0I1eeeUVECYSiQQ6K5AQen9WVpbs5AV/vEHQQWcNpFlDQ0Ml59q4cSOoIiFTpD+AHCEjECClpaUn85EBf3bu3BmUZpAmT/UCiSBNRkdHByTCk2aI0kgGAggookqlAqkuk8l4n4LOzUIFjhPBIFmQZnj2m2m1Wt1Va4POzeak2ZxCDLxiBfDL9+JUinncPu/fX1zjdTvbcwoOLRP15RYM5i0HOdafW6jKTY+5mUqlgr+7GzduhI6oUChg9Lhq1SrorPAnGelCgCHoX5AeoWiG+jGEh9Epjy1cRYtKpYLui9JHN1zpypVmmzdvht4GXIUsIBGuMIFq8miGKoVoAIkgmqE5GCoG+hRIs3Xr1vEGkygwSj8eN01NTdgs9KOWZtFxjMcuj8dHMN7ll2YNbUJR+zLxAWF+X97ygfyi/rzlvl9ukSrlNY3Q5MAl4BjSwsMjdBpQ5UOPzMrK2nHqBT0+FM06Ojq4wRsaGrjSDMkQNEFSqVRobMaNuGPHDoVCweMndP2gNANJizQ3SLsTimZIh8GlGVR58eLF69ev37p1q0QiQcNX9OcAaRqhCqECx4NdKE1YnsYwaDSZTDq/Qn++0mxOjjHBLh7HeBIMZJnTf43V17ctE++Hn1B0PNfHMVVuke+XDppGlUqF1PoCgQANwIB70I+BSGh4CVMRmMvBzIfXiaGLI8ai3oBuEFtgwKlQKIClwArU0aHry+VyUGzK/Re3SGFohngLpUWPPJqFKglIIagIIhI8IgHFk2bwCDVCI1gUGNU9HjcymUytVmOgmdFoHBoamu/cbE6OBR0r8jgWSo7N0qyuvm1ZAdBs3zLx/hzxMWGhKrdYmVucLtIMqfUFAgESL4h7XIGAuLd69WroVQKBILw0C9qrUOdevHixUCgEySkQCEBsdnR0AOuEQuHq1auRXOWKwTkHjSgRoCJkxFWNooKhiqxatQoFA3oA4bOysiorK0HGcqUZsA7eKBQKACcrK0sikZSWlnKLjfKK0w3MzcL7t4p03Wy+0iw6js05GeOKMqfTOeajWSGiWesyUesy0ZFlhcdzi5RpMmiEP71CoZDLqI6OjpUrVwqFwvXr13M7x/r164EDXCUbjKBA46dSqSQSCTCEG5F7L5fLhf5rx44dkNrixYt/+9vfojAgwRBDSktLgVcoIuK2UChEepSNGzdy84VESktLL7300oaGBqATT5qpVKqOjg5EmKuvvhoSAVHM/VRaWsr9BJxHFN25c2dHRweiYmBgVLV43ODRNIJCf2hoKNTydKAKJDqOBcoxIBXvX5BjDv81VtcANNu3TLw3J79laX7LUvHeHHF3boEyTQaNUTS8wn9FEXG+UYBO840F6sGGhoatW7eiuMDnQJqhAGFu0MwtTBj0aV6BUaxYbvDQzGq1UhQFKpBI5mZzcizYdGwOjSJPiAHHHA7HaF3D/mXivUvz9y4VtSwVtywV78kRN+eI9+Tk9bWkuk1jLE2b4nHRoLeysnLz5s1I7ETN21Sub1NTk1arxaDQN5lMQ0ND+qsqA42DT3DWzaIjWOBAkTcfQ9KMK8dmZmYcDseJD+pbl4r25oj25ohb/L89Po6J5TmiXkKzpPZNGOPByFMgECxevBgNL5NaLvyZ47FpBHeo4RX6cxIsqLYDxBpvrBiotQd2OZ1OJMRmTl4j79f5aebjGBAMOCYjNMPfnaJJsaGhARbcoomcJnFAoR+rCgRoFn5uFjXNeBzzeDxIdvEGioE0s9vtw+9/4KPZybFis3/EKMvJb8rJJ9IsTXpp2hcTBo2xKvRtNpvJZAo5N/MNGreHp1nQyVjgWDFwfQzJMcSxmZMX7DUYfu+DlqUiYBf82+TnmHRpHqFZ2vffNKkAWIFg29YZdN1sVFRs2faW28OE/DGMm/F9dbndQUeJvJmY2+12ulw+XrlddqfT7nT4fg6HzTFjczhsMzN2/2W12W02nzTbk4NoJpLliJpy8qVL8xoJzUL0UYVCsXnz5oxURYSocdxfy2QybLunQ83NfG4L7rh79KW/hPqNvPwy/MY/qPcfHh1Eqcibjzl8C2I79TUv62v+4vu98BfdCy/rXnhJ9+eXNX9+Sf3nF9V/fnHw+ZcG//zS0Qcfas4RgXZRniOSLs0Dju0mNAvRu9Cab4jv5PW8EcCs0B/62dVBFfojeUVKYWGnsOCkZ0Xwrzj7r8LvLacjV6S8qiKSgaLL5XK4nH2339G+TAw/ZE61L0e0d2keLI4h3f3J+dgsx6RL83Yvzfssc2kWaG47r37R0NCwcuVKZJQ0r7iJCQwVTIydFJYa4TQd1ul0+iuDKPRBxT+SV6TKLewSFoKTHPTvrAMPoVjhp5nHc4oo4wkxePQNF12uvtvuAo7N2isuE/s4lpMPuvu9s3pFEYwYYaAIomz30rxPl+Z9kj40m3OtWSaTcXtDGJrJZLIwi7O8dLhpwn2oAKHe81KYsyK88ChTXpnD0Cx8SXhfeY9Bc8fyEo/pMFiB6ObyBTKSX6wUFnQKl3cJxchPjt8dlc/3W0euWHVVBVevGMgxl39K5nQ6Z5yO47f5pNmsFVVOEI41LxM1+2ZlvvkYd6zo41iOn2Z7WrCAGL9Etm/fDttDwDAv0NR9w4YNyDYPzB1hyIcWo5BZLQoJRlho6gXrwmDmJxAIwFMAsgxE22TQvmyhUMg11EDJwgZQyBfZLiNkuNtVUApohRqFBwNi2NWmUCjWrVuHzClXrVoFwZDhFeSFCsMNXFlZiSqIjEvQCjj4REAmaSgFVFrsN+CnEcPytNFohLnZWIjzWWaXrYFpucH85JxKMx7HuLp7h8MBNOOOFVt9ooy7Bg1yjM+xz/xy7OOluR8vzTu2J6WtQFAXL/Vb/XF7MLKRBz7Ap6ysLIVCsWXLFsRMsNxDbmoWL15cWVkJX4VCIYgI6HzIcDEUzfwWjj7fWHBBj0dic/HixcgYVyAQINpAf0UVWb16NSIJ/MlAJIeQ8Ah/GtD2H4lEAraIUMH169dzKwjWzChwZWUl1AVVEB6zsrK4NtC86iBOYicYJAjL03g0jXq9Xn/DbSfC+2nM9zm1P5673DdWzJ31r3jS8ZsISbNAjvEU93aHs/fWO0+KMpGfY/lcI4/mZfnNOWKZX6mIdB4wVvw4J+/jpXnSCy/uP348TrBiSZbXBYFaYDKLRBb0DyQWQKCh3g/FQBtkkI0FpAx7auA+0M8HzHwQQ8BuWC6Xg3jhxQXGov0BPJqhPwpQnq1bt65btw7CcCvFKyeXcrCpB6QQ2mOK5mZoPwFiC8QFJgPNgLqo/OgR/mqgYQKWhgtMBCz0Y103s1qtsG42VvtWeHeocB7SUH7xcWGhwifTOEzLnaVZGI4hIw9EMzQfO9XIQ4wWx2C4+NmSvE+X+AaKH+fkfbQ0d9fXco9vfS3FnXtDDygtLQUfAugvOpJOgf2MJ2SgvRFVkC+CVatWIc9q0CO5Cg8uK1Bc1IOh18JAi0s57i4YHs3QXwEwz+c6yUIMUSgU4HABVQr9KSktLZVIJJs3b0YzNN7cDHlqQBWEQkKluAVG++4QrxJDM5zSTKfTUUZq/Ptl4c/1g7Mzh/NX9AoLOnKXc+ZmIuWVP3e7T9kEjSZjaPXZN2L0Xfajt95xkmOzhlQgweS+yZjPyGN2PrYkz8exk2PFXUtzdy5Z9nHRKqfNlhY0g+EN99/50gwJN24iaEMK0Iw7P4mcZrw+isQRj2YqlYo7lIVYaH8qkjwwnkSTyY6Ojttvvx1IAlGQyOXRLFQFU41msUozm80GFvpms9n49r9H84uCGRB/cVDLiGjFcH6xPr+oN1fM8Wcq5tEsNMd8NDtyaxXMx2bl2DLfZIzPsaV5u2flWO7HS3OBY3VLhaqXX2WYVD94CWQF+rvLVdNxmRAoRlC3A2mGPAEjacBNKhaaAQcQMVC+gTQDDadCoUAOp5DUArUHmlNx44ImECacgAb8OeDRDKQlzNygytwKpoI0w3NaJxhbwTGCLodj6tqbeDQLdnbm7DFIvXmFHT63wT6Fft9VP3edHDJyOYZEmV+O+f+x+2jm2z8Ginsfx3yTMRgrIjsPpLv3DRSX5n64NLfha8I9P/6J02phU/58M8Sl7du3y2Qy+GPPcxMAvQoNvaCPIt9saDIDXW316tXgSR8eYboVC83QuA6cFECygSoQmLMJhcKGhgbkfwq5SEAyEKk3oVLAK4lEAmWGR67XE4FAAONP5BWLV0EInAo0g4OX8JgOw3mELMvajxw7UbgSMY3HsRHuWS35RTpx0TFhoW+FOld8/Kq1QDMux9B8DHHMZ0plsx++9Y7ZxbFl+X45Fnw+9vHS3I/8v51LhPVLhfU5otE9Laz/uM4UHzTC/mgYL8G/ixcvhjkSYmBQmnH3/8PAqaGhAXEAkkKnScRCM+5+ZIFAcPXVV0PiXIkEwpaXO6oIlB/KgKaL8HLLli3cugsEAlRmxCvkHAWtN6AoiMYpQjMQQoE+vdGbuZ0UoI0wVqvV6/V6GI/xzbdGcov8rrx9Y8XZ+Zh/rDiUj86n9d/4z/XrFYoPLSvo/amPZohjiGAn52OzxoqIZj4TKr9GEcaKMBkDvSLMx4BjMFasX5Jb/7Xco09v9p3wng40g94GDpsqKys3btyIRn0NDQ1btmxBmsOOjo4t/gspKuRy+caNG5FCD/r6li1b/A62JSgi+PPZsmULOLSCHLmJo5RR1uAdlRcedrLwhCqkhv6F3HkVga/I3w7ydALvoRaVlZXIcRBKDbx88yq4cePGwMC8AsMjAoqHG0of7w02r8MURYFxpNfv2NTDeCZuum0kz3csLRyfOexX5cMRtdyTx+DEWm1e8ZHc5ceurHS53WiICDSb8V8+avmvk+z3SbM9J+djXyg8/DbBvrGiT6/ok2O7lgo/XCKsXyL8YElu0+VXuWYcyDFrikszvC0dj9Q2bNgAilBIHLEFdeI5M5XL5Vu3bgXNJ5qtzRkr7QLA3CzWdTNQgQwNDVksFujELMs6pqfHKq4bzl8x4icYj1rcR33ucp3/HAn1FVda9XqrTm/R6nw/nc6s1fp+Gi2t1ph8P7VxcNA4qDYODHauvRbNxxr97Go8aawIa9Cz8zE/x+qW5O8u/W/bxCTDwPHuvmISmsXYX7lDNZg7CQQCngug8FkgZgoEAq6MDR8r7b7i2W+GfIGYzWYkK7xer101cOL75SOcUzO57IJ7fe5yfW4x/Abzio4sK2hfVti+rHC/sHD/7L8F+3IKWpcV7M3xucrZs8z381tR+Vx6IDk2axB8cn1s16xeUVi/JPeDJfmffuvCiUMKhmG4xSM0i72/yuVyMNQCscablc2ZPgyJ161bxx2FzhkrvQIMDAxgO98M3KEiafaFTNNqx0v/W8ebj/mJp89bDhw7eVxLsSavWJtb1LOs8EBOway9ot9Y8eT6mKhl1luOb/8Ydz42K8f862P8+diS/I8v+M5012GW5Qgyf/kIzdKrv6ZpaXU6Heazp3nSzOv1Mqx3RtU/+pOr9PlFw3nFXGmmzy3S5xbpcv1njvlPHoPzkDS5RT1CcXtOwT4/x1pzRK0+u/uTa9A+E6ovdmciQ6rP/PMxDsd8cqxuSe6n373Y0HOYCeAYGTSmaa9Nu2KPjY2BQj9W02GbzQamw4E08zONdYycmLhFos8vAjWjX44V6fKKdHCuX55Pjmn8hyHNHiWRt7xbWLB/1hrYt72lhbM1k2tI1ejfOfbp7N6W3F1LhB8uyd3pI5iwbkle88/WmrU6D1+MzY4ciTRLuy6bjgU2mUzY5mZBB43ciZDL5R7702b98q/r84p0uct1uV9wTJtXDHIMODaQVwQHSnQKC1pyRLBHs9m3+kbsqFcAACAASURBVOwz8uByDOZjJzmW5+PY15bt/Fpu/ZK8+mXizkd/4zJbuDoPbnmINEvHLpt2ZdZoNCzL4vHTCNJMp9PZbDZeV0aPLMt6GMbSfuBE+eW63EIkx/gcQye25C0/nlukyCloycn3L47NWir6dB5LZp15gJHHrDWw31ix4Wu5u5bmf1JSOiaTM263b3UBlSDghkiztOu1aVdgk8nEsqxUKsXgC4Rr0xjQmb94wXpZD8u47TPTL72qv+i/fQeu5/PlGJyKpMpbrswrOp5b1Ju7/JBQtGdZ/qyrnJz8xqX50iU+hzmzHFvqs7j/cKlw51Jhw9eWfXL+hUef2Oy02Rgw9Pgi8yB3hGZp12vTq8A6nQ4cugHN8BhboeXpID361FduhnFOTU89vUV3/oW+gWJ+0aDv+MzZk8d8HMst6sstPi70Me14btHBZQUyn6ucfOnSfFgi+8JYETa2LMn9aOX5isd+b9L4ZmJsBBwjg8b06rJpV1qNRuNyuYBmOE/rHB4e5in0TyUX/8nDsLaxcWPDh0PX3jxY8PWB/CLfCZq5hco8H8d6hcvR73BuYVuOuHGJT44hhzmf5OR9lJP34RLh3it+ov6/d62jY55Tl8X4+QU8E2mWdn03XQrM5Riam8VqBQI2jZFLM16H9zCMTauf3vGv0Yf/V/OjnwwWXdCbt/yosPC4sOiYcPkRYWGPsLA7t3B/jtg/VsyXiov3lq3uuO9+1dZXzTpNJONDXo7wSGiWLr02vco5OTnp8XhAjiFphueoCjhGcF7SjNv1oTQM62VYxj0+YTugMPz7g4mX/zr6p80jGx8f3vj48JNPjb34l+G3/z29v80+Msq4XAzr9bndj2x8yM0L3ROapVf3TfHSqtXq6elpNFDk0gw8W2GQZnAiTHd3t0Kh4GYQ/T3Devwsgn8Y3wKzf9YVfYr8mCetkMn/BIFYEQjKLtThsNGMpmm9Xr9v3z6ZTIZSJzcEAYIAKPQ1Gk2s0gx2T4+MjLS3tzc3NxNkCQIEAS4CsDwdq0LfZrOZzeaJiYmenp7W1lZuBuSeIEAQwDNotNlsFovFYDD09va2t7cTWAkCBAEuAmA6jMGzFdhb9fX1HTx4kJsBuScIEATACgQPzUwmk0qlIjQjvYogwEMAnBRgmJuBFoRIMx6+5JEggDSNeKQZTdNKpZJIM9KxCAI8BPAcIwhreyaTqa+v79ChQ7w8yCNBYIEjgJNmRqNRqVR2dnYucExJ9QkCPATwHPHOlWZk0MiDmDwSBHDSDKQZoRnpVQQBHgKw3wyPptFoNPb395O5GQ9i8kgQwHPEOxo0qlQqQjPSqwgCPAQwL0/HSaHPnLyg9C6Xa3x8vL+/v6en5+DBg+3t7QcOHFAoFEqlcmpqCm1JOBkJ8/YZHoLkkSAwJwJ43KGCNDObzZFbgaC9lXPe+PZuMozH45mamnrvvffuu+++Sy65ZNmyZWeeeeaXv/zlrKys7OzsrKysM844Y9GiRUuWLPn+97+/bt26d999d2pqyuO/InQNMidYJABBIDoEZDIZhoOXgGYGg0GpVEY4aJyTXRDA53bO49FqtZs2bcrNzT3ttNNEItE111xTU1MjlUpVKtXY2Nj4+PjY2FhfX59UKq2pqbn55psLCwvPOOOM3Nzcxx57TKVSuf2e5ObMMToESSyCwJwIwLoZhv1mNpuNpunI52bhOz3D+EZ6DMMMDg5u3LjxnHPOycnJefDBB3ft2gVHqIUSUFBhiqLg/CuhULhs2bLq6urh4WHkniFU1nOCRQIQBKJDQCqVqtVqPJpGiqJwSTOGYZxO58cff3z++eefc8451dXVSqXS4/Gd/h6KYFzygAz0eDxqtfqhhx4699xzxWLx+++/73Q6w0SPDkESiyAwJwJSqVSr1eKxaYR1sxgHjaC3sNvt69evP/PMMy+//HKFQuHxeOA91IfLqKD3EAyiuN3ujo6OK6644pxzznnooYcMBgOIysCIc4JFAhAEokMA836zyDWNgb0c3rjdboqiJBLJl7/85V/+8pdGo9Hj8YQKHOF7hmHMZvPjjz++ePHiW265xWg0Bp2tRYcgiUUQmBMBcFKAZ25mNBqj1jSighoMhuuvv/7ss8/etm0bUs1HSKdQwWCaZ7fbt2/fvmTJkiuuuGJqagpy5EZBZSA3BAG8CGDzoW+1Wg0GQ19f34EDByIpIrd/w3HVDMPY7fYHH3zwc4XH66+/7na7eYdr8qLM95FhGLfb/Y9//OMrX/nKXXfdZbfboZwonUiKTcIQBKJAAPPcrL+/v6OjI5JyoM4NN6C0eOKJJxYtWrR161aXywWKQV6wWB6RXuSNN97Izs7etGkTTyMSSbFJGIJAFAhgplnUg0aGYTo7O88555xbbrkFxophGAWDQGTkAXIvQh0Jy7Iul+v+++8/55xzpFIpV2BGAR+JQhCIBAH8+80itNBHLAINO0VR3//+97/3ve+NjY3NKcc8Hs/Y2Ng777xz++23l5aWrlq1qrS0VCKRvP3229PT0+FVJkDR8fHx733ve9/97ne5q3CR4EXCEASiQACnTSNN0wMDA/NV6EO/f/XVV88444z6+nqoAyIh9wZCOhyOXbt2fetb3zrzzDMLCwsvv/zyG2+88YorrgDLj5UrV77zzjtOpzOU1h7NAz/99NOsrKxXX30VhYwCPhKFIBAJAqBpBGOpUP8KQn3gvYeNMPOdmzEMQ9P0BRdcsGbNmjCHfXq9Xo/H43A41q1bt3jx4quuukomk1EU5XQ63W630+mcmpqSyWRXXnllVlZWdXU1RVHcASGXrnA/MzNz3XXXFRYWTkxMgACMBC8ShiAQBQLg2QqnQn++0oxhmF27di1atGj37t1hTDS8Xq/D4Xjqqae+/OUv//rXv7ZarSCFuHX2eDxWq3Xz5s2LFy/+3//9X6fTGcgu9IZhmE8//fT0009/++23gZDcpMg9QQAjApjXzY4fPz7fudnMzMxPf/rTSy65xGq1hqIZDBc//PDDs84664knnpiZmQklqRiGcTgcf/zjH88888yPP/4YDQgRu9ANy7IOh+MHP/jBmjVrZmZmYDCJEVmSFEEAIYBT0wgO5OY7aBwYGDj33HNramrCaD48Hs/MzMwPf/jD888/32g0wr4YRBjuDXwyGo2XXHLJxRdfbLfbQxGSZVm32/3iiy+ed955g4ODhGaoT5Ab7AiANMNm0xi5O1SkiqitrT3jjDMOHz7MZQvv3uPxHD169P/9v//3xhtvoAEeLww8gjxkWfadd9457bTTmpqawise1Wp1dnZ2bW0tdmRJggQBhABOr8MURUXupxFJjwceeCAvL4+iqKC0gZcMw7z55pvZ2dl6vT6UdOJGZxhGq9WeffbZmzdvDh/e4XCcf/7599xzD4xLES7khiCAEYHGxka9Xo9Bmtntdoqi5rXfjGEYl8t12WWXrVmzxuVycXnCu/980PjYY4994xvfmJmZCTV/40ZhWXZmZmbVqlUPPvhgeGnm9Xqvueaaiy66yOFwYISVJEUQ4CKAc93MaDT29fVFPjcDMlxwwQUPPvhgeJnDMMz69esvvPDC8GzkMs3pdF544YV33XVX+JRZln344Yfz8vKMRiMXF3JPEMCIAPgCwaPQNxgMkTuQA0qYTKacnJwtW7aEl1EMwzz55JNisdhisYQPCcmyLGs2m0Ui0aOPPjonzZ577rmzzz57aGgII6wkKYIAFwHQNOKh2bzcoQIfpqamzj333FdffZUriALvGYb54IMPzjzzzK6urvC0QTTr7e1dtGjRa6+9NictX3vtta985StqtZqLC7knCGBEAKcvEDjfbF7L00Cz1157LZBa3DcMw5w4ceLMM8986KGHIqEZwzDPPffcOeec09fXN2f4119/ndAMY5ciSQUigNOzVRTSzGAwfPWrX33xxRfDyxxY47rtttuys7PVanWYFTbY7aJWq0Ui0e23387b6sKlLpJ7L7/8clZWllarDUSHvCEIYEEApwpkXgcvgULfbrcXFxc/+uij4WkGlBgaGioqKvqf//kftVodSkZ5PJ7R0dGLL75YLBbDdCuQWtw3n++L2bhx45IlS9B+aiywkkQIAlwEYG5mtVp5ZsDcx3mYDs9r9zRsZ/7hD3943XXXzal293q9brd7z549OTk5P/jBDzo7OwNtGt1ud1dX16WXXnrOOed88MEHkaTp9XpvueWWb37zm2gzNRcdck8QwIJAY2OjVqvlkirwPiKaWa1W8AUS+dwMKlBVVXX++efDvi+unAm8hxVkuVz+ne98Jysr66abbtq1a5dGo5mcnNRqtR9++OEdd9xx7rnnXnDBBXK5PMzAkpuy2+2++OKLr7nmGu6uUCzIkkQIAggBqVSq0WgwLE/bbDZYN4vcdBho8/zzz4N5B7f3B95DYIqiGhoaqqqqTjvtNIFAcPrpp5999tm5ubnnnXfef/7nf/7Hf/zHl770pWuvvbahoWF8fDzUwJKb+NjYWE5OzjPPPIMQITcEAewI4NQ0gulw5NIMuvuBAweysrLee++9QGt6ZAAFe9KeffbZoqKi0047bdmyZVdfffVjjz32/PPPv/DCCzU1NS+88MLzzz+/YcOGysrKgoKC008/vbCw8Nlnnx0fH+f6eOQSDJQl9fX1ixYt6ujoQMZf2CEmCRIEsB1VYbVao1Doe71eo9F44YUXXn/99YEuQIBmTqezubn54osvPuussy6//PKGhgaTyQScBCfEMN5DdDIajQ0NDVdfffXixYtLS0sbGxsdDkcgh2HLzA033PCd73zHYrEQmhEyxA8BqVSKx6YR+dCPfNAIsoVhmM8l0llnnaVUKpG+ESoMTHj99dezsrK+/e1vt7S0BFKRK6DgHuJ6PJ62traLL744Ozu7pqYG3PKg9L1eL8Mwx44dO++885599lkYXsYPZZLyAkegublZq9Vi0zSqVKr5+mn0eDwajeZrX/vaww8/zJ1NgSjbunVrdnb2LbfcEol2nkc5lmVHRkZuuOGGs846669//SuPop/Lt8cff/zss88+fvw4odkCp0G8q9/U1KRWqwO1i9w3EWkabTbbfC30kTTzeDwPPPDAWWed1dPTAxWGceDnByl9LuVuvPFGm80WoeaQyzSYfdE0fc899yxatOhf//oXDB0hC41Gk5OTc99996HjL+KNNUl/wSIAmkY8No1wIsx8B40wkNNqtXl5eTfffLPVaoVZllarXbVq1erVqycmJrjkieJ+cnLysssuW7Vq1eDgIBDYZrNJJBKRSDQwMACzMjI3W7AcSEDF4expPAcvgWer+dIMaOPxeP7+978vWrTolVdegSM2H3jggbPPPvvAgQMRrjKHoR/DMH19feedd94DDzwA/oxfffXVRYsWPffcc7xhagIQJ1ksQATASUHyaQbOgCsrK5ctW9bZ2Tk0NHTuuefec889TqcTC80+Z9fvfve7r371q0ePHlUoFAUFBWvWrIE9ZoifC7D5SZUTg0BTU5NOp8M2aJzX7mnUv9GATa1WX3TRRatWrdqwYUN2djYoJ7gChxsl8nsYKB49evS888576KGHVq5c+e1vf3tkZAQgRukkBnGSywJEAE7rxEMzWJ6er6YRejmCvqenZ8WKFV/60pd+/OMfg6M4rhYeUWJeN6C0tNlsq1ev/tKXvlRcXAxr6LzFNFQGckMQwItAU1PT8PBwcoytglIFDtcUi8UikWj37t2gDgkaMvKXYKMsk8lEIlFxcXFrays5RhBvNyKphUcALPTxzM1A0xi5L5CgPAFHiyqV6uKLLz733HOffPLJzw/ahDqgsWXQiNyXvDqbzeannnoqJyentLS0s7MzFHV5scgjQQAXAqDQx0azeflp5BKDdw/bpR944IGvfOUrpaWlcrkcTp+IcPUMHWXmcrn27dt3ySWXnHHGGXfccQdsKuPlhR5xYUrSIQjwEIDd03jmZmDTqFAoeHkEfUSdO+gNzJocDsc777wDBlOVlZX19fWTk5ORKB49Hs/ExMTOnTuvv/56IOpbb70FO8rCKFSClpO8JAjEjgA2JwV2u52m6Xm5Qw1KMN5LlmVtNttLL7307W9/+/TTTy8oKHjkkUd27typ1WotFguo+2GdzeFwmM3mwcHBXbt2PfLII9/85jfPPPPMb33rWy+//HJ4IYZyjB1NkgJBICgC4HUYjwpkXhb6QUsT6iXDMBRFffDBBxs3brzLf/3yl7/csmXLW2+9VV9fv2vXroaGhrfeeuu555771a9+dc8999x9990bNmyoq6ubnJwEbX6olMl7gkACEMBpBQIqkAj3myWgbiQLgkCKIAA0wyPNwElBhJrGFKk/KQZBIAEI4Dx4aV4O5BJQN5IFQSBFEJBKpdiWpymKivzs6UjqX11dLTl5VVdXb9u2LZJYLMvW1tZGHjjCNEkwgkDUCMDuaWzbOpVKJca5mUgkKikpqfJfa9euFYvFJSUlkVRVIpFUVVVFEpKEIQgkAAGcxwiCO9QI180iqZtIJNq0aRMKqdFosrOzIxFThGYINHKTCgjgPBEG+9yMRzOWZUtKSrjEq62tLSsrE4lEZWVlcrkcAQo0q6urKysrA3mo0WjQV3JDEEgwArARBs+gEfu6GY9mGo1GIBA0NzcDRps2bcrOzt60adPn/kwkEolAIKirq4NPEokECLZt27b6+nqx/6IoKsHgkuwIAoAA0AyPQt9kMsVjbgZKkIqKis/N9tGIESiHHlmWra6uRjM3YB2SYBRFASFJqxMEkoIAWIFwHewE3kfkcgf8NEZ+WmcktRWJROXl5Zv8V3V1NQglIE9dXZ1AIOAm0tXVJRAI4GAXiURSXl7O/VpdXb127VruG3JPEEgYAjiPEYyHNOPOxFiWLfdfoLIXi8VcmLhDykAVyKZNm3jE48Yl9wSBuCKA07l3AlQgtbW1wK7a2trs7GzudCu8NAuUb3GFlSROEOAiAOeb4dlvBjTDu27Gk2YSiQQmYDDdqqmpQZWRSCRIvkkkkuzsbDQ302g03HkdikJuCAKJQQCWp/HsNwN3qBE6kIukery5WVlZGVedWFNTIxAIqqura2trAzWN5eXlJSUlNTU1tbW1JSUliIGR5EvCEATwIoDTHSp20+Hq6mowAYF/q6uru7q6uPWvra0FOq1duxYp+pGxVV1dHXytrq7mDi+5KZB7gkACEGhubtbr9dikWX9/P0ZploD6kywIAglAAPPyNF6FfgLqT7IgCCQAAZw2jTBoJNIsAc1GskgvBEDTiGHQCGdPR+4LJL1gIqUlCMSCAOyeDrT84L6JyAoEzp5WqVREmsXSHiRuRiIAxlYYpBmcb6ZUKgnNMrKjkErFgoBUKh0aGsJjOozdCiSWipG4BIHUQaCxsVGv12PbCEM0janTtKQkqYOAXC7X6XTYjK36+/sjPBEmdSAgJSEIxBsBUOjjmZsZDIbIfejHu2IkfYJA6iAAxlbY5mZE05g6TUtKkjoI4Dyt02g0EmmWOk1LSpI6COA0tsJuoZ86MJGSEARiQQDnURXEh34sLUHiZjACYGyFZ24GNCOaxgzuLqRq0SEAmkac62bECiS6liCxMhgBoBm2dTOiAsngvkKqFjUCODWNoAIhBy9F3RgkYqYiADTDNjcj0ixTOwqpVywI4PTTCOtmRAUSS3uQuBmJAEgzPHMz7O5QMxJxUqkFiABs68SjaQQnBUSaLcBuRKocHgGcCn2apolNY3i4ydeFiQBOhT4cI0ik2cLsSaTWYRAAKxA8g0aKouLncoeiKIlEEujVtLq6Gh1rFqaeKfUpVF1SqpCkMBgRwOkLBI4RjNO6GRz4AucqcevPO2qQ+yll70PVJWULTAoWIwKNjY1arRaPNAOaxWnQGKprEprF2ANI9AQggHNuFlcL/QhpVlNTIxKJBAJBSUkJOstz06ZNFRUVCM2KioqysjL0WO2/0CPcaDQakUgkl8vhfIyysjKNRgOJZ2dnV1RUoONmKioquAfT1NTUcBOH86+zs7O5p2ZDXSBx+ISKyisGecwMBHDOzYxG48DAQBIHjXAa9ecdvbm5GQ5AAwLI5XKBQIDmddnZ2ehcT5Zlg57JBEwoKSmpr69vbm4Wi8Ul/qvef4nF4qqqKugBZWVl3NOhNm3ahE6fqa2tFQgEcDo2tzwo8W3btjU3N1dXVwsEAu4R9ZnRt0gtEAIgzfAYW8HydFwHjRUVFZJTL3SoNEVRAoGAKxaAdcCu7Oxs+CSXy8VicXl5OZeBSDQhXIAJ6JQZOIMXBaupqUFcCkMzsVhcXV2N0qyrq4NHSJxbVK6sQ+HJTcYggPPgJdA0xmkjDHTN6upqOIoa/YtoxhNZLMsC8eCsJnRMLhzmVFNTA0dRhzosF7JDGhdIHLU6OjSUZdlQNOPmjiLCDS9xSASJR15g8pgBCOB07h1XJwWBXRPQRyoQGKHxmkQgEIBEgjEby7IwDuzq6srOzob+zZ1Zoei87KKgGS8FlDLLsoGfysrKCM24EGXYPZgO47FpBJopFIp4YBTYNSEXRDM4expNwFBvBpqhISWapMEwUiAQ8I4mhGR52YWnGXdkiOZmkGPQGRcvcSLN4tFhUirNPXv26HQ6DHMzOBEmfj70A7smj2Ysy2ZnZwft8RASTu4sLy+HRzjGGk2xeK3Cyy4MzbiHx1MUJfZfKEcYmsIjUnjyEic044GfeY8ymUyn02FbN1MqlRiPeOfCHdg14SuSZizLgqKiqqoq8DRqlmXhrGo0RIRBZqihGi+7MDSDT2KxGM6VLy8vR9SFoWlVVVVNTQ2cjg1qD17ihGbchs7Ie6lUqlar8XgdBgv9ONGMoqiqqirumBDag2dspdFoQLxUVVXxRoOQAtIWwmN3d3fQduVlp9FouIQELTyKWFdXB6djNzc3I3UifOWWB+kteYnDnwCu4hGlTG4yAwFYN8MzNwMrkDjRLDPgJrVYmAg0NjZqNBoMczNyvtnC7ECk1pEggNkXSPzmZpFUhoQhCKQmAvhpFqfl6dSEj5SKIBAJAnBaJzZNIzlGMBLQSZiFhgCc1olnbkZUIAut95D6RogAGFthoJnVaqUoamBggGgaI4SeBFs4COA8qgLWzeK0EWbhNAmpaeYhIJfLNRoNnrlZXLd1Zh70pEYLBwGZTKbVajEMGmHdLH4ud4I2SV1dXVdXF0VRtbW1NTU1yMID7Ibr6urQJxRdLpfX1NQE9dLD/VRXVwepaTSa2tpasOTibt9EgXmGKShHntFwqPeoYOQmgxGAQSM2Y6sEr5uVlZVJJBLY2lxeXg5blaG1YEtYSUmJWCwG+12NRiMWi7Ozs8HsUCwWI1pSFFVWVoY+VVVViUQitA1UIBBUV1fDZlDYxsYNzE2nrq4OElm7di23MNz3YrGYS9cM7lukaggBUIHgoRlshEmkCgQcdSBbQbAGBjGCHASgqgIhkfDhWtYDixDrwGsAl2ZcYvDSqa6uRlb/JSUlaIuAXC4vLy+H7LjbyTQaDXqPykZuMhsBuVyu0+nw0MxoNPb39yeYZqiLQzuVl5dDR+ft8oTdX4iQaDcamBeLxWJkuY+2XXNphsjJsizaKgo5cs3tRSIRohm335SXl3Mtj7mfyP1CQAD8NOIxHTYajfHbbxa0McrKynjdWiKRwBCRRzPYrsJlC+xPAy7xmMOyLG/QiHIHUn3+lXuh6HV1dTAuraio2LZtGxKPXV1d8L6srIz7HiVLbjIbAZlMNjQ0hEcFEteNMEGbIZBmFRUVQWkGe6uRbw9ILTs7u76+HgQU3KBcuC56BAIBeg80A49UzZwLEZiiqPr6ehiFisXiOd+jlMlNBiMANo14Bo1gBZJIm8aysjLeoBEpGHjSjKIoRCpoTiAeCBzeoA4+cQeN3B6AGAgvKf8F9xqNBvEKCIlcJKD3yF0CN01yn9kIyGQyvV6PTZr19fXFyYFc0GYAFQjoJyiKAo9xwBwezViW5eo5QOuIPAjAkLK6uloul9fW1paXlyMu8fZNsywL3j4gF4qiIFmY0SE3W2izNhCP6z0BtnhzZ4lBq0ZeZhIC+I2tEmkFAho8YEW2/wIRxLJsIM3ggAiBQADuUMvLy9HcCcKD9r+8vLyrq+vzqVcoaQaMRemIxWK0TRtWEaAk2dnZSK2C5mzwCb3PpJ5E6hIGAZwbYRJvbIUU5V3+Cw3MQLbwZmKAgkajaW5uDvqJCxOSZizLBg38+VJbc3MzIhg3LrznFga+hnrPjUvuMxIBnDaNYGyVeGkWe8PU1taCl3xICpzzcGVd7FmQFBYyApiPeFcqlelIM2QgUlZWVlJSwjXgWMidg9QdFwJw8BIeTWNcvQ4HrXBXVxdGmdPc3LzNfwWO94LmTl4SBCJEAKcPfTiqIpFWIBFWkgQjCCQXgebmZr1ej0eaGQyGBJsOJxc7kjtBIEIEcM7NaJpWqVREmkUIPQm2cBDAaQWSeE1j+Hbq6uqSSCThwyTxa21tLVrlS2IxSNYJQADnMYI0TaeUZ6tAA44EABp5FujItcijkJBpigDO3dNGozHBu6fDg87dCRY+ZFK+EpolBfakZCqTydRqNR6bRhg0Rm06XFdXV1JSwlWmw6ox4PK59QbsWRaJRFVVVUiPX1dXJxKJuNiJRCIwzkDmVOjEIxSsoqIC7dSM5Kj1mpoaONhFJBIhA8VNmzaJRCJkrIzKKZFIIBh3yRt2uEEVSkpK4IwY7iY07mHw3MHk5xXkPqIqkJs0QkAqler1ejwud8DYKmqagRE9196vpKQEOiIsH1dVVXEPXAeUA20X0e4v1AwwekQ2U2A7DztfIHrgKewoLtyAufDatWvr6+shCuzBaW5u3rRpEzqgHcqJDoZfu3Yt2gsDn8rLy6EKYD+JaBamGLBczv3rwysbeUx9BHBqGmP3bMUd5gEZQC6BXwCEJhAS/sZHQjPYwYnEF/fkaN6+6Zqamuzs7MA+JOM3swAAIABJREFUDbb/qABcBwdw0C5KvLm5GUla2PMCVeCeCo/M+RHNghYDsgMjTJQ1uUlHBHCqQGC/WSwbYUDsQC9Hp8tCP+ZKOZZlKyoqoI9GSDPuUe7I4Bjt0ZSfvCC1QINgbvTPjYl5NOOd8k5RVFdXFzrKEPa8BN2BimS1QCDYtm3byVL4NuMIBAIkftOxY5EycxEAaWYLewnCfv3iIxhbxUIzEDvAKLFYjOYkaFsKKnooZwSBvjogCjoJmiskYftmSUlJ+alX4NmCkdMMTuUEd1rgugfRDEk8KBJSgUReDFR9cpNeCODcCIPFhz50aO7WZvDMweujSDjwpFmgax3UHuXl5Zs2beKOGLmDOhQs6E2ENIPCcLdsookiEr8ofZ5QJbILIZN5N6ACweByB454V6lUMUozkDZr167leh+AASSaMkEY0GEAIZHvUVBIcDs6ajOYHZWUlCAhybIs8oQFweRyOc+HD7yPkGa8CRiXdTDrQ9M2qAKam4UpBgxBUS3ITToiAINGnAr92I2twLEplwwURYn9V01NDWgjuGSATxUVFSAfkADhtQcoTgQCAerrLMtyT2Gvrq5Gynpe3AhpptFosrOz4Yz56upqUBIC5ymKAu1ijf+CkSqiWZhiEE0jry3S8RFUINgU+lhMh3kyAWDVaDSgh1y7di2XgbAeVV1dXVVVBQPLqqqqwMkVJAIs5bUTOoU9MGUUsq6ujjtqra2t5T5yvYVrNBoQxdXV1XAwPCoMeCspLy9fu3Yt6Ei4FQlVDF5eqEjkJo0QkMlkOp0Ow6DRZrOZzWYs2zoDpzFpBCgpKkEgEAGcCn2apmN0h4qU4NxxXWChyRuCQHohADaNePabwfK0QqGIGoLq6uq1a9cGVWBEnSaJSBBIOgIgzb5Y+wp2l9B1s6QjQgpAEMCOAGZpllIW+tjBIgkSBKJDAKQZHhUIRVGEZtE1A4mV2Qg0NjbqdDo862bgcifG5enMhpvUbmEiAMZW2NbN+vv7E+mncWG2Gal12iGATaEPxlZYlqfTDkRSYIJAeATwnz0di0I/fFnJV4JAmiIAViDY5mbHjx+P3aYxTaEkxSYIhEIATIfxaBrB5Q5RgYTCmrxfsAjA3AybFUh/f3/UvkAWbBuQimc8AnDEOzZNIxbT4YwHnVRwoSEA0gwbzVLKHepCa0tS35RFoKmpCZsDOTiqggwaU7axScGShQBmr8NkbpashiT5pjICOOdmJpOJ2DSmcmOTsiULAZzrZkajUalUkuXpZLUlyTdlEcBmbGWz2SiKIjaNKdvSpGBJRACMrfAsT4OfRqICSWJzkqxTEwGcKhDYCENolpotTUqVRARAoY/HphG2dRKaJbE5SdapiQBoGvHQDKQZMR1OzZYmpUoiAphNh1UqFdnWmcTmJFmnJgKp6Nw7NZEipSIIRI0ATgt9OK2TDBqjbgwSMVMRAGmGZyMMLE8TmmVqXyH1ihoBzNJsYGCAbOuMujFIxExFAOdGGHDuTRT6mdpXSL2iRqCxsVGr1eIZNBJ3qFE3A4mY2QhgGzSCAzmyESazuwupXXQISKVSjUaDTZqpVCoyaIyuJUisDEYApBk2K5C+vj5CswzuLqRq0SGA07k3MR2Org1IrIxHALMVCJmbZXyPIRWMAgGc55uBO1Ri0xhFM5AomY0ATicFcfIF4iUXQSA2BJLOYZwqEJqm4zFojA1hEpsg4E06zZqbm/EsT8dv3Yx0E4JAjAgknWY4t3WChT52hX6MEJPoBIGMolmcdk+TXkIQiBGBpNMMpy8Q2AhDpFmMfYJEx45A0mkmlUqHhobwOJCjKEqlUmHfb+b1etX64bGJKavdfkw5OD4xzTBMv0bXqxr0er0T04buY31mixV725AEMwaBpNMMNI3YaKZUKrHvN3M6XS3tisPHVd3H+ky0Wdra3tOrPNrXf7xf3a/RNXwmo82Wptb2jOkTpCLYEUg6zcAdKh6bRvA6HI9B4/Do2JG+/r0HFCzLHulTvfdR4+QUZaTNew8o9h7s9Hq9LQc6AtvGaLZMUqZxg5Emsi4QnYX0Juk0k8lker0eG83iNGgcm5xWDmpVg9r6T5s+kbWaLdaG3fKPpHsoE93Y0rarsfmYciBUt3F7GLPVFuoreb8QEEg6zbDtN7PZbDRNx8NCn9sPWJZFj+gW3aBP3BtCMy4aC/M+6TRLD2kWS+cgNIsFvcyImwo00+l0eAaNqWnTSGiWGVSJpRZJpxlOm0aw0I+HQj8WiAnNYkEvM+KmAs2Gh4fxOCmgaVqpVGLfCBNjSxOaxQhgBkRPBZpptVpb2EsQ9usXH8GzFaFZBvTLDKtC0mkml8v1ej0eaRYnP40xNjmRZjECmAHRk04znMcIJkChH0WTE5pFAVqGRUkFmuF0IKdUKokKJMP6aAZUJ+k0a25uxqbQJ4PGDOiRkVZB3e997WXv9FSk4ZMaLuk0w2bTCLuniTRLandKVOYOh/ee27xl3/X+YUOisowpn6TTDOfu6dTc1knmZjH10IDI7IzNKf/U++v13vKL2D/9NuB7Kr5IOs1gWyc2TWO8bRqjaENCsyhACxWFNZtsL/6JvqOC0fR7Gz+xb33G1b4nVODUeZ90muH00whzM7JuljrdC29J2OkJy+/Xm++91jOohJRtz/7esumXeHOJR2pJp5lUKsW8bkY0jfHoKElP032ki7670vL7h5jxUVQYj27QdPPlqS/Qkk4zbINGUIGQQSPqgplzw7JO6S769ivtb9SwDscp9WLZmR2vmR+50+vxnPI+xR6STjOcG2FgeZpIsxTrYzEVh7VaZt7bTkt+5qh/OyiXmLEROuUFWtJphvl8M6LQj6lTp1hk1mS0/vkPtORnroN7wxTN/s/XzQ/dxtpS1+tR0mkGBy9h0zQSmoXpjun1yTM6Yn7kDsvDd3gGVeFLzkyN07esce2Xhw+WxK9JpxmoQPBs6wQL/Xi43ImlhYhCf97osayr6yB9zzW2p3/DWi2RRJ95+++mu9ayjplIAic+TCrQTKvV4qEZuEON39zM4/H0+ZzG6b1er3JA06sa9HiYkfGJ9q7DJrM5VOMRmoVCJuh71u1yfvIBfdtP7W+86HW7g4YJfMnQRvre6xwfvRf4KRXeJJ1mmNfN4nH2NGqniSnD/o6uj5paOg4fO3xc2X2s7/iAurGlbdJgaFf0oGDoxu1h3G6Pw+kiDuQQJuFv2Bmb/bXn6Puud35Wz87MTzTN/N+bvhkaNR0+i6R8TTrNMM/N4k2zT+Stn8hbm1rbJw0UZaL3Huzce8Dnp3Hfoa7A9rPY7Eaz1WCijeaIRj6BKSyoNyxlsP7xEfMvrnOHVXiExMTlND9w08x7b4UMkLwPSacZzv1mMGiMnxXItNG471CnbN9B7dCIrPXAnvYOE235rHn/nrZDXUeOh2pEMmgMhcwX76lpb3ur/c2XzNW3e3TqL97P887x/g76zrWs89S1tXkmEo/gSacZziPeDQZDf39//GgWXQMQms2Bm8novU/iM7d/epPX7ZojcNjPrM1q/mXVzN9fDBsqCR9TgWYajQabCiSug8bo2ofQbA7czGbvL2730eyZJ+YIGcFn557ddNXPWRMVQdjEBUk6zWB5Gg/NyLbOxHUcTDmxHo/95afd9e94P6rDskeTdTos6261p5hASzrNZDKZWq3GQ7N4K/Sj61pEmoXEjWWdn9bTd631HOsOGWb+H1yHWulb1jCT4/OPGq8YSacZzM3wHLxkMBiUSiVZno5XZ8Gdrkd1jL71J86P/u0NfwrBfPN1u83rb7W/+fJ848UvfNJplk6axuiagUizoLgxZpP54SrbX54K+jXGl+4jnabrfuTR9MeYDq7oGUUzmJthP0YwRqwJzYIAyLK2F/5gefiOeOkqPG7r7x6y/+0FzHIySE0iepV0moEPfavV+oXz4IC7SL0Om0ymOJ1vFhGWIQIRmvGAYRnGKf+UllzlPupb2Y/T5T7cQd98hUfnO7g46VfSaSaVSjHbNJK5WdJ7VfgCePp76ftvcNT/K3yw2L9an/i17c+bok9netI7PBR9dE7MVKCZRqPBowKBg5cIzTjtm3K3rMtp+dWdts0bvAwT78K5ew6ablzt0YQ8SDVkAVjWe6Tbe9WPvT+/zKuef/SAdJNOM8wHL5Hl6YAmTqEXrMdte/Epy6/vZsZOJKJYLGvbstH6p197mYhcGLAmo6u92b71GfNDt7lqnvL++Hu+RXPFwdiLmgo0w+bcm5xvFnuHiGsKrkP7TDesdne2xzUXbuKeQSV960/cR8JNAlmzyXmgxf7qc+b7b6RvXWN96jHHh++yYye87+xgarY4P62PfD8ON2vufdJpJpPJdDodzt3TZNDIbeDUuffoBs33Xudz6ZHYy7rlt9Y/PsKeai3Jut3M1Lhzz27rnx6lb77C/ItrrVt+65R9wtt94+o6aLr+UndXrH8XUoFmOFUg/f39hGaJ7cYR5ca6XdYnf2353boETMl4BfJoB+lb1riP+XcqsaxndNjx4buWDffTN19O33217S+b3T0drD2EHxGP2/bKM5ZH72FtMW1lSjrNmpqasJkOUxRF5ma8TpYSjyw789ar9L3XefSapJTHLf2IfXoT2/C+7YU/0rf+lH7gppl/veFR9bI225wLa8zkGH3vdTPvboul5EmnGWbTYUKzWHpDnOK6DrbSt1+VTKelLz7jU2b8+Huerg6PdiCoI7owdXe2NNK3X+kZ0oYJE/5T0mkGfhrxLE+D6TAZNIZv8gR/Zc0m+q7KmX9snVNuxLFgTZ96L7/E+4vbvDxvqpFlyVottj89an36N1FXIek0g+VpPCoQOBGG0CyyzpOIUKzdan36N5bf3Jd8J4o2aywKQ49eQ99yhautOTrUkk4zsNDHsxEGlqfJ7unoukI8Yjk+eo++6XJ2aiIeiSc4zZl/vWF+8GbWEM3BhUmnGU5pFm9fING164K1aXT3HKJvv8rZ9FF0uKVaLNZup++/YebvL0WhLE0RmuGRZvGmmdvtOT6g7lfr3B7PoG5IpdY6na6xiamjff1mcwiNsNe7EGnGst49Mve2V2f+781YhmqpxjR3R5vpljXuwx3zLVjSaYbztE7YCBM/d6ga/bDi8LFe1UBv/+Ch7qO9qkHlgObDxuaxicn9HSH3/y5Emu3+2Hvpxd5r1ngHU2XH13yJETQ863TY/vK0ZcMD83WelXSawcFLeEyH432M4MHuI4d6jn3WvO/T5n2j45PTRuN+RffeAwqWZVsOKAIbhqItE5RxbJpaUH4aWcbD/rPWp0CvuMw7MIf7+0DQUvwNM3aCfuBGxwc75lXOVKCZTqfDNmiM636zSQN1qOfop82tY5NTTa3tu1v2W2321oNd8n0He3pnz48MRH9BSTPW7Xa8v91n3CTb7VX2BqKRAW+cnzXQd1bMaxktRWiGR6GfgHUzp8vldvvMvcFrt9frW0pxusJ5F1w4NGNdTvsbNaabLnd1tkVoFJ+OrGNnbNY/POwz/I/4SjrNYG6Gh2Ymk6m/vz9+c7OIUT0l4AKhGWu32f68yfyLa91Y3VSdAmXKPLj7e2nJz5z7ZBGWKOk0w7nfDA5eIjSLsO0xBmMstPW5x833Xe/uOoAx2dRNimXt/9jqW0az0JEUMuk0w3y+GXEgF0mr4w3DGA2WjQ/4zvtTZ5ReMTxKrNNJ33e9/a1XIrHASjrNMJ89rVQqiWer8P0D71dmetL88B3m9bcyE2N4U0791FwHWkySq9x9R+YsatJpBgp9nKbDZNA4Z6vjCuAZ0pp/dZfl0btZKhoTJFzFSFo6LGvdssH6eDVvz2hgeVKBZti2dRoMhr6+PkKzwGaOxxvP0S7z/Tf4zq2NbH4SjzIkPU1mdNh87/WOne+EHzqmCM3wSDOKogYGBgjNEtD53Mpe83032DZviHFbcQKKGu8snB+/73jtz95jR8IwLek0k0qlOH2B9PX1kY0wc3QsZa/3vbe941FOpViGcR/uMN14mf3V5+ZrczRHwdL0s8novanCZ/XyUX2oGqQIzfAYWyVgeToUjmHep9a6mdvtveVqX5/4wwbHh++6j3axxvkdBeab999w6czbf5tzQhIGk4z6NDbqvfJHPkhrXw9Vr6TTDOdpnTRNE4V+qJaefc+y3nv9R2PWPGP9wyOmmy6j7660bvrlzD//5lGr5jTdcHxSR0uudPz7H5lkdz8HYpF87jjgff//vOaQa2ipQDOtVovHCoQcVTFnl/AM9M1sfYY9sM9r8+3cYWiT62CrfdtfLb9fT9+5lr6jwrZlo2PXu+5jPazJeEpqLGvf/hpd9XPnxx942bg7DD4l6/R/SBGa4VGBEOfe4Tsk65jxOS18vDrIxkSX06Ppd+7ZbX/9ecv6W023rLE8eo/txSedzZ+yyuPeV19km3eb193savoozEQ/fO4L+WvSaQaerfBIM5qmiQokTG92tsroqqsYnTpMGPjEGKYcn9Xbav5ofeox75OP+yYeay9nh/VzRiQBgiKQUTQD597EF0jwlrZZ6TsrHe+8GfRryJeMx7v9797LfuB95H6vyxkyGPkQFoGMohlZng7T1vY3XzL/UsKGnqaHiesdH/VaQ3phCBeRfPMjkHSagYU+NoV+XLd1RtdnUkGh7/MFf/tV7p5D0VWBxIoRgaTTDNvczGq1UhRF9psF6RAsa37sXtuzvwvyibxKCAJJpxmYDuNxUgDuUImxFa/nzLz3lvne65nh6H1T8xIkj/NFIOk0A2MrbDQjPvR5PYAZH6Vv/Ynzkw9478ljIhFIOs3ASQGeuVli1s0MRpPX67XabLTZdxiPx+OZpowsy4ZqtmTOzTwe2zO/9fnWdjpCFY+8TwACSacZzhNhEmBs1Xmk990PPx0+Mban7VBz28GhE2N1nzQd7euX7wuyOZ9lWYZlnW43bbUloC0Ds3C2NdO3/ZTRDQZ+Im8SiUDSaSaTybDtNwNpFr+52eQ0pTh87GNZy76Orolpg5E27z3Q2XrQd+Bqy4EgnmjNNruBNk8a6aT4aWRn7OZ1N9vfeDGR/YnkFRSBjKIZWOh3dnbirRUCbpoyHTp8tPaderV+WL7vYLuie3xy6rPmfT29yq6jx1Ew3k1SBo0sw9jffNm8/tYoF8p4dSCPsSGAt0NGkRqc1onH2CoxczOLze71ei0WK23xrdg6nc5pyjdbC3UlhWbuI5205Cq3oi1Uqcj7RCIQBTHwRsFJM7LfDLoO63ZbfrvO9uzviZlvIrkUJi+8nIkiNdhvhkfTaDQayfK0T8Du3mn+xbW+01/JlRoIREEMvFFwHvFuMpmIsRUzfoK+o8JR/y8iylKDYr5S4OVMFKlhXp5e6LunWdb20pOWX98dZEdZ6nS6hVeSKIiBNwpOd6hms3mBW4H4Dsi89ScLwYt9elEVL2eiSE0mk2E7eMlgMCiVyvitm0XXtAnTNLJWi3n9LfY3XyLDxehaKn6xoiAG3iiwPI1HoU/T9MKdm7Gs7wzye69jJsfj111IytEhgJczUaQmlUrVajUeTWO8D8WNDuLESDN33xH67qsz5jz16KBO2VhREANvFKlUis3YCtbN0n7QaLN6eV6lwnefGbt37ISt5k+2p38TPiD5miwE8HImitRw7jfLhOVpm817Y4X3J2XsXrl9+6uOD/7p+Oh9x6f1jsYPnfJPXAf3uo8f8QzrWBPF2izszIzX6fQ+96S3/CLmhc3M1GSyuhHJNzwCURADbxRwUoBnbmY0GtNa08g6HZ5D+73lF/k8Sb37T+ufHrVsfMD8yB3maol5/a3mB24033u9+b4b6Huvo++/gb7P97Nt+a33rpt94R+6hyjxw/f1JH7Fy5koUsPmQ99qtYLLnTQ934ydmrD+8RHrE7/y7njT+/xTXsN0YLdg7TZmRO/uP+5StLsOtLj2N7s72rwH27wbH/EdlUCuVEUgCmLgjYJ5btbf359+DuQYxrlnNy35mfXxamZ0OFW7CilX9Ajg5UwUqWGmWdoNGpmpCevTG+iqnzne3x59M5KYqY1AFMTAGwXnts60U4E4D+2j77ve8tgv3Ee7UrufkNLFhABezkSRGk6bRpqm0+UYQZY22rf9lb79qpk3alhjkGlYTK1KIqcYAlEQA28U0DTawl6CsF+/+AgbYVJ9bsay7uOHzY/eTd99Ndl2mWJ0iFdx8HImitTAsxVOhX4qL0+zLufMP/9G37LG9uc/EPcB8erUqZduFMTAGwXzutnx48dT9FBclmVGhszrb6Xvuca1X556PYGUKI4I4OVMFKnh1DSCA7n4DRpZltWNjE5OG7xe78jYuG54lGW9Fqutp1fpdLpCtRJrMrp6j7oOK0w3r7E9/Rtm/ESokOR9piIQBTHwRgFphsfrMBy8FD9pNjY5dUw1KN938KhyoPtYn+LwMbVuaPee/WOTUwe7gqwO+5Cy27333e5d80PmL885dzewMz53PeRaaAjg5UwUqeH0OkxRVF9fX1znZm63+7Pm1qbWA1MGykSbW9oVrQd9uvi9fm+NvN7DMCw7Oen9+WqfMdQfN/C+kseFg0AUxMAbpbGxUa/XY5Bmdrudoqi47jebMlAvv/nPPW2H9MOjjS37Za0Hxqem3/9Y2nqwc9+h0AtfB9u8W2u8E2MLp1eRmvIQwMuZKFLDuW5GTuvktS55TBEEoiAG3ijgCwSPQt9gMBAHcinSsUgxuAjg5UwUqYGmEQ/N0s7YitsS5D6DEYiCGHij4PQFQvw0ZnBPTeuq4eVMFKnh9GxFpFla98UMLnwUxMAbBacKJN4HL0XXDxLjcie6spFYiUEAL2eiSA3mZlar9QsL4IC7eZgO9/X1penu6cS0N8klKQhEQQy8URobG7VabQCzTnkREc2sViv4Aonr8nQUjUSkWRSgZVgUvJyJIjWch+LG29gqurYnNIsOt0yKFQUx8EbBqWkE02EizTKpg2ZGXfByJorUsB1VYbVaiUI/Mzpl5tUiCmLgjSKVSvHYNNpsNvChHz8L/eianwwao8Mtk2Lh5UwUqTU3N2u1WmyaRpVKRTSNmdRBM6MuURADb5Smpia1Wn2KYjHgISJNo81mi7eFfnRNTqRZdLhlUiy8nIkiNdA04rFphBNhyKAxkzpoZtQlCmLgjQJnT+M5eAk8WxGaZUbXzKRa4OVMFKmBkwJCs0zqVKQufASiIAbeKE1NTTqdDtugMa67p/ngRfZM5maR4ZTJofByJorU4LROPDSD5WmiaczkDpuedYuCGHijNDU1DQ8PY/AFYrPZiLFVenbCzC81Xs5EkRpY6OOZm4GmMX5+GoN2B7PFplLrzBZb0K9er5cMGkMhs3DeR0EMvFFAoY+NZn19fQnWNDZ8Ju8b0CgOHwvVaQjNQiGzcN7j5UwUqcHuaTxzM7BpVCgUUZQjTJQwvYFhWXAd13KgI1QwhmVtMzMutyd+P6vdHr/EXW6PxR7f8s84nDNOV1yrEO/0rfZwjm7D9K7EfMLmpMBut9M0HW93qIFc2tPe0X20L6jX4cDAcXpDmS1xShmSpWhzXNOfcTpnnM54ZxHX9CcpU5j0E8OlMLmA12E8KpCkWOizLGu2WFmWDYNyvD8Rms2JcLxpnOI0w2kFAiqQVNtvNmcPiD2A0+WOPZEwKThdIQ/iCBMr8k8Mw3gYJvLwUYSMd/rhaRxGziTmE9AMjzQDJwUJ1jRG0eQkykJDIDFcCpMLzoOXUtOB3ELrUqS+gQiEIUBiPkmlUmzL0xRFpeDZ04GgkzcLDYHEcClMLrB7Gtu2TqVSuQDnZgut16ZdfcMQIDGfcB4jCO5QE7lulnbtTQqcFAQSw6UwuWBzuQM2jUqlMsFWIElpNpJpeiEQhgCJ+QQbYfAMGpOybpZe7U1KmxQEEsOlMLkAzfAo9E0mUzzmZmFKTz4RBNICAbACCfCyc8qLiFzugJ/Gvr4+7OtmaYEjKSRBIAwCOI8RJNIsDNDk00JGAKdz7zgtTy/k5iF1zwwE4HwzPPvNgGbY180yA2hSi4WMACxP49lvBu5QsSv0F3LzkLpnBgI43aHGyXQ4M4AmtVjICDQ3N+v1emzSrL+/n0izhdyfSN2DIoB5eZoo9IOiTF4ucARw2jTCoJFIswXepUj1AxEATSOGQSOcPR0PXyCBhSZvCALphQDsnj7F6CPgISIrEDAdVqlURJqlVw8gpU0AAmBshUGawflm8bDQTwAKJAuCQFwRkEqlQ0NDeEyHiRVIXJuKJJ6+CDQ2Nur1emwbYYimMX27Ail5/BCQy+U6nQ6bsVV/fz/2E2HiV3mSMkEgMQiAQh/P3MxgMMTDh35igCC5EATihwAYW2GbmxFNY/yaiqScvgjgPK0zTuebpS+4pOQEAUAAp7EVsdAnvYogEBQBnEdVxMmHftByk5cEgTRCAIyt8MzNgGZE05hGzU+KmhgEQNOIc92MGFslpuVILmmEANAM27oZUeinUduToiYMAZyaRlCBEAdyCWs8klG6IAA0wzY3I9IsXRqelDORCOD00wjrZkQFksj2I3mlBQIgzfDMzYg71LRoclLIxCMA2zrxaBrBSQGRZolvRZJjiiOAU6FP0zSxaUzx9ibFSwoCOBX6cIwgkWZJaUiSaSojAFYgeAaNFEURlzup3NikbMlCAKcvEDhGkKybJastSb4pi0BjY6NWq8UjzYBmZNCYso1NCpYsBHDOzYiFfrJakeSb4gjgnJsZjcaBgQEyaEzxJifFSzwCIM3wGFvB8jSx0E98K5IcUxwBnAcvgaaR0CzFm5wUL/EI4HTuTZwUJL79SI5pgQCYDuOxaQSaKRSKtKg5KSRBIGEI7NmzR6fTYZibwYkwxId+wlqOZJRGCMhkMp1Oh23dTKlUkiPe06j5SVETg4BUKlWr1Xi8DoOFPqFZYlqO5JJGCMC6GZ65GViBEJqlUfOToiYGgcbGRo1Gg2FuRs43S0yDkVy+9TwbAAAgAElEQVTSEQHMvkDI3CwdOwEpc7wRwE8zsjwd7zYj6acdAnBaJzZNIzlGMO16AClwAhCA0zrxzM2ICiQBDUaySEcEwNgKA82sVitFUQMDA0TTmI79gJQ5rgjgPKoC1s3IRpi4NhhJPB0RkMvlGo0Gz9yMbOtMxx5AypwABGQymVarxTBohHUz4nInAW1Gskg7BGDQiM3YiqybpV0PIAVOAAKgAsFDM9gIQ1QgCWg2kkV6ISCXy3U6HR6aGY3G/v5+QrP06gGktAlAAPw04jEdNhqNZL9ZAtqMZJF2CMhksqGhITwqELIRJu2anxQ4MQiATSOeQSNYgRCbxsS0HMkljRCQyWR6vR6bNOvr6yNeh9Oo+UlRE4MAfmMrYgWSmJYjuaQRAhg2wlgsFtp/GQwGlUp16NAhJ7kIAgQBDgIYbBqHh4dV5CIIEARCIxDrEe8Wi2VoaCh0+uQLQYAgoIKDl6LUNJrNZqPRqNVqMQKpSeyFseQDAwOJKTuWMiestEExwVKF/qRe86pCTD70TSbT5OTk4ODgvLIMH9jtdnsTeIUvzLy+Dg8PJ6bg8ypVqMA0TcdYWpqm9Scvm802r9SwjIAGBwdHIruGh4ch4NDQ0MDAwNGjRzs6Og4ePHjo0KHu7m6lUqnX6yEAChk+YY1G8//bu/agto6rb2PsjPPotJNOphln8pxvpp62M20t5MekthtoE7vu1Mofn6dOjPw1djLpB7Yz9rT1C/xIDG7sOEmRM0lBb2NhGSJihDFIAmwjJCTAPM0VBgldIQF+ADbYGCTxZXTKmf0u0rV0JTBxOH+Ivbtnzzl7dn/37N3dewnl2KD55eXlXV1dXKLZ0NDQwMCAx+Ox2WxBRXPLjAhmsNbkmyBcegq/y7kZGbTW9w1mUqmUN0FqtTp8n4+Pj08nzGiadjgctbW1Wq1WoVBkZ2fn5OTI5XKFQiGXyyUSSXZ2tlgsVqvVFy9ebG9vpwMUW5hxfzYDmHV3dz9EmPl8vrGxseLi4vXr1x87duz27dter9fv94ff5UEBwy3z+wyzs2fPhu/z6YEZoMXhcFRWViqVSqlUWlxcbDab29ra7Ha70+mkadrpdHZ1dV27du3KlSsGg0GlUonF4nPnzjU1NcUWZtxPgcBH891uN7dBGapWRNFseHg4KyvrmWeeiYuLmz9//saNG2manoVZKN+S+dFPGsloNjNhZjablUqlQqEwGo2dnZ0PnBA6nc7m5maNRpOTk3PhwoXOzs5QYIt00sj93whiNCM7L/p0ODDz+Xxer7e3t3f79u1PPPHE3Llz5wQoPj5++fLlZrPZG6Bw7q/RG4wSwo9mfr9fIpFs2bLlf8Km995778KFC9Ai1BhN4tGGmd1u12q1Eonk4sWLDocjnHkgIoqm6cbGxjNnziiVysbGxqDgjBRm3N+efojRzOfztba2vvHGGwsWLIgLEMAsLi4uPj7+ueeeU6lUIyMjMxZmeXl5v/71rwsKCorCJo1G8+Mf/7irq2t8fDwadGHdRxVmNE23t7fn5+fn5uY2NzcHBQkiiiXhcDhKSkokEonVap0shAPMOjo6uJxpBJh1d3e3tbVh50WfCBrNYB7o9/vhYUylUr3wwgvz5s2bO3duXFwcYGzOnDlxcXFz586dN2/eU089lZqa2tvbC4sjUDEo6qI3GCWEH83S0tL27dsX1B6WzLVr1xoMhlmYocODrjS2t7efOXMmPz+/o6ODBUXhFNE0XVVVJZVKzWYzgz9SmJWVlXV1dXH55A7CbBqWQAAnXq/39u3be/fuffzxxxkAQ6TNmTNnboDi4+MTExMbGxvHxsZmAszsdvuuXbv+N0BLly7l8XiQZvn94osvyOfMP/zhD3q9fqphBr7C2xNpAOMWMAOfzbq6ugoLC9VqdVAEMqASziVN0xcvXpRKpYzZIweY2e12jgv6/f39LpdremDm9Xq/nTS/+eabCxYsACCRcWwyzObOnRsfH7948WKtVjs6OhpquOCtMfoESzQbGxt7/vnn09PTv4qE+Hz+P//5Txzc0wMzh8OxfPnyZQHatWsXap+cmGkwo2naYDAoFAqbzfZACOE88IGPbU6ns6ys7NSpU2R4jBRmMVgCmVKYwc11bGzMbDb/8pe/JOEUZvrpp5/+7LPP7ty54/P5JoMtenShBBaY2Wy2l156afJIZc8pLi5evXo18kwPzOx2O2+CduzYgdonJ2YazJqbm7Ozs2traxFCk8EGe2j19fXl5eXnz58vLS01mUw2m42lisvlstvtKpWquLgYBUYKM9g3G2alOUFLp2fS6PP5RkZGTp8+/ZOf/CRU+GLHW1xc3MKFC//617/29PRM3lVDkESfYMDMZDIdOXLkowDt3LnzRz/6EV5CJuP36NGj165dI0dzSUnJqlWrMGcWZow+ImeGNE0XFBRotVoWwNA0XVtbq1QqxWJxfn6+VqvVaDSnTp3Kzs6GM4csdRsaGsRicWtrKyAtUphxfxFmqhf0IY4NDg7u27dv4cKFsLzBjqigpTDDnDdvXmJiYmtrKyANwxqj56K5JGFWWVn5yiuv7N+/Py1s+vvf//7yyy/39/cjrmZhxt4dJMzq6+vFYnF7ezsGHEbC6XQaDAaJRHLp0qWOjg5AFOxQNzQ05OXlqVQqlrBG07RWqy0sLOQGM1gC4fLJHYxm7L6ItBRWGgFjLpdLIBDAqn1QCIWfCY9qP//5z2FXDYdypOax8JMwO3DgwMGDB1FLmIkNGzbodDpk/q7DDO9l2CJMxPawFU3ThYWFRUVFLOHIaDRKpdL6+vrJPDRN2+32/Pz8goICh8PBwCdeNjU15eTkUBTlcrkijWYwaYxqQZ9l5HEoApj5fL6Ojg4+nw+r9rgBHT6uJnPC4uSzzz6rUqlw24CDhaGqRA+zTZs24R70+Pj4zIGZ1WpNnKDs7GxAS9Bns6ysrAnGxJaWFsQVIxFbmHV0dIjF4itXriAkGIn29naZTGY0GidjDDhpmu7o6FAoFJcvXw7F43Q6VSpVZWUlB5jBEgjHBf2BgYEp2jfzer1vv/02TBRjgjFc6I+Li3vmmWdcLhd0fCjMcMh/tGHGm6CsrCwWmB0/fnyCkVdfX4/oYpzqji3MamtrFQoFnrJnYMzlclVVVZ06dYolUrlcLpqmKyoqcnNzWeSUl5fn5+dzgJler3c4HFwmjcPDw/39/VN0dNjr9W7dujWGoQyCGwS0559/3u12Tw/MBgYGRCLRv1hJq9WCMTM2mjU3N7/66qsJCQk8Hi8imI2NjdXV1Z0+ffqDDz54/fXXKYqClsYWZqWlpUVFRZPRhZGqsLBQp9OFClNYkaIoiUQC00LMJBNNTU1isdjhcEQ6aYxqQR/2zabiFIjf73e73SdOnEhPT3/llVcmzwA55Dz22GPvv//+4cOHycczDlErVJWg0ay/v//jjz8+ykoqlWpmwmznzp0Qhbxe761bt0QiUaQwU6vVa9asgfiWkJCAJ7xiCDOapvPz8y9evEjigUzTNK1SqUwmE5kZNG232+VyeWNjY9BSCGLZ2dltbW2RwgzONHLfnp6iaAZLIH6/f3R0NCkpKSbzxieffLK5uRl2z/DpPBRmOOQHhRngJ8zfGRXN1qxZQ9O00WjcuHHjb37zmz179ty7d+/EiRMRRbPx8fFLly69+uqrPB5v48aN6PYYwszpdMrlcovFEgobNE3n5eWFA7POzk6ZTMbyFozT6VQoFHV1dZHCDKJZ0I0xzGTbN3O5XFMRzWBc+ny+0dHR1157jUPsmlzl8ccfb2pq8vl85KDnAKdQVR4xmKWlpfX19S1btuwf//iHQqFYs2bNkSNHBgYGvvjiC3Bg0CUQfDZ7//33b968WVxcvGzZssOHD2/cuPGjjz5Cz8cQZl1dXRKJpKGhgQVm586dKy0tfeCk8erVqxKJhOUQCQbGSGEWVTSDJZBQw45bPq4BQpeMjo4mJiZOxgyHnCeeeKK5uRl7GhLcjAxaKyjMfD6fWq0+zUpWqxWMmVHRTC6Xl5eX8/l8OKqWnZ29YcMGOFEJ1oaC2ZIlSzIzM0dHR3Nycvh8/okTJ3w+n06n++abb9D5sYWZWCxmmem5XC6j0ahUKu12eygowhJIeXm5SqVyOp2h2DAwRgozWNDnsgSC+2ZTetjquw6zvr6+DRs2/DcrHTlyJByYmUym3t7eqT46DIet/vSnP7W3t1dVVfF4PLVa7XK5tm7dunLlymPHjt27d48dZiKRyO/3i0SihIQEpVKJ0MIZY2zfnnY6nRKJpL6+PhQ24JlKoVBUVlayBDSbzSaVSo1GI4scmqZPnz5dU1MTKcxKS0sdDgeXfTNYaXS73Q8RZnDCAxfr4REu1IPcQ4lmOMjCSbBHM5QQNJZGmomrESgWEt/e8rds2dLf328wGF5//fU//vGPsMC4bt26zz//PCkpae3atefPn/d6vVar9Y033uDxeMuWLYNXB8bHx+12+/379/fv379ixQqNRsMQjpcxjGY0Tefm5j7w0ctqtUokkpqamslIg1fU8vLyNBoNSyhzuVxdXV1wWj9SmMFhK477Zv39/VP9kYJwohmALRS6cHr5XYdZbW0tHMWKFFFB+UPBbGRk5N69ezKZLCEh4ejRo2NjYx0dHc3NzYODg7dv3/Z4PMeOHUtISHj77bdbW1uvX79eVlY2MDBw7949OMXW39//l7/85bXXXqurqyPDFwIMEjGEmcvlOnfunF6vZ4lCMCesqqqSSCQlJSVXr14FOMH5j+rqaoVCkZ+fzz6rdLlc165dy8nJuXbtGgeYcfzf0zhpnLolkPHxcXaYzZ07d/78+cuWLXvvvffWrVv3gx/8gAVsDwVmfr/f4XB0sBKeY2SPZuvWrZuG1zpHRkYyMzN5PJ5YLEacfPtK4q5du1auXPnJJ58MDQ3Z7fatW7fy+fzMzEy32/3pp58uXbr097//vUQi2bBhw9q1azs6OuB4IQNdeBlbmF28eLGgoOCBMOvs7CwtLf3yyy+zs7PPnDlTWFhYUFAglUq//PLLU6dOtbS0wHd4WORYrVa5XE7TdKQw4/6/pxFmD3HS+Nhjj+3cufPGjRs+n+/+/fsajebZZ58NhbSHAjObzfarX/3qv1hp8+bNMP7YYTYNJ/SvX7/+7rvvrlq1qrKysqenRyaTgWFWq5U3Qf/617/Gx8f9fv/58+fXrl3L5/NXrFihUqk+/vjjJUuW/PnPf6Zp2mQyrVq16sqVK4grRiK2MGtqapJIJOT7YCRU4OPzWq1WLBZLpVLYqi6fIL1eX1xcrFKpsrOz8/LyLBZLqHkjnB6GffBIYQanQLg8myHMqJhSRCuNv/jFL27evIkHecbGxvbv3z+jYMYYXuyXk2G2ZMmS7gA5HI6XX34Z1iRj4m+cNN64caOsrMxqtdpstnXr1gkEgmvXrtntdoFAgO+bTYbZ+Pj4QICEQuGHH34IXbB+/fqTJ082NTXBRtm0wayrq0sul1dVVTGeu+AA/qVLl6RSaX5+fl1dXajzVgDFsrIymUxWWFjY1tbGEAVvnUmlUtigixRmUa003rp1a4rONOJwZJ80vvXWW+QrZD6fr7i4ONRraQ8lmmFDwklMhtmTTz75bIBefPHFo0ePgpBYwczv97e2tv72t7/l8/k8Ho/P57/77rt9fX1Go3HFihU8Ho8dZlKptK+v79ixY+vWrWtrazMajQkJCeXl5TqdjhegaYMZTdM6nU6tVjMCEX42x2w2T4YNGfEw3dbWlp+fr1QqW1tbGVVMJpNUKgWgRgoz2J6ecadAcFCyw2zz5s34/AAzmdLS0nnz5uGyB5l4WDDDYMuSgPZOhhn5Wif6JIYw27x587Zt2749anP58uVly5Y1NjY6nc7ly5cDTthhJpPJsrKybt26tWnTpiVLlvB4PFgySU5Onn6YURQlFovr6uoQMDRNl5WVyeVyllMdyEwmOjs7tVqtUqkk96kdDkdeXl5FRQVwRgoz+Bfv3Fcau7u7Y9LrKCSiSePMh1lnZ+dzzz33NCtt2rQJYabVakcmKD09/a233kJ0YQJ9FU1icHDQ7/evX78eHsA8Hs/KlStLSkqCfqQg6KRRJpOtWLFCoVD4fD4YkePj47m5ubwJmrZoBkNfr9efPn0aog28KM1+OoSEFiPd1dUFr5/hgmRlZaVcLselyEhhFtWLMFN3Qh+H1CMQze7evTvESvfv30eYzZs3b/4ErVixAl/YQYfEcHva7/cfPXp09erVn376aWpqalJS0uDgYEQwA0Bt2bIF33nBw1Y8Hm+aYdbZ2alUKnU6ndPptNvtSqUS3g1jQCjMS9ithk/HtbS0SCQScmuOA8w4fkAOX4R5iAv6Mz+akfB4YBomjb4JCsUfTRDDurAEMjo6mpWVJRQKP/jgA5vNBvvLE9HoAc9mMpkMOfHj3g8RZi6Xq66uTiqVWq3WqqoqmUyGwSdMaCEbfO6qvLz89OnTNpstLy9Pq9WSD36Rwiyqrw5Pz5nG3/3ud7h4iDvR8MbnO++8Q36vyufz6fX6+Ph4fB+UPCby1FNPtba2MsYuDrvoE+SZxs8///ydd965f//+aNg0PDy8dOnSyspKhoWTL6M3laIoXGmEJ0Y8Uc0hmvF4vBkCM5fLdenSJbFYrFAo9Ho9Yw0DURROgqZpm82WnZ2dm5t75swZu91OSuMAs87OTo7PZgCzKd0383q9x48fX7hwYTxB8+fPj4+P/+EPfygWixkrjQ6H42c/+9n8+fMXLFhA1IhfsGDB6tWrb968yRi1MRmyIISEmcvlWr58+YsvvvhS2PTCCy8wgjPDVLyMic0IMxQLie86zOBrjf/+978rKioe+A1Gdry1t7eLxeIzZ86QayFQhQPMOJ5pnJ59M6/Xe+/ePZPJpPv/ZDAYLBbLyMgII5p5vV6Hw2EwGP4/u85gMHg8HrhzkwMrJkN2MsxIFTFPx8TmRxVmLpfL6XReunQpJycHNoXJKMSOKygFcDY0NCgUCrVaHXTXO1KYcf/kDj6bxaTXUQhjpTHmY5QhEPVGnyCjGUNLbC+jN5WcNDJs+65HMwRSfX29QqFQqVR1dXVwiuqBeAOAURR14cIFsVhcFvjwPQokExxgxvFbIBjNpnTSyBgEMb+MyZAFIY8GzG7cuHHixIlPAoRH7J1OJ+R88sknly9fhl6oqanBTFxUrKiowEwWh8T2sBUJADLd0dGh0+lycnLUarXJZGL5f2UQA5uamkpLS8VicV5eHn40Pyg4I4VZVEsgsKBPxZS+u9GMoijWE8IxK4yJvz0ez8DDI4fDEX0ryM+hkuhipCmK0uv1CoVCIpHk5+fr9XqTyVRXV9fQ0HDlyhWLxVJZWQn/LzcnJ6ewsLC+vp5cVGRIg8tIYabT6bq6ujieaZyKD8g5p5ei7+xZCQ/LA2HCDN6CcTgcDQ0Ner2+oKAgNzdXIpGIxWKJRCKXy9Vq9fnz541GI/zj6aC4YmRGCjM4BcIRZlPxZauH1Wcx1CuXy5OSkgQCgVAotFqtnCVnZGQYDAbO1blVNBgM4djMYpjFYjl58iQ37Y9qraiODg8MDLhcrulxjUgkwu5PSUmZHqXctGQEiKKorKysPXv2UBQll8tFIhFIs1qtJH6ysrKgyGKxyOXyjIwM5E9JSYFBn5GRgdW5mRR+rZ/+9KdgM0sVg8HA0gXfLZg1NDS0BIilvdEXRbvS6Ha7Y3sKJFSTYMxBKZ/Ph4RGo4HbqtVq1Wg0crmcoijMhDRkhhI7FfkIs927d2dmZmZkZAiFwm8/HJ2UlERRFJ/PF4lEqamphYWFycnJIpFoz5490LpFixaJRCLkX7x4scFgSE5OVigUqampLAEkVq2Qy+WZmZlgJ0VRiYmJQqEwMTER3Avx+eTJkwCz3bt3g0nJycnAnJycDPATCoUGg0EQoAeCNlbGM+RoNJqSkpKioqILFy4wivDSZDJpNJqGhgaNRkNRVFFRERbFNhGDE/qxNSiUtJSUFLlcrg8QwCwlJSUzM1MoFJ48eRLmaXv27Fm0aFFmZiafz4egIRQKv/3K0jT3dEZGBkwaExMTAVcw4BYvXiyXy0ljcEAnJSVhiEhOToa4nZycbDAY9uzZk5SUBFEulHNilS8QCMAMwA+Yl5GRoVAoIK7K5XLkUSgUcHcQCAQWiwXywXKBQKDRaGDOPA13h6DNB+RQFHX27FmKoioqKkpKSlpaWkwmU1FRUVVVFRQBzOASqpAMQSVzyIRoxuVFGNw3i+2Cfqg2pKSkCIXClAAtXrwY+hWYBQIBTrcEAgFFUTAyEhMTkT+U2KnIx2gGaEfYQJiF+z2MWoQZjl2KolJSUgoLCymKgkzo+5SUFBKfU2E2RVGLFi0SCATgNzAAnQn+z8zMJE0VCAQZGRlgLeBKKBRiRZFIBAFwiqxlFwt+a2lpUalUFEUplcqWlpaGhgYIWUVFRWazuaKiwmw2w6wHfkmGhoYGdhXhl0YbzWL+ZatQpjMmjSTMkpKSgsIMBoTBYIBxEEpyzPNFIhGsASgUir179xoMhsTERIFAsHfvXoqiUlNTYShTFKVQKIRCIdz7IXBRFGWxWID/zTffhEwIhlMdFjIyMjIzM8EbEIfJexbcy5KTk0mY7d69e/HixRRFQQzUaDQw0YAWwQQEbyUx9zO7wLNnz2oCVFtbi0BCXF2+fLkiQAyYVVRUwGxTo9FAEbuWMEujehFmKo4Oh7KbATNyvBoMhqAw02g0cA9OTU0NJXY2Hz2AsywclABsCLwGg0EkEsHs0WKxQJFGo0FkQhomjVAqEokyMzNx4QoVTU+CbA62yGQywaOaTqcLGs2QwWw2t7S0xMpU+G+gXCaNcAok5v/iPaKGhdOF4fBEpHSWGTyg0WgSExOnOsZy9nZlZSVZFy9hXUSv11MUZTabIdbBJfDodDqNRsOycEKKDTMd1aRxYGBg2lYaw2zPLNusB2agB8rKyjo7O7lHs5h/pGAG+mjWpFkPROkBiGbcT4HMwizKDpit/n3wQLQf9475B+S+D06fbeP3zQPcT4HMhCWQ71tvzbb3O+qBqP6/WX9/v8fjaW1tbWxsrKurq62tra6urqysPH/+/DfffFNQUPB1gAoC9PXXX0Ni8iWw4S+DDStCgmQjc1AdZpJyMI3SGGaAWBBCFqE0TBQUFGg0GvwlqzC0BJVJyoG6IA2VkhZiY1FUUHWT66KWr7/+GuVrNBpSIGrHTIZwVAoVySaDTNCC8pEfE1CFNAZUhMpBB6JM5GcYCRKw4SQbZKLNZKMmi2WwoRZIkB4jm4/asSGohczRaDRarbaiogLe4+b4bAYrja2trdXV1Xq9vrS09OzZs1999dVHH330t7/9bdu2bakB2rFjx7Zt27Zv356amrp9+3ZIbwsQFEGaLALm1NRUEAJFwIbMkAk827ZtA1E7duzAWsAJNpB10QzkRPmYQL0oH02CBDCAXuDB/O3bt5PtQnVgA1m0PUDAgIrgEorAVyAZDUB+sJb8RatIJwMD6kU5aDDDRSAfPUnagGJ37NiBelEyJtDbqAKL0FfAgwykw0EyOgQ5UQg2E81AZjAbxE6Wg15FdWgqNhNyUCBpIVpCJlALcpJa9u3b99VXXxkMBu7vmw0ODvb29tpstitXrphMpsuXL1+4cEGpVH722WcffvjhwYMHDxw4kB6gQ4cOpaenw+WBAwfS0tIgHzMxAUVpaWlYF9IHDx6EKgcIOnjwYFpaGvxCNsjBzP3795OKgDM9PZ1MgD2gF5SS2tEwMoFaQCnURQvT09PTAkRWQfOwiHQCo9UHDhxAacAPRoZyIMPggwFCM7AWmcAqjO7AWqTfkJnsU+wHtBDqQkWyC5ATHUJ6A9KkN8DOQ4cOYUWG5SB8suXAxugO7Gv0PHYfOPnAgQOHDx8mW4EMpCjsAvQG2RzSJBR16NCh48ePK5XKmpoal8vF8ctWt2/fvnnzJuxQt7S0NDY2Wq1WnU5XUFAAL6tKJBKZTCYNkGSCpFLpRPI/f+EFO8iXSqVwCWXwXzyQn1EXOeVyOSkE64IBQS9JmaCFIVwmk6F8fAsQa6FMaCDms1dhtA49A6rFAUI/oEzUDnaiT8RiMWjHHKhCNkQmk5FyUBSZCWZIpVJkJiVAFWgXQxHZWEYVkC8Wi+VyOepC+dBSqA7aURRmoqmYw9AOYhndhHon2wPOJ/NRKVoICeSBBJgdlBk5SSNRmkwmU6vVer2+tbW1t7eXy77Z8PDw0NDQwMDAjRs3enp6PB6Py+WCl8/h3e/q6mqTyWQ2m6urq81ms9ForJ4gzDcFyGw2m0wm4Idfk8kE/FhkDhCwmc3mmpoasghUkDwoAVRMaK5GM7A66iUTUAp2goSamhqTyVQTIDSSIRzyocnYIrSkuroahIC1yAC2wSUWQRuhCGyGJiOz2Wy2WCxQhKLAHsYlKJ2ciT5Bg8n2on8sFgvko3vRVPQY6GXIqa7+j7chH5oGTkAHog1GoxHEgrXQfGwOGgY2oCVQ3WKxoFtQIChlOA3ZQB02BOWDzWgwdgdwgl70J7YajScNhrr19fVXr171eDy3bt0aZqU5oUqHhoaGh4fv3LkzEKBbt2719/ffvHmzr6/P4/H09PS43W5PgHoC5A4QpLu7uz0eD3L2BghqYV23293d3Q1ygB/wDGmQ7PF43G43yCQ5SX6o5Xa7QYvb7e7r64NMqIhCwEKPx9Pb29sdIGQDS1Ap6Ort7cU2kmajHFAKPCAKq3R3d5OWQ/Xr16/39vai68AGVIH5qIsUAu7yeDykqaQ0bCa0oru7G5qJ1oJbQAtm9vT0gDORH6qTjcIcaCMqAvPQMJAJlygfElgRRgVYgnqxN9EYbAK4AhjAn1CEnNDFYC3+9vT09Pb2otngNCgFm6EJaADDWuSEEYWiUDVa0tvbe+PGjcHBwbt37w6zUkiYYa2hAN7gcoggyLkToD02eN0AAADySURBVLuBT8kDLIHlzp07Q0NDUMrIJ4tQ3nAgfsIvGg2q4ffu3bsgDaoAJ1ZHTtQYlI2hGi6xblBp0DT4Bc47d+6AhciPvoKWoli0OZS1aCRURDaUADmYj4rQEtIGRhrdiK0eGhpCy8kOxQ5CdQwD4BLNID2GcrAKqkN+FDs8PAw+AVPBGKwIpWQrYCYGOaiI0XbocewgGHVoIagmVWARKkKDSUXoE8hECVgL7AELIc3y+2CYsVSeLZr1wKwHwvHALMzC8dIsz6wHovLALMyict9s5VkPhOOBWZiF46VZnlkPROWBWZhF5b7ZyrMeCMcD/wdrMOM1/kOB7AAAAABJRU5ErkJggg==;" vertex="1" parent="WIyWlLk6GJQsqaUBKTNV-1">
          <mxGeometry x="205.36" y="577" width="158.38" height="296" as="geometry" />
        </mxCell>
        <mxCell id="XwaOPnEjYc4gbmmwaDbT-7" value="" style="shape=image;verticalLabelPosition=bottom;labelBackgroundColor=default;verticalAlign=top;aspect=fixed;imageAspect=0;image=data:image/png,iVBORw0KGgoAAAANSUhEUgAAARMAAAIUCAIAAAC2Jl/KAAAgAElEQVR4Aey9CXQc13kmCpKS/PISafjO2OKCrbHRpK1EjJzwOIkTQaIyOXPGPiblcWLPTAzaTmRnhhq+5EwmsTwJk8nLSLZIgrK4gZRAi1i4g6QWUgvZlKiFEkEC3Q2QIEgA3QB6X6q36q2WW8/3/t0Xhd5BdDcawC3c07hdXXXr1l/3q3+5//3/ihDbGAUYBWZOgYqZn8LOYBRgFAgx5LBBwChwLxRgyLkXqrFzGAWSkRMMBv3Tt0AgwPP8nFDK7/e73W6/3z8nV2cXZRTIQoFpyOF53mq1Dg4O6lTb6Ogox3FZmijGT36/32g0DgwM6HQ6g8EwPj7O8FMMOrM275kC05ATDAaHh4c//PDDGzdu3ExsRqPR6/Xe8wXu4USe58fHx69du6bX64eGhnQ6XW9vr8ViCQaD99AaO4VRoBgUSIOca9eumc1m9cV4nne5XDayGY1Gu93O87zX652cnBwZGTGZTC6Xiyebg2w2m210dHR8fNzj8bjd7vHx8bGxMYfDQYc+PXdiYoLjuCRpkOf5oaGhmzdvut3uUCjk8Xh6e3uHh4d9Pp+6V6zOKDCHFMgLOYFAYHR0tLe3F4S4iYkJp9N569atGzdu6HS6vr6+gYEBh8Ph9/tv377d19dnMBj6+vo+++wzvV5/69YtYBo6nc5mswEIh4aG+vv7+/r6rl+/fuvWLZfLpSYBz/MOh8PlcgHSOI67fv06Q46aRKw+5xRIg5yPP/54cHDQRLaJiQnQ0W/fvn3lypWbN2/abDaO4wA5IyMjDofDaDT29vbevn3b6/Xq9fpPPvnk7t27Vqt1YGDgo48+GhgYsFgso6Ojn332GYz+4eHhGzdujI6OAmvq7e0dGRnJpMYEg0E412w2U5Y151RjHWAUSIOcK1eu9Pb2DpDt1q1bNpvN7/cPDQ199tlnNpsNSBYMBjmOc7vddrt9ZGQEdBKO44AFOZ3OUCg0MTFx/fp1k8nE8zzHcXq9/ubNm3a7vb+/X6/XWywWh8NhtVpv3LhhMBhAMEt6HjzPT05OXrt2bWhoqMS6VlJP2FdGgSQKpEHO1atX7969CxqLw+Hw+XyBQGBoaOjatWt2uz0UCoHENTw8DOjS6XRXr17V6XQej0en0/X391Pk3LhxY2JiIhQK+Xw+g8EwODg4MTFx7dq1Tz/91GAwDAwMGAyGzz77zGAwJAls0Eu73Q6iIOhRSV1nXxkF5pACaZCTaiFIQo7f7x8ZGbl69erQ0NA42UD/yQc5k5OTvb29fX19o6OjIBCaTCar1ZoqrTkcjv7+foPB4HQ6k0wIc0gvdmlGAaDAvSDH6/UODQ1dv34dzGJWq/XatWt58hyHw2EwGHQ6ncPh4Hne5/MBcgKBgPqRuFwuQCMcpv6J1RkFyoEC94KcQCBgMpnAdHbz5k2dTvfJJ5/kiRyO48xmcz/Z4Nze3l6j0ahGTiAQuHnzplar/eyzzwYGBmBiyWQyMat0OYwY1gegwDTk8Dxvt9tNJlOSvh4MBm02m8lkos4EHMeNjo4ODAwMDg7euXPHZDJNTk4GAoHJycmJiQkY4i6Xa3x8HBSYYDBoNpstFovf7w8GgxaLZWhoCE43mUxJ2n8gEDAajYmZ2Ph/hhw2ZMuKAtOQM9OeBYNBNa+Y0ek8zwcCAWZonhHR2MHlQ4FZIad8boP1hFGgxBRgyCkxwdnlFggFGHIWyINkt1FiCjDklJjg7HILhAIMOQvkQbLbKDEFGHJKTHB2uQVCAYacBfIg2W2UmAIMOSUmOLvcAqEAQ84CeZDsNkpMAYacEhOcXW6BUCAZOZFIRJrNJoqCIIh4E2KiFBOFWDgU83Ixtzvm5YRwSJTEmCjGBDEmCoIYm82lJEniOI4uVWAVRoGCUGBiYsLlcqUue0lC/DTk8DwfjUaVGW4IKUhGMsKbYLYG3zrP/e8X3H/5Y8fXN9ke+6plzaPWui/b6tZZG75sXfuoY8Pjzm98y/2DH/me38Ff0kocJyMZzkUIzfDKitvtHmYbo0ARKDA6Oprk95wROTzPg//lTIeviFDYaPS9ctj5H79rW7veVrPGUtOUT7FWN9m//Jjnz5/xnz4TtVoZcoowAFiTs6IArG5Owgx8neI5EC3A7/fniRyEkChLod7rzu9931r7RUstRout5ov5YCZ+TG2TpbbJWrvGWttobXyE+3//NqQ3iJIky/kyH8ZzZjUu2Mm5KHDnzp1MqwGmkBMMBl0ul8fjyYkcLF+JAv/hh46vP23B4z5fJpMFVNaaJtLUWtd3/kvIMCDKUj4siCEn16Nnv8+WAhaLJe1i/mnIcTgcbrc7C3KQoshIjpjNrr/671hvqcGwKXRpsn/xtzz/659EogIpWdkPQ85sxwU7PxcFjEZjWmvBNOS4XC6n05kWOVj9VxCKRv3HT9jXPGrVzEQqy0/tUXMka02T43f+IHjhXWw8yIwehpxcz539PlsKjIyMuN3uVLYzhZxAIOB0Ou12e1rkSLIc8/p8z/2DVfPFQjOZjFxrsm6te+duURbTdklRmG1ttsOCnZ+TAnfu3LHb7anazjTk2O12m82WOkwlCcXsTsdT/94yIwPAzFmNmu1A3VyzxrXlmRjnTe0VQ07Op84OKAgFLBZLavSYaciBmOvqMYqQIsly2Dju/ONvWErIbabYGobfGsfXvyUEAqnzPUxaK8jIYI1kocDQ0BAEmUkS2JKRY7Vap5CDFAmh2N0x2x9utOVtDMDm6do1+ZQ828RN1TQ5Nv2p6PEkGdwYcrI8cvZTQSgwNDR09+5dj8eTNKszDTmTk5Nms5kiR0JSzOm0/ck3bHkb0Gw1a1z/7a/9P9+Ru/xsh/0/b5niLZkvYaldM4lLk/MvfxT1cLR7TForyMhgjWSnwODg4O3bt1ONBHHk8Dzv9/vHx8dNJhMdmmIk4vnBMzBjk88Qt9auMdc0RS9/QFvIUpFlZD9wcLiq3lLdmKVxc+0acxw5ayZqG91/91xMnDIYMJ6T/amzX2dPgcHBQUhUk1Fa8/l8RqNxbGwMhrsoid5/fcFSA3P8Gc1fSYPeUrMmNhPk3Fhdd7uyLtNVLAQ2AB5z7ZqJmjUT1U3csRMykqGTDDmzHxmshewUGBwcHBgYgGxraoFtSlrjOG6MbAqe7kTh3hs2Tb6AofjByHk/B88hrqHYzdN+oK2vsq6vsn6oss5c05iEnyTYTNY0TVQ3jlc3Tq59JDJmhEkehpzsT539OnsKGMjmdDqTompOIYfyHKQggfPZnvq6rfYepjtz8xxAjiQh2/62G6s1uFTW366sM1dj8MRLbdPk9DJOYAOfzpZnkCQxPWf2w4K1kJMCBoNBr9c7HA41wwmFQlPIgVDRRqNRUZCv7ZWEL+bM2E5OngOwQQgBcvoqNVBuVNVhzkN0noRJAAwD+HOiunGq1DSaapt872klGTGek/PBswNmSYGBgQFATkY9B1aJjYyOhMcnret/x0p8n6eYAOUGOSoZeQ7FTBqegzlPHeg8kzXTuM1EQkjD3AZjJl4mfv+PJEFgyJnlsGCn56QASGuQc03NdqZ4jt/vHxsbG7k74v3nf8Xuz5nNxFSrSa1kshAkwUbFc+qIqhP/vFFZf6uqbqKmKW5SI7ABbqOGDcZPTQN3pNPpcuW8c3YAo8BsKKDX6w0GQ2oepynkeL1eo9F4u7/P+thXZ85qEvpJOttaKmwocuJ6Dmg7qzW9lZrrVXW3qhrGqzHnies2NdO4jam20VjTaKxusn7z206LdTZEYecyCuSkAOU5GS0EXq/XZDLdPPgq5jY5RDKKk9RKGmktL+RUYtjES1XdzarG8Zqm8RpsTEvmNrUYNsbqJlNN08Qbb+W8c3YAo8BsKKAnWw6eMzY2NvCzF2cBG+xjpp7PSYsZ2Km2rV2v1FynsIFKlWawus6kaaKKDVSA22Dk1DSM1tSP/PO/zIYo7FxGgZwUAAtBNj0HrNKDP9uRqr3kv0eNnCywodJaX6XmRipsCHhuVNXfrKo31cbBY6xpUMNmrLphrLrh7k//IeedswMYBWZDAcignm0m1Ov1jo2NZUKOpWaNtWaNRdOUo9Ssib5/RVGU7LAhyJEt+w9cr6ztray9Rj57p3/inVW1A1UaY22DqbbJWA1CWqOxunGsun60umGkuuHOT/9xNkRh5zIK5KSAXq/P4UNAkZPWPGDVfNH1ze+4v/2fc5T/+N1Qvy4f5MiS7DhxauTpP6Xl7tN/qi63n/727ae/PfT0n419Y/NE9RrQbTB+ahrGqutHqhtHqhsZcnI++FIecOnSpVJerjTXoqnU1SbpaTOhYFvLyHPqvigHcofFyclqEEJyuk2S5KSohSTcIQ5n6L3Wq19db6rBbIcIaXHY3J1vyLl+/fol1Xb9+vXSPPvh4WF62eJddMOGDRUVFZWVlcW7RMnIpb4QICc1fNSUVTqebvqFF9NqNZY8kDML2ExDDWAmgRzBe+361VX1A5X1xuoGIqQRblPdcKe6YXheSWvPP/98hWrbvHmz+gkVtU4vu3Xr1mJc6MiRI/QSzz33XDEuMVdtUgtBRh8C4DkD94qce4PNNMRIkhoz05Czuu7q6tr+ypq7WL1pvEtgc6e6cfin2+eKoPdwXXgr0xH20EMPlez1TC9aJOT09vY++OCDcJVz587dA3HK9pTcyPH5fNksBFl5zr3BRpbTS2gUPwLZuGu9n1RqPlmt+aRS019Zd6em8c48RI5Wq6XDl1Y6OjpKM2LoFYuEnOHhYa1Wu3Xr1pLdUWnoNjw8TH0IMuo5HMcZjcZ70HPuDTY5uY0oijGycdc++2R13cerNR+v1nxUqelbVYeRU9U0XNV0e/7wHLWoRl/PTz31VJ4jIB/l+zrZ0jZYKORkuUTa69KdoOPRr/OooidbNl9pynPS2tYy6TmFgg2wF/UnwCYWi3HXrn2yuj6OnNWaD1fX9q6qG6pqxOW5eWOVpqLaunXrvve978FQTiuwbdiwoZJsP/nJT7Ra7YYNGwBpDz744ObNm7VabdKwO3LkCD2moqIi7WFJyNm6dStcIlWh37hxI/y0YcMGeqHUSzz11FPqnmi1Wtrg3r176YlarbalpYW+KSoqKtatW/f888/TA8q/QlcZpNdzeJ4HPefmz3fmbyEoFGyoeEZ1G0EQYrFYNBolyOkF5HxEYHNlVc0HqzW9qzS3qhqH5gnPUYtqzz33XEdHBx3KqcOosrISfoXxTY+EStJY37p1a9IB9Ou+ffvouKQ7QVrL1AF1P6kBI8slXnjhBbiE+kR6R2fPnlVjhvahoqKCNk57WLYV4DnZfAhglUH+0lpO2KQzPss5hTTADMAmSjbPZxg5H62q/XCV5sqqWoycVZr3V2murq69+dz88CFQi2rwqqZDSv1qh9FDkQPHwLtcPeyo8Uo9XtetW7d169aWlhZ6upqh0dOpnkM7oB7Ee/bsoUeCop90iefIlnoJ9WEUOfSwBx988Nlnn33uuec2b95M258vGhHoOdmQk30mNElaywmbzPM207CjFs+gToU0gE00GnV/eu2jlZorK6s/WFn7wUrNBys1l1dBqe37+/9Vtu8qdcfWrl0LI2bdunWwP4vARgdcRUXFT3/6Uzj+ueeeo2OOakcvvPDChg0b1q5dS5sdHh5OHf3Dw8P0XIocykkeeugh2lU6sisrK2Fn2tZ6e3vXkm3Dhg2pAAPk9Pb20otSqA8PD2/cuHHt2rUbNmyg/IpevTwruW1r1EJAAqbh/BzTSsK2lhMzaVlNWjNaEmxSMRMhm+vTz66srL2yqvaDVZoP4pjByNGuqr32k/jAKk+iQ6/U7+OWlhbYqZaX1ANreHiYIieJHVH4Je1Puvef/OQndMjS9zrdQ5Gj7gA9jF6adknNLbdu3arWbdTXVd9jKnLWrVt35MgR9fHzqE71nIyrDAA5Ay+8mMVCkBM2ebIatT6TxGqonBYhWzgcdl39FCNnJYbN+wnkaFfVXlpVMy+Qox7K6rkOKi8lIYEOX8pbYJxRG0PS8UeOHGlpaXnqqafWrVtH2wSoUEikImd4eJg2CHA6e/YsPYwiRD1RA78++OCDGzZsSEJRKnLU7dNmN2zY0NLSMr9QBMjJHcEju56THTn5cxu1SYAqNhQz0WiUwiYcDjs/+RQLaQQ275NP7arai6tqLs4T5FAkgHMKtUGpR7l6SpQer9ZA1AORIgcsb3RcplayI4cKbNAgRbha9hseHj579iztUtIlKAtNi5ze3l4q/iWdWFlZScEJ74Wy/czbV/qFHRl4zlo54C8IctRCmkhsaMlyGuAmEgmHw6FQyPnJ1Q9W1SZ0GyynAWzeW1l97e/LXVpTv8iTRo/6K5WO1NJaTuSox+XmzZtfeOGFjo4OtWaSHTnq4X79+nXKgtJqIB0dHVu3bgWbtbrnIJupm6IWAgCDVqt97rnnQL1Rn5jEUcsWOXRNaEarNJXW0lqlrZp10UlzzO9PW6J+fwSKzycIIjCfaaaAFM+amBDjA8Ew5wlz3jDHhTgP7+Z4jwcXt4d3uXiXK+h0B51u+6X3LyeQQ7nNeyur311Z/VnZI4daApIYTpLFjLKRGSGHDkSqvQwPD6tdyLIjR83H1BaIVG6QNAG6d+9eemmAdybkJE2AwrQPnEuNEGWLGehYbj3H6/WOjo7e/PnOtDzHWtM48qX1+kce0395fWrRfXl9/yOkfPlR/8dXU+0Baj4TV2yEmPnVw9e+tJ6Wz760Hson6x79eN1vfbzu0Y/XPvrRuvVX1vwmMBys26yseW9lNcDm7ZXVn5Y9cqick3agqJkGFdjoKTl5Dh2+apalbjMncqiERi+qxvCvfE9oaw899BBFlBonILCp9wDPUZsWaDfUWE2SCcsWP7mRQ21r6XkOSShwp7I+EaomHieNLuqEFdHXK2v9l7TZuY0oiqDbTOw9cHW15upq7JMGLgIfr9Z8uKrmysoaMm8Duk3t+6tq3yeWtEurpsHm7ZU1V/++rN1y1a//JBjAQFEbuOjop4M46RQqTdHBTa1tDz300ObNm7du3UqPAVDRIUsxpuZOw8PDatsxHJMkqql7WFlZ+dRTT23evFmtoQGcUpGTZFqAE9Xde/bZZ8sWLeqOwcq2HHEIjEZjJl9pgJOlpulOVT1BC47zdCNRrlfWxUuVJgk5amMANakRY0AMkINdOcEnbRWBzSo1bDQENjWXV2mA1VBuc2Fl9YVV5Y4c+sKuqKigg1j9VNTDi+Ihf+SopSaKjWeffZbW6UXpniTkqJkAHEMZC+2nukHaDlTodFMqcrKbFp5++mnafplX9GTLtpo6J8+ZDh6Mn6loNYn69appPCcVNtSPMxKNju/ZdzXBbT5apfmI+AdcwY4CuGAJbXUNaDgXVdzmnZXVF1ZWv7Wq+sKq6mv/9K/lTPfNmzdvINvGjRsz9fPZZ5+FYzZs2AAC28aNG2EP5UJw7ve+9z3YTy1aMDpBawdjMXAM2iA1gtM9SSxleHiYCmwVFRWZtHatVrt58+a1a9c+SLbKysqWlhY1xsDKB1ehcAUH6paWFvDEe/DBBysrKzdv3qw+IBNZymc/ldbSWwhCoRD4rd3qOpo743R10+2q+utVOGBNclEhJwk2SdZngpwDcT9OzG2wWw1gJm6AXl3z/qpaMAmodRuAzZsrq97SNJk++bR8SDxPe6JWSFJxNU9vqoDdBuTY7faMM6HgfTMyctf++J9kUnXibAfnyVlzu6rhelVdCnLi0loSbKjdmU7ahCPR8Zcxcj6KwwZ7CcB0DUx3alfVaMmkDcDmnRXVbye4zZsrq95cWXWt5S8cDmcBabTYmvrJT37y/PPPU+EwrQ1jsdEk9X4NBkNeETzujIxwrxzOEo6dJueYxOBpvF5Z10uVnMo6LK1d1CbBJonbgENaOBI17dkPsCEMBzvXAHLAs4ZKaFi3WVF9YQUR0lZWv7my6vUVla8/XGW+9L7LzaLjpj7rvPaorRdJSkte5y+ag0DPyWYhAD1ndGRUCARsT/2HtDJbcpaBmqbb1fXXq+qownO9stZ78ZIaOWrYUIYTIbOcxj17E7oNhk1CscEOaXSuM24SILA5T2DzxsqqsytWf/rnP5QkiUVkv+cBrLZeqF1L77nBhXpibuSAnjM6OioriD99zpySrY1yG5qBcKIaR0YfwjJbPYhtvdORo4YN9X2OkC0cDo/t2Qu6DWE1te9jxUZziUholOFgIY3ABiS011dUnl2x+txqjWfgpsyygMxitGq12r17975ANjqVNIv2FuypOXwIQqFQnOeMjiqKIomCZ8uPLbVTqaDMtU1mdSqomqaJqaDPTTer62+QeOrXKjXei9pMTpzTHNJC4dGX932wEus2xICGzWhpYEN0mzdXVL2xohLDZmXlmYerDP/7/5NknPCQ8ZwFO2DL5saohSC9bQ0y7I6NjZHMUzhCZ9jtsn35K5CBMJnbqJJz4BQdNY3jtU23iKnts8o6L9FzKLehrGYabLBDGkEO1m3wXOdlbA+opZM2oNu8vaL6/Mrqt4g9gHCbqjMrqy/87u/FAkFI786QUzYDbMF2hCInYwQPn883Pj6uyrAr+d94y9LwJWsiNTRJrU4yqNWoMqiRbGo43UBN462qhk9X13DvXaaTNqmwAQ2HuHJi5CR0m2nWZ7Vu89bKqjdIObti9ZkVVWc1TW7DoJLYGHIW7IAtmxujyEnPc+h8ziiR1mBkSpLIPf+iubrRXLMGZ+2sSSS0UaXsjKe4qW4wVTUYq5sGqzXce1pBFGOCACUqCJFYLBqLRaLRcCQSjkRC4TAumOfsvbyq+jLWbTC3eYc4pL2zEis2cd2GCGlvEN2mZ0V1z+ra222HZCmemJpJa2UzuhZyR2jUqIzzOT6fb5RsiRc6/i/IkuvZvzEnxLMETkhamyn8NJiqGk1VTaYqnNZmpPmPb33rPw186z8ZvvVd/be+a/jWdwzf+q7u6e/on/5O/9Pf6Xv6z/o2f/vG0396/ek//eSrf0hgU3ORYAbAgzFDhLQ3V1SCbnNuRWXPiuozK2pu7miVJRmp+sd4zkIes+Vxb7CaOptVGqJGqXkOSe+uCH6/66+2TlTX41RQU2ih4GkYr26kyBmrbjJWNRqq6q+urrtaqblaWfdJZd3Hq2s/Xl374eraK+Tz/UrN+6trL6+q1a7GBmjqH/AucJuV1edXVL1FTQIrKs+sqDm9oqrv734qiiKoNxQ7DDnlMboWci+otAarxai2MxVXGnK2UT2Hjk6kKEI47Pir/zZeXT9e3TSVI7q6cbyqYRxzm0YTSaJmrG4aq24aJVkGBivrsBP0qjoc6gmHrQE/zvh0J8x1JsNmZZzbnJ8yCVSefbj69Moa/fZ/SYUNk9YW8oAtm3ujyMmo50DmqVTkAIQEQXD+07+Y676oZjumqgYspCVgY0zAZqS6cbSmUV9Z9yHx4/xwde0HELkmEUXgUupcJ7E+X4C5TiKnnV2xGus2VbUjr7RLkkSRrK4wnlM2A2zBdiR3/hzQczIhB0tuohg4eWZy7W+ZqhsIt2kYJ4pNIrNNE+S0gc+7NY3D1Q26Ss2V1Roy3Vn7wer4XKfaPyCu26hg8/rDq889XHl2RXXPiuoLv/tV63taWZ6m2zDkLNhBWpY3lttCoJ4JVY9OWkeKIslyaHTM8iffGMc5OeKZbomQ1ghCGkk00Hg3ETR9uLrxxqq6D1dixYZM2tQCt3kvsbQTW9JWxidt3iJznedWVJ19uOrcas3V/7IlYrPJOP0b7UJyhfGcshxsC6pT1EKQzbY2NjaWZCFIGqoYPAiJ0Zj3yNGJR75iqm4awwmh4rpNnNtUx3MNDFc33q5qGqpqul5Z+34lnugE2LyLYVPzLgkkEHd/Tvhxnn141dkVVW+v/+rE62+Bl0BSB5K+MuQsqEFaljczODhoMBhyrGzLiRw6cCUZxfx+bs/+id/63ZGaxrs1TXdrSGabKW7TcJsETb9V1XizuulGZd2llTUXSXmXwGaK26yqfmMVdn8+t2LV+ce+OvpaV8QflLMwGtoJ5n1TlkNtgXUKL5QeGMiGnLRWadUoTV+Nulyug69Ofn3zaHUDFdLuVDcMVTfdqmy8VdkA5WZlw6erai+urH1vBY4lgA3QqsU251ZUffSt744fOxX2+lCS4Tn9ZeN7Gc9ZYMO03G5nbGyM4zidTpdtPgdWtmWxEKQdw9jmhRRZkkMDQ/Z/eWHiG0+PfOmxO9VNQzWNNysbblbhMljVoK+s66+q/xjP3mA57Z2Hq9+t1Fx8ZP2Vr28a2rkrNGmSkYLQlHNA2mul7mTIKbehtpD6c/fu3Ugk4vF4BgYGsiEHeM5MkQOjGTMKSJ2LZCHAh3t13iPd1n/83+M/+NHopm/f+eP/cHvjvx/6k6+PPP1nN3/449v//K/mrmM+vUEIBJGMJCTnKZsx5CykcVnm9zIxMRGJRBBCHo/HYDBky7ALVmmj0QgwmP2nTDAhIiTjxNOiJEkCwvtm3zJtIRQKudjGKFBQCng8nlAoRMcYx3F6vT4bz6Er2+g5rMIowCgAyMkWwQOyuo+OjjJiMQowClAKUJ6TcT4H/NYKKK3Ra7MKo8D8pQC1rWVEDsdxMJ8zf2+S9ZxRoOAUyMFzIMMurM8p+LVZg4wC85cCVM+h6wugMrXKwO/3G41GpufM32fMel4MCsB8To4Muww5xSA9a3NeU8Dj8eh0umzeN5A/h/Gcef2YWecLTgGPx6PX67Mhh/qtFfzarEFGgflLAfAhcDgcGfUcxnPm79NlPS8eBXLY1iDGJ7NKF+8BsJbnKQW8Xm+O9Tk+n89kMjE9Z54+YNbtIlEgh1Wa53m6mrpIPWDNMgrMRwpQX+mMsW9gfQ7jOfPx6bI+F48CYFtzOBwZvW/Ab40hp3jPgLU8HymQ20Lg9/uZhWA+PlrW56JSgHp8ZpTWaFzpovaDNc4oML8okFtaYyEdbZgAACAASURBVOtz5tcTZb0tDQXoTGhGPYfjOJPJxNbnlOZ5sKvMFwrk5X0zOjo6MjIyX26J9ZNRoAQUoMjJxnOYhaAET4JdYn5RAKS1HHEIFvMqA61Wq36ifX19HMep95RVvb29va+v7x66BKH38jyxvb19bGwsz4MX6mEcx+XwvlnksW+am5speMbGxjQaTcmGglarPXz48Iwu19ra2tPTk/aUXyHqH//xH9P+hBBqaWm5fPlypl+T9m/fvp0hh1oI0luleZ6H/DmLVs/RarUULRqN5syZMwghjuPa29vVY5S+6TmOg/oY2drb29U8Sg1COvjoTq1WS1/nHMdt27Zty5YttGX1rwgh4BL0eBjccFGEkFarhU7SxltbW7/5zW/Sr0mtUeTQ/kMjPT09tJ8UP5Tx9pEtqQ/0sIVdoTE+0+s5gJxFHodg27Zt27dvb29v37JlCwxZjUazjWzr168HYNTW1sJA0Wq1cFhLS0tzc/O2bdvUI48e//jjj8NhWq22ubkZIbRt27ZNmza1trZqNBqtVjs2NrZp06bm5mZgO9u3b29ubt6+fbtGo2ltbQUusX79+m3btlFowU44fvny5S0tLXB8T0/Pr5wPW1pa1q9fD+dCa62trevXr4fjATljY2Pr16+HBgG3tD9qGDz++ONGoxE4MBBn+fLl6m6oD16odYqc9DwHclMvcuRwHKfRaJqbmwEDra2t27dvhwGxnWwIobTISZV/tm/f3traynFcc3MzsLLt27fD2KUAoxBtb2+nF6J8DzqjBol6aLa0tFDkwP6enh4KUagA+JN+bWlpOXPmDIXN2NgY4Bk4D63DWRQ569evhz2tZIP6IvmktrWMK9tAWlvkfmvbt2/ftm0bjAkq2MCoguGYJ3KAI/X09ECDWq328ccfB8z09PR885vffPTRRzUaDbRJkTM2NlZRUVGb2CoqKjJpJhQ5FGmUB9IKdBuutX79erhWS0uLRqOhSOjp6Vm+fHnigrW0NaAARQ5FFO3qIoENxJXOsZqarQn9Vf4RyltArIL3OkKop6cHEJUnchBCGo0GsAfnwmAFTgIQSuU5HMfRMU2HphrA6p3QNzrWKWBoBSG0fPny/v5+NfKhNRBB1ftpy+oKQ06+yFnMVmkYMWrkgM0AlGONRgPDHZSQnp4e9Vs8VVoD4FG0LF++HOQxQE5fXx9oGsAHzpw509zcDPpDc3Nza2vr2NjY4cOH4U0/U+T09fVRO6FGo4Frbdq0ifIc6C3VfDQazeHDh8fGxkCTYchRU4DmMsgWkZ15fAJvUVvStFotjDmKDRhh27Zto6bk9vZ2eK8nUbyvrw/UdGBlVL3p6elpbm7esmXLYbLBWa2trcDTwNSmNjmkbb+9vR2sZ1S2BLBBa+3t7bC/r69vE9lSews3AroQGC22b9+uNg8ihEBV4ziOqmGXL19W0yfplhfkV4galQ05i3w+Z0E+dXZTs6cA9ZVOb1uD1dQsDsHsCc1aWGAUyIEciH3D9JwF9tTZ7cyeAjTGZ/qZUJjPYciZPaFZCwuMAtTjM6O0xiJ43MMj58h2DyeWwylJ9oBy6FIZ9oHOhDKeU4CnQy1a6smTArSbuQl6xcyHzOwXtffAzM5cZEfn4DkgrVE/wkVGnJndbl9f3/Lly8HVEpDDcRx4oNGGUvfAT0Dhvr4+6pEJ+2GPmgmoj1FfkV6CumOqfTfVO5O6hBBSt6lGDsz50JZZRU0BlgVETY1Z1VtbW5cvX75ly5b+/n5wq9m0aRP4WVL/GvDRhElG9cXABROO12g0AJVt27bBBA51mYMJFmiT4zj1FWlr27Ztg/mi9vb25cuXw36Yse3r6wNfVer6CROv0OymTZtgGgdmWvv6+qh/Km2cVSgFcvMcNhNKiZWzovbBoT5ddChTAKR602zfvh3m8mF6FIY+nWYFP1HwmgFQAWdTe5rSvsEsLULom9/85qZNm4DDQGfWr19PJ14Bn7RlcISjBwNs6MG0cVahFMixPodKa4vc45PSK3tFjRyKBPCGHBsbW758+eOJDbw2aWvUYxr8FeBcrVYL7EWj0cBsPawa2LJlC52wp1ekTYFrHEKoubkZXEvb29sBiuoO/GoZgtFofPzxx9evXw+dgqtAP5cvXw4rkdTNsrqaAtRCkM22tshXGajplb1Ox7HaQgDISeUz6qbU737wBIXVL8B21F5zHMddvnx5/fr1oBHRK6pbg5U527Ztg+UM1B2buoHSg2FxAf0K0tqvsASXYDxHTZmkOl1NndG2xnIZJJEsy9fa2lpw0ExFDjABePcDM1G3A8wElnlqNJrLly+DgyZYtynPAXHrV9ElN23aBDyhtrY2yagAXOtX7AVQRxcCqT2+wW8NfKJBhgS/OCqtgXMaFTjVXWV1oEAOnsPy58xooIDXplarVbt1njlzpr29HV7nIH1t2rQp6XUOXKW5uZnq7jDQ169fD17Y0AK0rz4GlpQmgQegBT2nohosAt+2bdv69es3bdpEl3C2t7err0s9PqEDVCycER0Ww8HUQpCN5zBprdhDQa3nFPtarP2CUIBaCLKtCWXIKQitszTS2trKNPIs9CnDn/L1WxthMT7L8OmxLs0dBWgWkPS2NeornSSXz12H2ZUZBcqCAjT2TcH0HIVtjALzmQJ54pLqOdl4jslkyp/nzGeisb4zCih5IofjuIGBgYyrqWmkQoYcNqYWCQXyRA6NQxAOh9XmtQr6ZaYzoYuEvuw2FyoF8kROjqzu9zATulAJyu5rkVAgf+QYDIaM0looFIIMu0xaWyTjht1m/sjR6/U5srrPKA4BIz2jwLymQJ7IoXoO1WugMk3PmVHOtnlNNdZ5RoH8kZPNtgbrc2YUb42RnlFgXlMgf+TkkNZmZFuTVVuePWCHMQrMRwr8yiFdp9Pl0HPyl9ZUwGFVRoF5SYE8Yez1esG2ls37Jn/kCILgZxujwLylQDAYzBM5uaPjzigiuyRJUbYxCsxbCsRisfyRo9Pp7HZ7NtuayWQyGo15tsgOYxRYDBTIvcrA5/PlL639agnuvLarsM4zCuQJ+9zIgbjSzIeADalFQoE8kUMjeGSzEBjJlmeLi4S+7DYXKgXyHOc0alT69Tk8z880w+5CJSi7r0VCgTyRQ+NKZ+M5Y2Nj+VsIFgl92W0uVArkj5zcWd2ZhWChjhJ2X6kUyBM5dH1OemkN1ucwv7VU+rI9C5UCeSLH6/UCz8k4nzOjmVBmlV6o42nx3FeeyAG/tWwzoRzHzShS4eIhMbvTBUmBGSEnh8en0WjMP1LhgqQmu6nFQ4E8kQO2NafTmVHPmWmG3cVDYnanC5ICeSKHSmsZkeP3+5mFYEEOkXu6KaQopSz31MfZnZQ/cmBlW0bkMAvB7B7EQjobKYpc2jIH1MsTOXlFx51Rbuo5uFd2yWJSIDGSZIRkGUmIFBlJxSuJS8gosTSulDbbxP3m+J9v/hzm8VnMwVm2bWPPd1nGmFEUESkxJEUVKaRIEVkUJBSVlTCSY7IsSCgGRVZi6UpUQrTEj5SQ+sgoQlFZFpAs4EuIESRGkSQrkqzIMoozOokIikWnVQ7EJH7OayaURY0q+uMq0wvIioLf+5gJKDEZ8ZIwKYZvy6EhOXRXjtyWooMoMowid+TIcLpyW46klrRHDsvhISk8LIeHZX4I8bdk/q4cmkQCryAJyWJCRCzFGpYENHL8p77S2fQcNp9TpgO76N3CyCGbJKOoJHp47oOgvSdiOxG1norYj0Xs3VHb8Zj1RDR9OR61Qsl0QGK/7XjEdjxiPRmxnojajsXsxyO2s1GnFglORQHYkFstBXBmEJEd1oSmRw5EZGe5DIo+RMv0AtOQI4quiPt8xNouWw8g2yFk2y/b9sq2NmRtQ9YDiQJfk3bSX9UV1ZG2A7L1gGw9SD73itb9UesvY87XkWhVlGhcSAOTXvEJlYPXJH6mETzSIwfirTFprfjPqzyvgJGjYL6DpTVJ9MSc74iWXyrmfYr5oGI9pGDYvKLgcnB2haDIclCxtCHLPtl6QLB1RJ3nkWBRlIhKvSkF00lAI8f/3LY1juPYfE55juvi92oacmTRIzguSZYODBtzO7IcRtZXkaUdWdtxJaXIllehpP6UsucVZH1FNh/GzZoPyZZXBFtX1PkOElQ8J24nKDp4ciAm8TONfZNtfQ5DTvHHaHleIS4hxS0Eokd0XpSsrynW/YrlVcXanuAzhxKV6ZwH85BEsR7CPAqX6cfEv2Keo5jblclXFXMbsrSJtiOC8y2CnBjhOYgoPKUwryWgkeM/rAnN5rcGETzYyrbyHNpF7lX8BU9mcqIyRs57kgWQ00Yw0IZRZD2QrrQpFlWxtilTJe3xBzDMzIcUywFk2StZ2wXnm8BziE0cKYpESrnwnBw520DPYSvbijxAy715PCGJokj0CBg5nRgDln3IehArORbgIZSl3HsFWxrMuEHZsle0vio4LiDRpihRMjGKENa4wIOhuOTKwWsSP1OPz4zrc2YUV7qUc73FpR9rXUUBhpwEXqb+Ux+CbLY1ZpVWjaLFWGXImUJMopYbObCyjXnfLEbEJO6ZISeBl6n/OXwIYCaU6TmJIbRI/zPkTCEmUaO2tYzSGsznFNu2luhPRssJPUBdyTmQMx2s3k/rOVtbtAcw5NBBQisgrWWzShd6fQ6xkRCA4Bo2meCCsD8uLnQfqdB+Un9z/BDjGz4hjw1ahquQqyW1TJtYtMDIfOPTrNJI8gjOd+fatpbx3Zr5Lmb2Cx0P2StglXY6ndlsawX1viGDV1LIsJcUWVQkUZElBeGC8KoPWVaQTPzusIt5tiJJKH2Jn4WnIfAEWhyTAkIS9pVXoHUWPD7HiAIrMB6peAwpUSS5Bec72IcArNKWQ8j6asGt0sjSlrBKn8dWaYRnQolNukSOa9kBQ3+lek5GH4ICx74BHoPHLl75gVdfkPEsK1FZiUpKTFQESRElRZRxyY6c7L9i+IkK5mMSQgJ5+qIiCwpcEa84UZeiv8pyDNMy/DmBHCITYOSIrpIjx17myHE4HNn0nBlZCCgoM1QUCSmCgpctKRJeuSQqioRlMQmRkhDF8H+EhNxFjiE5hlCi4K9kgRT+FEUlJssxCYkRRYwqsZgSExE+QMDMThYJp8MsDk9TZ+jvot4twduePIyoXHrkCDaEokSOV2T8ygP5vCweFbVKZ5TWOI6bkbSWdaRhOQxPRyuyKCtIUAQJiZIox2KSJMuijERZlqAQHOEvYtYSP5qeRipT3yRZQAIGiyjKghiVhZgkiIKEG8XAgtnp/NSlrPe1IH8kC9pATsLrqDFyRCqtWfej4khriqVNtu4Tra+KzgtItGPk4JcoVU7jevGcUxx8COx2e0ZpzefzjY6O5jmfI0lSLBYTyBZLbPA1/hkTxUiMF6KhaEwICdFIRPQ4xMEBYUAn6nWirh8XPanjT8NMij5x8ICoo8Ug9g+KN26K/QNiv07sHxCGx2JBXojFIrFYVBRwb6OkCEJMwF/ZFqeAkCBNTIjFotFYIBq1CY63RXOR9Rxzm2zZJ1heERznhYhZEIKxWDQWE/AfLngr6jPKE5O5faVnxHMEQeA4zpthIz/4Am7O4/W4vT6f2xtwWO3n37yx6Vu3H3985Gt/OPoHf0DK10b/4GtjX/va6Nd+P+/ye6Nf++ro134v6fg7f/T7tx//wzt/9Ed3/+gP7jz+1ZtPNg9u++8h/fUA6Qrn8/q8Xr/H6+O8nA8XtqkowHm9HvLV7/V6Oa/d7zVG7W+JRbcQHJQse0TLq1Hbm37PHZ/X4cUjyufxcrgXuCtFfE5+vx/lt9GcbRmltZlGKky97pTqghA2bQlgQ1OQKKOgJ9DVcWtljff/+rXQ/Z8L3/dAhJb774/cf1/k/mUzK/fdF1GV0AP38Q/czz/wQOiB+4IPLLX/+r8ZfupPFP0NJEgy/iOWPBmLz2CBS+38It4D0ppM7DCyJIcl0Yl5DiDHuq9o0tpBZN0nWuLSmkL0HBzFIz4xUS4PhNrWsiFnpnoO2InoLZKvcUMNXiqFByy2ROPZm6AvdOTV8S+sjN63TFqyBFVUkLIEVdA67Ln3T6liqVyxFFVUSBVLgvf9mqn5j5FhgPRBZRUAO3hZaJ6UbGVSwXoFWAgk0SW63i2RVdpCfKWFuK+0DJYKbA1NWMnnmjx0JjQ9cnie5zhuRra1DOZVQI5MJgdkWREUrKIrcjAQ6Hh1/AsPR5ctk6bQsgSRsZ4A0r3DhgBmqUxaFiuW8vd9bvzJjWjwJtZ48cOIYyVDn9nu+EsvYVvzlBY551Ea5OAhVNQtT0hSnpPRKl2g3NRlhZxbWD6DpYaETkV9EvO+cUTM9jjYGkPOFKyohSAbcvK3rZH3eNqhUl7IwbyGISftg0q3k/DnGJI4xnModEBay+Z9M1MLQTrKYxktMWWPDfNT0hofCHa2g7QmT9NzsGZSkEL0HKw1qaQ1zHOI6MyktQyPa/pukNaI31rRvW/my5pQGuMzvZ4TCoV8Pt+MLATTaU6/MeRQUsy/CkMOZTW0QmdCsyGnEBHZGXLmH2BojxlyKGBoJbeFoLC2NaJdIOytJovYtlZm0hrz+6RoUVemI4dG8CiKr/R8kdYgw24Oj89CxJWO8xywxssKXlOAp7fKCTlgM1CPGDJ5MG3H4vwSRw6LfUM5DkJ0PiejbW1G3jc5bWvljBywYyxObGS/a4YcFWTiVZrVPSNyvF7vIuE52UfPYv6VIScVOblXGRTWKl12PAcWHC5mWORx7ww5qcjJK8ZnAa3SDDl5DNSyO4QhJxU51Icgo1UaeE6e63Pmn56TcF3DPY9H+cDoho2YNbBjaDEKPIzEpcr6P0NOWuQYDAaHw5EROQW3SuPQAOVjW0sgBw8OSZIliazqxh4G2MmeRDIQC/iJ11nEi0CWrlLfU/ACLk8AMeRkQo7T6cy2JrSAvtLlKa3hqFUYOEJUjtiRNIkUp6y4ZcUlKZy6yApHi3p/zrqseFTFLSluSbHIil+WFDGExyXmdxJeMlyWG0NOKnLyzdm24KU1ghzFKcntOvPfas1/p538n+9P/PX7tv9x2f437zunygfOv7mn8tcfOKH8TaLyDx9YLhk9ghQVEWbBChIYcuZXLgOQ1jLynAJFKizXmVCVtBaTlVFR+a8X7jx62Pil12xNHY66Tq6xw7PmiDu5dLjXdLjyL00dbnVpPOJuPOL6/cN39vfZfTKKYXaDSHikoi8+uTeWxnhOKs+hM6HZ9Byj0bjweA4xCGDxCIgi48BT4l2k/OC98aYOT21XrLpbrOlCdR1ifWesvjNKSozU4RP25PmpPjFW1xmr64w+1uHYpQtyJHgVVqnkGHTp3gZ3Uc9iyElFDo1DsOhmQuPrcxLIwf/lqAkpP3xvYk2nv75LrO+ONXQJazpjDV1iSpEauuT8S32XhBucXh7r8rTqeR9Wb0TMcJBYirxK94QwhpxMyLHb7dmQsyAtBMnIwaFFZIukPPO2dU0HX98laI5GNEcjjd3h+u5IuhKt747lV6LpTo98pdP5C30giMOPxgjjkUmXytFIwJCTipzcvtIQb210dDT15LR7MrzUyk7PSYMcUZ6Ulb98x7qmI1jfJdQdjdYcFeq7ow3dodmU+u5Q2vI7nY6X9MEADgKMnV9JSEAc3yQDAedyN0NO6lCn3jcl4Dl4rJI3Kg7WBBGlZT4Y7Pzl+Be+EF22rIRrQm+SpK2wKnRqWaiMxHGk/OU7k2s7fA1dsYauSF23WN8t1hWnfKXT/ZIu6FckEo6exLDEPqelSL88UxTONXJw1AhieCwFQ04FSdo91EKQzbZWCGlt6mEhRcSUwONWRhg5r41/4fMlR46kkDjFJBYPpoyCV3uLk7Lyo7fNazoDdVjJiWi6hfzksTzFtmmHfaXT9ZIu6CPpG2C1ORkXpRgcUw8jv9qcIidGJqXLFDl2uz2bba0QETymHhFDDqCRIUexTktknSE3dfkiR6/Xl8BCwJAzjeHUd8cYchYAcjLmbON5vkAzoVPIkZFQ1tLaBSatTT0sqJVGWiMJrV5VrAch81TMEc88VZ7SGp3PyajnFMjjkz4MJKNYWuSUNMYnVsRJ1pyp+ZyEnoORE2R6Dn1gWAPEeTiiqMirqZORY59CDmQBKY1TbFp7QOpOipyMtjWfz2cymWZtlaYPAiGFOGhhJ8dpFgKGnEVuIZiPyCm1ngM2RkAOn7CtlRY5eL6e2KZVVmmwrTFpjb7lEpW55jlk8RTxlEr0KOU/futMTdHNpp7KXtLugazuGW1roOcU1iqN04AoYJVGiA+GOn45QeZzioocuaJCXLIseN/nxp94EhluqlfgUbrIijghKc9g5PjruqP1XeHiW6V5YpWOP/L4008ZFXO+A7/jcFxpTnS9V5Tc1JZDiuVQnOdYDiLrXhHnMiDSmhID3IDhfgoSCQZN3sJkOOHcmSkFG/1JMsB8PnFeWjocclTofE5Gq3SBfAjUT1+MI0eWlWCALzFymtMjB+ZzCHIm13T4GHKmHhjJAlJK5Cgkf04cOTh/DrzowA2FICYRpgjhtOYSyTcrSWSFE3yKCCchxwXnJs+7kFNyICbxs8fj0el0OeJKF1TPUYDnkFWXMpob5Awm8RwYJQmeM1fIwX5r5bi2LZE/RxY9peE5U8gRrDjzVMLZg4Qmj4fSB0LJGDmiiHDBImU8TTMka4ZUs3h3/hvO7ZTfBtJatkiFM41DkKuXCKGYiCCZroQCfsJziu5DMCWtNT+J9IMk8XWcQlJiE5EwLhEfAsJzSuBD8Asd78VruPGGV3LjcAdltklk7bskSXJEFtyisxTSmmLdJ1nbMc8RrLIUwQSSiH0PZ0aWJZnkDSM18g3EMYREnK4ZiZIiAhMC2U1SJHEmBafjzmejETwy2tZmFDVKEAS/3+/z+eDTl7L5fQG/3+MLBoK+QMDvjzmd4c4jtlWriu19Q5CzFOs5zU/IfTrood/vD+BexDvsD3iHefGZ85NfJHpOQ3dxvW9+96hndz9v48OEEj6/3+cP8H78P9/N6/Xme6jPl/PgTAf4/UE/3twB30TEdkE0H0GWA4plH7IeRNZXFMtBxXowaU5zxl+n6zmyGes5EesbvG/E73f5MYF40ge43wD+R74HfQHeHgwZw7ERITIiREaF6KgQHZtWImOxGZRxrFbls1Gek17PAQtB/tKaJEkRskWjUagkfUYj0UiED8UiQjgaiYQlzhPqeM38MM7ZVlSPzzjPWfa58eYnkc5AOxmNRsNki0Qi4Rg/FpWfuRCX1oqNnK90uXb3B53RaCQWjUQxwaIxMYlcZfA1GonEcDeigWjYFrO/I1pIXGnr/uIhB1n2Stb2qP3NWGg8GvFHMIEETJ9omBAkhmsxTDLBL7j1HvMbFvcpj++Yz3/cHy/HfH5ajvv8eZfg68F8YINIdFy9Xp/Nh6DQM6GKgrkpQhLCKW79gXDnkYnP/9tSIeeB8Sc2KgPYtkZVHUopSRYmsMdniZDzWIfzJZDWiOiOzUNlqefEY2kR25rkuiiZO0vAcyTLq4LzAhKtCgImAKQheUKJ1zQxgilKRAlfj3BdXvGQIB8Q5DYRxYuE2miRUVvepTtfPSe3ba1w3jeJVQZIkhWZ+EoriA/ynb+cIHlCi89zlgbvw8hBGDn4GQB4KHJkRTDLyo/ftnyxE9vWGrpiGrzKIP8VbMmeadn9rAlygl4Zazdgck0YWpVy24hbO/YhmNJzCs5zsPdnm2J5RbEckjHPIRl2RZxhF8+8YYpMs62RL0iJKrFrQuhIGB1AygGE2hBqU0iBOv0KO/P47M7XLE3z5+TQc0ZGRugIy17J8NTLamXbTbzuP3kmFMlKFK8yuGBd0+mt6440dAmabql4yGEen0nqUAZf6SiWT/BLjg4h8sZD+O2rxFDsWiz0Wgi1Scp+AA+Gh3LPJW/kgPeN0+lMj5yC56YmAsmcRypkyMnwfsuwG9v7iu+3Nr+QQ6W19MgJhUIzsq1R5SHlEdAXBpaS5jrGJ0NOyvPJuoMhJ1XO4jhOp9OVwG+NISdZC2LS2ryW1ijPSW+VBp5TiDWhDDkMOdNWgCbBRrEeml/SWg49B3JTFzDDLtNzqMGN8Zwk8MxH5GSczwmFQn6/vxC+0oznMJ6zoHgOWKWz5TKYqd9aBlWTIYchZ6EhR6/XZ0MOx3Gjo6NsPodKWYWqMGltXktruWN8AnJmvZqa8RzGcxYgz8ltlV5YuQzYfE4GmTrDbjafk3Y+J0e8Nb/fv+Ay7DLkZIBIht0MOanIodJaxqhRBYp9w6S1/KU14hpLntXUsvu4V2g8YkFB9qeOhkwuIAw5qbSi63Myet/4fD7jQss8Vc48B4LySLIsSpIg41WQ8CmSeoE+IZyFLEqyQNai4lWXGB5kLXEq42HISUUOXROa0YeAzecUypiW1E6SbQ3Ct+Cl9khUkIxkSZSj3pDLHTY7I+OuqNkdtRasxGxuKFGrOzLhjpi9EVdUjkh48QWJZYJZ3NTGkJMJORmjRoH3DdNzkgZ9Qb4mIwfHN0I4CwjORYWRwwu+63evvN1/7C3dkbf0hSzn9R20vK0/8nZ/99Xhi+6wXcSgxS65JFYGQ04qXqb25I7xWaCVbUzPyaHnoCnk4IQ6MhICkvvDO2+dvnHghO7lE/27TvTvLFQ5qdulLqf6Xr5086QzMi5i0BIdago1uMZ4zhRiEjXw+MxtlWbzOQXhM+pGknkOXmlHJCXMcJCEBJ9kv3L33Mn+l48adhwz7Diu3znbYth5nJRj+p2JsqPb8Pwx3c73bnU7IkaJ8JxU7DDkJPAy9Z/6Sme0EHi9XpPJxOZz1IO+IPUk5CTWDOOEdrKsSEgKSK4P775+qv/lE/qdx3W7j+lemnXZfQy3s/u4fvdx/Uuk7D6qf/F4X+ulW8ddkQkJy4pY0yILvKf4DkPOFGISNcpz0lullrg2sQAAIABJREFUZxr7JpNZM7GIHIJUsJVtWHLLhBz8aHCYBoVIa2+c7ttzsr/1hH7XrMvOE4YdKWXnMV3rib6XtbdOuSNmCUeHxauU8dJD1caQk8DL1H+v1wszoRlta8BzmLRWED6jbiQ7chAg5+65U32/OKED2Ow8ocflpGHXPZWdJw07oBD8vHjC8OIJLATuOtn3C+3QKXfUTPK3kpjfDDlTGElfg+i4drs9Pc9ZuLa11FwGSFZiJIKHZU089k1xI3g81ul6SZ8hTygJM06ktTMn+3cTwLSe1MfLCX3rvZY0jOvYwM4TutZLQydcGDmIQAYTR8VyEhYCySM43y1KRHaS9lC9Pkcd+0aVeYpELMLRabAQM+cRPAwGQ7b1OV6vd5Rs6aGXsldNcVV97mxrS5bKFUvkigqhAsf4nMDx1uJxpUG2hDsgurlQygy7j3W6dusglwGM1ERspHj4NeQXuY8wz2k9WQBRLQ1mQPw7Zmg93o+R447YiIViGmbgCcalNYycdyRLBwnvtA9ZDiHrqwWM8UmRQyIV0qhR8TyhCbcJksS7DJCTeyYUIhXOYwtBMnKezIyckuamzg85rzPkAM8pN+QsgvkchpysLIvxnGnB2fKOt0Z5TjardFH81nBMekXmA8HO9vGixvikyFkSl9bQwACV03DoyMQmQ862t0uUJxTzHH0WaU3B0tpIWfAchEi8tSJLa4kYnwdlsyrGJ4mOS4TG+DwTSq/nyKWPVDgwMJBNz+E4zki2xADL8V+l26iryXoOwi6GGDmB0iEH52ybeGIjMmDkUAM6vR8ZJaS1jlJk2M2EHNB/kaIERC9GTv/c6zmEWDGSYbeIeg7N2Sab9+C40o4LSLApKEbkNIiOSwLAlAdycsznhEKhAkVkLyvkGNROwQw5OS0EDDl0kNAKXWWQ3irN8zysMij4fM6c8hyMHDxRD0JAghiM52Syrc05cohfUtlJaznWhBYWOWBTlJGAkIBnyvkA39Fu+vzD0fuWSUuXoCUVqKICVSxBFUtJBb7O6lOqSFilsZ7zwMSTTyCDATu44Kyx0J14ojQJiZOS8mOcP8erORqp6w7X4VwGgnr6soD1xzpdrTreL5OsaHhoAJRJv0jfApLvo5HXT/fvLq5VWt96AlulT2KrNO1FQkKiLxeIKy263lVZpQ8iS4Gs0mQ+h0priGSewjnbYjYFRYkqmiytkZknWRFwRHYeIrIfQAinMyhRRPbc0prP5ytgvDU8VLGcSpAjIZn3hwhyInHkLCkycu7HyBkwkLQWgJy4hQAnz0OiWVJ+fD6OnPrucF2XWN9VNOR0uXMhx/vR3QRy4m4EGadl7tk356h+F5HWTrqjNkIR0CVUC3QQycFIIrKrkSNbioYcSyI3NUZODAciV3UKLASAHERyGWDkHJAwbKYj516SGuRtWwNpLcf6nBkhJyH7JP2XSS6HeLpHWY5h8MwVcgjPwXmvIBMIkdwkSRJlwSwqf/XWxNoOru5opL47UnzkhHwkS6kiY0MjniGXRcKE8FodbFu7czY+n1Nc5Oy6dOuEO2LFS0Ilifhqk/xGxIMOu39CVnfBXXLkWJEcQfE0IDJgJp4aCrvWSXOIHOp9k81vLX8fAvzmJpsoilBJfOK1wZIkIEkWJVGWojKKzR1y9LIoiqKAlybT/uE9sUlB+a9vjq894sVZ3YuPnF39QS/piSSKkiwJsiSJMUmUyFfZJ3iuDJ891bcLS2tFQ063buexvl0Xb51wha2ShCRBlPAfpYwsioRaUliKOUuMHDlsloWwJJFO4RGFH5eAP2RJRAISUTQhrZWc59D5nIwWghl53wiC4E1sXGIjOziv1+P1enyc18N5OM7p9bm8nDdkt4Y7D1tWVYK0JmMlp6h6zv3jTzRLN66TbnCcz8f5fB6Px+vFOVu9Hvddn/B3V7jf7A6ShFORuqIpOXVd0d85xu3sD5r9PMd5/F6f18t58Ifby3l9nIfzcna/5crwmbhVumjIOWZoPanb/d7g0XH3XXxlt4fjyOW9HMd5vZzP5/VzmFTOoG8iantLNHcokGG3gN43VM8xv6KYD0Ke0IjlDd591+91+HyYJF7cHw/HeTmv18t5Oc7n9nmCrkDoIz70WlhumwNpDfKEZpwJhfmc/G1rSVJa4qsE0posYXFElmKSHJVEWQ74wp2Hxz//cAmQIy5dxt9PLAR6He4CnopFuJCwFZhbisJkVPmfH7gf6fITnhMrKnIe68J+a15RkCSRdEIiqckgooYoypjnfBj3WyvIKoP0OtJR/a4T/a3aoROusAXnT8dXxhSh+TLxC55kdUc4q/s7sqWzuMjB6hPMhJ5HURuSInjBEh5G8U6R9Ut4F5Zroyj2WSx0JDQnyAGPz4zSWmFj30yzECAFhQKhjldNn/9CaZATvD9hIYBxAb5QYPLEj0a2xJT/obV/udtf1x2r6y5intC6ruhvEx+CIMlYSswUCdsa6YmMZ0LjHp+nDLuLJ60Bci7dOu6OEAsB6UXcAJyYyiZYiiLBI2HbGkGOdX8hPT7VPCeOnHbReUER7CTDLtYC4VmRf3iumNrWhGsCznY4F9IaICcjzykwcsAQrIgKErHqyQdCne3j1CpdTGlNxFbp+8exbW0AkRhJSeMDybJZiCOnvtjI6Y7hVQY63o8kkgETxXNTK1NWab/IUZ5zPKvv2T0b1k7odx0ztJJVBgmrNLabxMdpAjh4lQFC2IdAdL4rgbSGM+wWzld6OnJIht12bJUWcIZdwm3IKxevfYBU2biPkkKs0r0kw27J84SCnpNtfc5CjFR4i5iPMK/BJcFzJCQBcn6zy0f0nCiR1oqVm5qsbEvjtwbeN7KCfBg5r5/sK6KoBsjJ6UMQ5zmiR3C+V5r1OaIqN3XctIafFbGGwhOb6/U5uZGzEPOEMuRM6Twz8JVmyElo7QihvFYZzGg+h7L46RX6wsAv+bnOsMuQw5CTIfN73jOhlOek13Mggsf4+Hj+trXpgKHfGHLSxltj0tpUahC6JlS27J0X0ppOp3M4HBmR4/P58p8JBZ2BwkVVYchhyJkCSVLOKfg6v5BDfaWzWaXHyKaS8bJVVWhRVxlyGHIWFHJySGuwPmfBxZW+FYc+s60RqzSzrU0tqM5bzwELwWKLjhtHDvBEapWWE1bpR7qZVVotLySiRjHbmkrYoshJ77cG8dZGR0fncewbsj4HVVSIFUv5+z43/uRGNJgeOYghh0RfnwYa8oXN56ggE6/mQA7P8/M+ahRDTlb/AzafMyWqtSlK3tJaDj0HrNILQ8+RCM+ZwDznJrw3kqQ1xnOw1w14z03nO4znpPIcQE5GqzRIawtjJlSqWMYv+9zEkxvlgUHwj6bDI04XBfut/e1lxyPM+4aShlQYclKRw3Hc4OBgNgvBgvFby4QcFVEIct53PtLlZ35rauww5KgGSbxKcxmknwldDDwHKEG4kDSJVxkwnqNGDa4z5KQih2aeymhb4zhuXvsQyInYN+KSuLSGDIPYdY443oKrNKyIkWRxXFC2XbStg1wG3UVcE5rIn8O8b6amR+epD0FGnlPY2Ddk5UdJPT6TkYNjfE5DDgTjQQiJKDYuKj9+x/LFzkBdd6ShO6wp2mpqhpxUB5x5h5wc8dbme4bd/JEjIWGCIGdNp58hRy2xMWktVVrjOC53XOl57bc2A+QoBDlvW9Z0+BhyGHJS0aLeQ/Wc9NIazOcsED2nYim2Sj/xpEykNbymEFbnkkXtJPNUIiI74zlq3DALgRoxiXoO5CwAj0/KcwTwvqHIQZIKOWQOMJ4FZJJJa9OBw2xrCbio/udGznxfTc2Qkz2+B/O+uWfvG9Bz0ktroVBowdjW8uY5ZsJzog3dEQ2OyJ68rqZQe8onggeJyH7CHc2VJxT7Spcow275rwnlOC7bmlCYCTWZTPPdV3p6ht2biIhqZFYnHpEdh3RWoiQ3tXVNpxdbCLqKm5s6E3JwXCQSG4lk2C16zrbj8VwGJ1xRG86LksVvrXg520jUqPlllc7h8bkAeM5UFpCp3NQMOVMRPBhy7k1ao7kMsvkQLABfacZzMmk7DDn3hhyPxzM4OOhwOHLEISha7Jtg0fOEJrxvhHnGc0iG3btlIa0VPcNuAaS1UmfYpasMMiIHfAhGRkZUFrls1SSDZuJrpggewUDnq8XNTT0dOeNPPKkMlLW0BjE+S5ZhN85zbmXTc/DzVoqZYXd+Iken07lcrvS2NVgTWkxpjSFHkhPup3hSiRgsiIWgRLmpGXLuWVqDLCAZ9ZwZ5c+Zebw1hpy5Ro6B5AmdNzxnKiK7rMgKyXaIcxm0lVpaoxaC9DwHfAgK6H1DHJMVWRZxmG2cy8DPH3kFZwFZtkxaUlHUzFNixdLgsgfGm5/EuQwQzlUDkiSsD5VlJCEBW6XftnwRVhl0RYs3n1PXFX2s07lbx3OSKMrgzUBSXeDYwTgxJ1IUv0CygPS3FjXDLskTuuvS0AlXxCrFcy4mROzEf5K8JiqLbsH5Do3ILlsOFTbDLlilkaVNMu+VbCSXgYgz7JLkQpDLIG6vhywgGDk4w64Q7ojg/Dn75dLnCc1mIYDMU4WazwHkIJwLU4Rsh+FOnD8nvGypWGzk4PU5D0w8AciJp3SPi0dYBVbiyLlgJh6fMBNarPS6gJyX9DgLiAxR+glacAQ4PC4wcgISzrAbzxOaNQpHJrtZPvsTyMFZQPBV083nJJCD8+fgzFPWNsW6r+AZdul8DrLuw8hxXkCiHSMH55yiyCEESuTPwXlCceapOcvZZrfbw+Gw2khQQb/M1Psmg/UgnmEXyQhLJ5IgywJOmxb08UcOmf7t50uAHGnJMhw1qvlJpDeQpKUkRRpOKYuT6UiSLEixCUn50YXJJuwrXXTk/Han8yV9yAcpbfFbBOeQw6ME5ybDeW4DovejeM62qemXfMAwo2OO6nYd78cZdp1hC06Tg69M87VhxkyW/Ukyikokw65sjWeeKiJybPsFy6uCHefPQXJUliUZU0WVSI5URSTJURlnnjoSlkueeSpHLgPwlc4/gockSXxiC07bAkHeH+QDoWAoGOR5PsCHcD3qdvBHDk0+vAIjZ+mSokpr2Ptm2edMzU/IfX08jzsXCoUSfeSDwZA/6BuNSs+cB4/PIiOnO/Y73e7det4ZifJhPsQHQ8FAMIgrfJAP43+8O+zAeUIhf07R8oR29+880d96cfCYxWfkQ/jKoSCPP+JbiOfD+JGFvHzAHLWdx8ixHlAs+1Chs7pTniNb9gqWV6O2N8N+Ix/kSEdCQT4Y5DGJ8B8fCvERPx8Ie0OxT6PhjrnhOTlyts3IQiBJUiQSCYfDkeQtFImQEo7yoXA4zIfDfCQcFb2eSFf75IoVpch2CFGjnngS6fXhMO4EbAnuGg5FgsYY+tGFUiAHrwntdrfqeFdMCEfDkUgoinsTiZDeRMKhcCTiiTg/LFVW9/cGj9n84+FwJMyHIqFIOAQdCYVoPewLhyyC80I82yFGToFztlE9J5HL4HyUH4+EfUQaiuBukZGF6RSKhMNRPsrHAtHYp9HQa3OWJzRb7BuIQ1Co+Zy4GI9FNpLtMBQIk/mckiLHMEA91iA8BZEw43oOWU2NM+wSj89i6TkYOSTDrk+WsKZLDNOw1BxLJWAhELkP75w72dd6Ut9avDyhJNvhbu1QXM8hahfJv5gwD4BigVBMljwkq3uxMuymIgeJdkT0HGy5IPn1kvOEiorQK/DEtobNAwcQalNQWzw3Dq1Mszsnfk2/c4aRCp1OZ0ardGF9pQE5WAPG1i2cYRcjpzQZdinPMRgAOTA2EoqZIiviBLatlcJCUN8de6zL9ZIeR/AQZRGW2cF8DrUQ+EVvKZCjx3qOduiEO2LD5kZsIYhbHePYIaoOngmdA+Rg21o8ykpa5AjYQsD/kkdtxLBWcuTksK0VMq40TiSL8wonrNKBkAo5qKgZdilyiFU6MecY95UmfRIIcixrcASPovOcx7pcrfogsRBMt0oT21oiT2iC5xTNtqZen4NtWNhEPn1DUyvbcIZdsK1Z9hU8w25Cz2lLSGsXkIgz7MK8MOQhpjwnkWFXiV3DWd1RyTPsQry1bDE+OY4zmUxF8ltDfCDY2V4C75vpEdnTe99ICK+m/vHbljWdwbruWENXpKixb36707VLF8TSWmI+h1jKMQskSx5Yht04cmDyjSBnWm7q6TOhkrIfKdN5Tnp5rHDSmsFgsNvtCT05/n/KKu33+/O3rdHpxelvLfKmiCcWxm+Quc4TypAzZeZW8xwspaWbz2GxbxIi/dT/vFZTF9NvjfEcxnPiwQoT0trBJGltOs/BHhaEKytlwnMyWgi8Xm/xpDW5nKQ1OR7Bw0z0nFJIa6063ofdKeIBR5m0hsyvKJZ5gxzw+MzotzZTH4IUOQ12ZFplUD48B9vWiN9aCZGjZ8iZx9FxIcZnRj3H5/MtDmmNISefCB7vqWxrB5EVswjFejA11O097Jlf0lpuX+lFzHOixbattTKeQ9a0zces7h6PZ2BgIJsPwaJBDpKVGIl9Y1kTX2VQ3Ng3j3W6XtKxXAbzVVrzeDwQNSqjtDbfI7JD7Jt85nPKJGoUm8+ZF7Y1iLfmdDozIqewfmvgmlWe8zkMOWw+J/8Mu3nlbDMajYXy+GTIoSFCM0UqZDxnvvCcHPlzCuvxyZDDkJPJ7Da/bGvUhyCbtLY4rNLlEh2X8Zx5wXNyx1tjPIdyicJWmLSWxHzmHc/J5kMAq6mNRmOhIngwaY3CjyFnASAnm690UVcZlJnfWlnkMmDS2nyR1nKsMlhMM6EMOWyVAV3pOLWgIG0NYt9k8yGAeGtFWtnGeI6PRNEieRcTkQrZyjbL3vLPPEUtBBlXGQBy2HwO1U8KVWF6zgLQc3JE8GBW6UKhRd0OQ868Rg7zlY7LteWT7ZBZCOaXhSD9yjaaBaRA0hoW4fEYxcHYSfhvPsB3Hp6LCB54GSaNupYYrOArbZ1bX2kSNQoTyCd6Prz7+kmI8Vn42Dc7T+h3ntDvmopDELXip5MlDgHOE/qeZOnAcaUt+5H1ILIeIutzpvydk9jIjL7i+RwLblA2T9dzcKQkHG6MaIMQrxdHtkpEZI+RXAaSsl8mETyQ0oZDeeBPXOKx1/KtzDDemsPhyKjnQIzPWc/nQBAPMiowISBysSyHgqGO1yY+/3Bs2f3ykqUkatQSVLGUlIpEEKlZVSCrO/WVnnhiI8k8RaLiEyCD5QSPGQVyGdA1ocVdn/NYp2u3DseVJvlz8LAgrxUZaIQQ8osugpyXipDLYOcJ/Q5cDDsTyDnujlqmI4d0h6zoxZGdURRJbtHxnmQ5otgOKJY2jBxbG0aOZfbIwWvjcIOWNsVySDa3CdZD8YjsSgxHrSIvXAgEFwcRUqR4LgM1cmSlTVYOJEqbnC9gKMDyRg6NK50ROQWyrcGaanhViAkznyTzgfCRuUIORIKg0lqp14RmQI6kQo6DIOcXJ3FQacwfCld2njDsgEKQs+vS0DGCnMQoVY1UwockGUUIci5KltcIcg5iFoEhVBDktCnWQ7L1ELIcUMyvIPNBwXow5jyPY3wqMVmFHPzCgz+CHISzgBDkHJCU/ZJyQMaJdKYhZ4ZsJ2/kwMq2bPHWCpTtMAdyokXjOerc1Px9n1PxnMWMHIDijhN64Dn5IkdwXBTLHzmY1WD8YBTFZTYqvGWvKPmvMsid1b1A+XOmISf+nkdTPCdSfOSIJJfBxBMbEc4TGt/IC5VEHcXSWkkjeDzW6d6tC5H8OSChgbRGeA7egfySs2g8Z4p9qXkOifFJMwuR9zsJhUpSt0RlyR1zXhSsryVYzUGS1IDwHMx5ZlFwQp7pPMd2MOa8gIQ4zyGCIxGwM/MchBOBSDgFFSCnDZBDUJTYgxGVraCZIic3z5n1TKgaOQJJTEZS6fCB0JHXxj//cGTpfeISnAVErlgiF1TPoTxHxJmnPjf5xEZkGIQ8bVj3wjmn8Eb0nJIjR8/7FZx5Ctsq4pmncPoaHH4coYDk+vDuuVP9xZDWdp3Qt0LByOnbdenWMVfEQiw3VL2ZhhykRGXRJbgIcqz7FXMbCdxxAH/mjRmSOORgus9k5Ii2Q3HkoBjOnJOQHtNLa0dC6ICIYQPIORCHB4VQVrSosTQD5FAfgox6DnjfFMJCQMCDTSKlQ468pEJcspSgsSItcih4yOBdVMjZfUKPS/7IkURXzH0xZnsNAXJw1BtADrGw5YMfbI5LU0gSuGk85x6R00Z4jgo5OFL7jEo32K4SMknm/yWL4HFvPIfa2cDaNuNPaUmFwJCTxrTQCrCZKXKiaZGjil+Tjxka2Q4llWIgBwPm4MzL0RkgJ9sqA8iwWwgfgji7JVKRqMiyRDKiyLwv8lr7xOcfjixbJi5dIi2tEEmRllRISyrQklnZo1FFhbykIrZ0qbRkCSINBpd9bvyJf4cMBkmayrCbeK3ISA6bFOUv3jU3dvmqj4p1R4X6LqG+W9AcFWpTiuYo3p9U6rrJKV3Jn3XdAimxuu6YpjsK5StdzlY97yW5BbGYJMfwHBdJk4IDb8uyT3Jeufv6if5fHDPsODaAJ15mV3biduJl5zFsj955bGDnUf2O4/27Lt465oxMikiMCwY4CHhcbCP0EWUUlkRnzH1BsB1W7HsV6z7Ful+x7SPlgGJrm1UB3oXjtu1D1v3Isl+wvRJzvCULVoQiOPNF4sUb/48n4IhQG1Oi12I8ltZkZb+MsHkNW9iwnY3UQflJ/SSHwcFTn/iwrngOzMSoyPif+q2lnwkNhUL3HPsmzTUVRVBkJAqyLAqyIkpIDnr4jvaxL6wML1saWTqtRJcujc2oLFkaSynCkiWhZUvDS5cJSypi9y3hHvi/xx7/Y0XfL4oiqDeg8JCuyorIG2XlB29PrOl0VR/Fo7yhK9zYFa5PX0L1XcmloRMfn6Z0hhtxCTV0hho6+IbOYENnYEOn+Re6gAe/RJCIh0FIkcI4kw5Ru0RZJPM5b57o33dM33rcsPuYYfcxfUqB/Umf6sPoT/rWY/pdU8Ww65hh53HDzmP9O45f331x8LgzMoEjq+AtMeeIOwOPUZRRRBKdUdf5qPU1ybpftu0XrW2SpU2y7JMs+yVrW2oRrW2pJfUwvAe30yZZDkrW/ZJlj2jdF7W+Fna8IYs2pEQU0qup4YSVQFlSBBlJSlgJX4t4O/3CQUk6IMpt8YKwnQAX+aAkpSv0AHUFH9k9A+TAKoOMyJnRfE40GrXb7bbp29Qeh33SabNbLWa7edJmt1kcduPo0KEDb9fW9z34kO43HlSX/t948MaDsy39v/7r1x568Ppv/Jv+X/+Na8t/7cr/s/zDjf/OfeWy1WqFPloTm81qdVkseqvvR93Xf+cX1x7ZN/DlfYNf3jfwyN6BR/cYUstv7TGklkf2Gr6crvwmPXjvwKO4GB7da3h8zye7tMN3rQ6r3TlpczisE07rhNXmwD2z2m0265jl9lufnPjlOy8dvrjrsPZnh7XPt1/C5bB2qsCepE9y8M/gs/3SC1AOX/r54Us7oLRf+nn7xXj5pXbXkYu7z33YOWTSmW1mm81hx5sNnhqQx2a3Wm2TFvPd8duvmwZemxxomxw8ODHw6vjAKxMDBycH96UtE4P7UkvaIyfjRx6YwE3tmbi5f/zWYdPQKav1ls0+iTtjc6jGFB5gFrvFbrO5TE7jxdHBVwfu7rlj/IXR9JIJl1+QT6jjT2OiJO1P/mr8hWnyl+YpiGatUQtBeuTwPA9ZQIxGY9Z24j86HI5Tp06dJlvP9A3v6+k5ebbn9JlTx8+ePNnTc/bkubMnT519+aVzz/zonS3fTy0Xt3z/Yktq2XKxJd/y3pbvvb1ly3vf++HF72156/t//ub3v3fqr//mXOdrPT09Z86cgQ5Cb0+fPn329PGucxf+/lDPM/te/+H+83+x760f7jv/g/1v/2D/hRmUfRd+kFTI6d/ff+H7+89/f//5H+Dy1g/2v/XM/jf+T8cbJ06fOX36zIme13t6Tp85fep0z7lTPT2YUqdOnzzdfajz5T2vvbin48W9nS/u7fj5npTycscLqYUchs/C5cjPXyZlz5Gf7en8OSk/24PPeh7KS50/e7nj522dLx0/3XH69Kkzp3vOnAbCnCGUOXX69MnTp0+dPt1z6tTx08f3nTm28+yxF84c/VnPsR09x148c/yFM8d+fubYi+nKz8lPeX32HH+x5/jOM8d2nDn2szNHf3bm2K7Tx/b2nD56+vSpnh5MItVoOtPTc6anB9Po3MkzZ9pPn37p1Lld587tfP11KLteP7fjHJTXd56bKjvOvp4o53acTS1nd5599+C7+YxzhBCdz8kYwcPn842Pj+dplY7FYm6yeTweqLjdbnXd5XG7PE4753S6PR78z8U5bCGzhTfboITMtpCFFLM1PEnKhCU8YQ3DJ+yZtISh0GMmLfgAuh8fZgmbLSGzOWS2hifs4UkbbzGHzGa/1eZwuTxkoz0kFZfbbXdw7gmPf4LjzVzQ6gmYPcEJD2/iksu4lx/3BFPLhIc3p5RJDz/OBce98WLiAiYuaOKCY1zQ4va5XQ6P2+Nw+1xuTDKXx4s743K7nU6X2+7wWB2c1cHZnB5H+uK2O9w2uwt/kmJ3uh1Oj9PlcTo9Tqc7UfAex//f3puAN1Wl/+MV8JnfzHzLqAyLREfQ+Tv08RFHZ35xYfiKtuqMo/OdzH8e9Ttq44jr2IKigA2FAqKNiCJLqoKCJGWrUAJl6ZrShW5J27RNl7TN0pUuadI1aZJ7b3/e+zaHS5abpElLivc8aXpy1ve853zO8p73nNNjvEx9OnuMnb3Gjl5jR4+x4zL16e7r7DV0G3p7+kg6+vr6jFStkXQYDD29pOnr7TEYejuMhjaTodXY29ZnID8Gg97Q297X24E+RkMn9ekw9rYbSa+2vt52o6HdZAB38czXAAAgAElEQVQXMiSE6evtJGMZyJ99vR0G8mdnX0+7kfx0Gnq6KUb0GQxG6oOqC5pWb5+hp6+XKmt3n7HL2NdFfjt/uvuM3QbHh7T3dfXSP6RXTx/6DJoG/EWO+zFnAuschoxBl3F8M4d6ww6j5rDkxJX2oebZZDLUq/cEdmVFQtowAreP4fYxAhsj7GPkO702ArdTH4yc/pLutM+Y3fEoqUOthXyt1S2RJAnwHgdJDkaM2fExO/V4CyTv9G2jciYzJ8mhPmRgcjnr/LmKIpI6aqpOqb2ShSDpGX8F07FfMc4P6h9JFxx9c/9NLy7h4Oh4Scbf7iUjXp3HVfld8UKMgfogOUJ9QCcWFkFkaLJqcPJD8pzAMMLu9CFlHKRKnuNDblthmOP9XlTdlGYNTlE5XndUHZClIMOgcJTKDRBDUUYp7JJCArt9zGYds4yOWTDy9btxM24fV48cL5SjSFSzAurJnOl5UHkiHjBa0K1RHvdz+vv7NZRhTMcnTzqVsM3m+Hb8p9UnCE9Ido/Z7YTNTththM2GW8nPmB0j3cc/9jG7bcxmJ5lI8tF+lS80KxwjuQzv1FC6le7oHV8YU1IlsnFQ7Z3aoaQQi1HGUT1kgxn/UC2IqgncDXRJAq5UyDgLyKzGnalcSXKgwyC/r9TluOM4cgAVLt8k9lwcKRdizE59wJeGToeICnKjc93BGAfR5P8rjz1BPKp7IQNC10bBw4YT6GMnHx4nsyZ7EFISRH0okRApGHLtWahgJLRwKoqjONDBIUooMhBzwJmsJgwbs2JjVopSCnHQcY13glfYCvVLbqvijhyAMRDSEd7BAS//vb8T6u+tUSjD8dq5+h+JcbIhQSmoUl2Rf9KCUo1nPBBZJLL6yP7NTqrtOpSLHe2KHIlIjWMCw+x2u50U7UKitDGEkhiBzIhiPiLzigWnsqH6dYcUFHKgjkVguB3D7DhGDjI4Tj4oDR8rZqW6UlI6htoShTuKDGp4oXAI/duVVgrjiH0cKpRIx9EaKBxdKT3FrSvMGaeYLDCBYWTRcbJRkQEcdNMDk4k6DFmecSSMW8b7CRQTEneEJ//TQE3VBKl0geEkE0ZxfBTDbCQzyA/5+Bw5/FDdFIFDXWA2O2Yna4fKjxqqKIKu9A7AAGgSVDHACwpzhfSr6gXRByrmODaG2XDCjuE2O26zY1Y7brVhVjtmBTSSgCRVMzCMsNowG9nn4hShMHBSAm7H6Od+PnKllThsaJ1jNpvpS50r74QG6c02VFbfLdTkiaxrnMDMre2NNar6BnWTwdRvo5owNEw7yQPqj8AH+i5n5xd0mAaorovWYHzP0yUkgI3cfcIxHBuxmPuam+pqqmuampuGzEOmwb7svOxOQ6+VIL0pBEOV2HHCRkqbSTBBp+3o067OwtE0HP+v9r3yy9HdkM0Kxwi7zWYxd3S2V9Wq6mrre0xGDLONEXYbuQ8EWCLHSYdqEdUayKGRGjzJ1k3uZ9mIMRso+riD3JWsXWxkxeC4HRs1WwZb23Qjw0PWUavBaOzu7bXZbGTngtmMpp68QllrR4u8sry+sZGqJookzE7SDwYGarIRUypHJL0w0Wbmxnh/Bqim5u9Wu9XS3tleo1KpVLVGY9/QcH9unqxGpbLZrFYcsxN2HMNtuLWzW5ednWcaHbWRSCerh5woX20c0PDy34tsbWRkJEgvT11NnU+/yIGYbHeEfWTEsHHz+9t3fL7lo4+/2fft4PCwHbNbRi0W66iN6upstlGz1aJpqF6/cVN9SwdGzhZcWOJTps6BxpGDj2F2G44N19fK1619d/fu3Zs/+ihLltWsa9q0ZVO9pmnYSnZm5F6V3UpqnhGYzWqxWUftdoyqHrK9u+81nTP08JuqX7JLJo8F2myWkYKLF3ft+nLfd99+k/TV2fRzQ8MDmM1ssY+SFFgsVtuo1WrBMJvdbrXbbVarxWodxcgx2Ub6W0dHbVYrhtsImEyiIcdD7nTn8dGCRE5rm/aTxM3FxQU93d0HDn5/9ny62Tw6Omq12626luaNWz6sUFUkfbfvVNpZK+lms1rMttFRDLNb7VBvmN1qwzDMZrNZrDZqPkEuLL0B+SrkUFMR29Cg4fMvtn+0bdv27Tt2795dV1+bnpmuqquzmIctVuuI1ULyBLPIKy+tWyfoGhy0jNpsGE5VDbn5TDdeEOPw9q594+86h05EYHayjVDKfpahocvvvf+6vFxRcOnSqtXvabU6nV6beurk4aNHVHW1FstIRYXi8LGjx8TfvrtufX1Lux23QczACCBjO8YcAsOsuH2wXJ6XsPHDtvb23V/t3bV3V0NTXVx8nLK25lJZSZNOM2QZkuVlXya3GjrPpZ0RHzpUUVk1PGqj5ipBQA5Fjh3HLOoGVbxAkJ9fMDg0MGDsa+ls7e7pSD93+lTa6YryCk1z04kTKYePSGrrVMPDg9U1VUeOJp86ldrZ2VHfUCs9I009nXpSmtp2udNiw6hlmFPjYWQb1W4JArdj5qHhvu8OJO368rOLF3M3xG/KyMw5nnLyeMoPanVDs7Zhw+a1CpVi976vU06fNg0Mlly6dPwISUZ7Z0d+UWFllXJgYOBibq5ep+8zmjJzZF09PWS/g1MTWCYSXJFjNfV1bd26MTs7q662Yf36D8+dPyfLk9U1qmtqKs6dP3/qzCnpyR+6ejtLy/PXrPlAc/nyufPp9Y1NZivZTpwK74CGl//eJQR+7YTCBJ2p1H74kRopVILm4eHO2NWvHD16RJwsTvxUqNXrPv008cjRwz+cTImPj68sl2/buvlCZrr4u69ee/s/tfo2G4kcF5UNP7K+EhSQQ9YVbsfsA+VluatWvXX2/PkP4tYlHzvcrG2K3ygolZcJd3x2ISerx9S7TvBBQWHe/n37vhElXTh/4cP4hNpmHaUOHTByyK6RIGdY+Ig09fjHH31yuau7rl5VUlRQp6mrU1c/99w/UqQnmps1e3bvOnIkOfXUCeGniVlZGYmJH587l7Zr987vvtt//PiRl6L/lZuf8+XunfsPHhgcMdupzunqbvdK8V1tDlkUjuEWOz6s0da9u/qdd95567MdOz/+ZMfRY6ni5MNbt20tryzdsGlNhUqx59uvT5xNS7twfsfnO8pKLn333f6vv/n6+0MH9+zdXV2j/M9/3k5OTi5VlG/5JFHf3m7DSRkd2WaZxp0rnlTrthP4qMnYtTkhPjMzs6KiRiDYmHb2zEefbD594fT3B7956623LubnChM3H089fqk0e8377322VyTc8bm2tdVKLsCuLBGBCV4Q4/D2fibUXwmBK68n7GInZZrEGGEZHu56+z8vCYXCd99blXwkuUmn5f3/f1+1OmZDvOCD998/cyp125aErt5uTUPVWsGGOseYgw6aTJgAWMTD7IGUe2NDCnneqyuj9x88sHHzxp27d9bWq+I3bpAryrZ/viMjN7t3wBC3cd2F9HMvvxz9nzff3rx5a8yq98pVdZSWXMDIoRbrBEFOGn/4IfmzHZ93dnXnF+YKhdvit20oLS9+8603NB0tTZqml19+KXZVTHy8YP2H67/6Oumvf306IWHTe2ve+/LLL44dP/zB+jWXezpOp536bOfnvSaTDSO7GJ+RQzZqqvFgGD5KEJZR6+DunTte5UefPn3mxRdfWbc+Pi4uPi4+rlRRFL/h/Ypq+Z59omOnUneJ9h47fnRo0HTpUmHchx/m5uZ8/sWO1NOpCVsSRF8lHUn5Yd/BQ4NmsxUnl+/Q//pGEk4K8XCL0di1ft3at96KWf/hxuMpKfoWzcfCzannUpKT923ZvKWnr+dw8re79u4qKM7+858jX1z5WlVd/YjVZrGT8zUoPGKCAxpe/sOY4+WmQq1W6+NOKJQ5kJZKj0uuJclV4+jQYO97770tL1NkZaVvTIivqKx8/Y3XLmRc0Oi0Or2+pLho08Z4fVtLlaJo9dp1FHJgcUFPbIJ2EGCSbMXtuH2oXJ6/MUHQ3tWVk5O5/sN1l4qLBPEbFBXyzz7/7Fz6BV2b7t01semZ6WvWfHDk8FGNVq9tbR8wW+EITkDrHIp8aLI4NiKXF65dt7amrs5sHkxPP/t+/Loieembb7+l62rV6Bvff/+9c+fOabXatra29PT0VatWVVZWarWazssdqak/fChY29PXfebsmU8/32Ho77eTyrc+IoccgCn5IUikbThhtdnMF9JOf7rto9LiktWr3svPL9RodK3tbY0adfyGdcrq8r3fiE6cPrV7756DBw8YDYZcWW7Cxk1N6vrPdny6MSH+8LEjX3yxc8u2T9JzckdI8QIl0fZ5iUop1tlwzGw0Xt60cdPJ1DMtbZcHhweNpq5PhJuk50+IJV9t3fpRr8lw5Mi3u0V78gszY2PejEvYul8sNg4NjZKL5AmOOT6tc64VcsgtQ7KmbEMDxg8+WFWlVLW16+M+XHfyh5NJItHa9eu+3r/v5Gmprq1l68fbPhZ+krg1/u3V79a1tGMECHkniBZ6NBpyMNw+XFqSy//3y1+Kkj7etvXrr0Q1tSrBxvjaOtXhI8lx8YIdn++Ijn6xuLT0RKp0zQdr93974OTp0119Rmqdg+Z99OR9t5NdMNXf43b78OCQ4eChQxs2Jez/Jmnb1s2fi3bLlcrYVat1nfqhEcN33+3fuHHTvn3709Mz6usbhMJPP/kk8cCBA8XFRSdTU+Li1/cYutPOnd3x5Ze9pn5/ZmsEuV3i2F4kpcCY1WodzTyb9tnH21o0mkPfH4r7MG7/t9+evXBOVa/alCCoUMpF34hOnU4tKy7Zsmnzri++3PrRxxcuXBga6D/0/bcvv/yv0rLiL7/4cuXKN9QarRXHraSUZXzM8QXNFDFWgjD391/esmVrZnbusNVqx0b7TV3bt285cyFVLP5q28eJXYbu5CP7du3dU1CYLVi/plRRHbt23YUc2QgpJZngmAOvHXo5E3qtkDO+L0PgNrtVo9MMDY9Y7dbOTnL9bR4ZVqlqFBWKyz1dVrv1cvflCmVFq16ja2kdtow6Nnx8b5ceQ6L+mBScYtbhof5KZUVRSUldbe3Q4IDZYmltaxsxDw8M9FfXVDc2Nupb9ANDQyOW0YbGxpKystaOdis5V4P0fZuAuKeFikvJpAnChuGjltERjVZTXFRYWVFu7DeNmC3NzRqz1WLHRoeGBlWqWoWivLu7x2az9/UZy8vLq6trBgcH+/oMLS16m93aZ+xr6+ggBVr+zRNIftAMGXvAZLzc0WazWkZGhquUyvIKRXdPt3l0pLWtZXhkqKv7cm9vj91ma9G3lMvLm7Ras3XUjtn7jIampkazeeRyR6e2WTtqtZE7QaTA2kGRD9yCQZighPTt7e0Dg0OUDjxms1na2/R9RkNvb2dbW9uobbSn93Ln5csDA0a9TmO14S1t7W0dHXZKFdyJ37TSMVm93OAxPDx8Ddc5aCsRo0SPJFMpoSwouZA7CuTgjjk2Sqn9CkdhndgRvJ/juyKwNwLfVNsb3yCkNgJJOkldHeoEQVCWWw76YeDCyW14gjysAackxk+DO9oBOZdyGOAH/IINkPFVBOXhSDag/1RbJ2uBmsuR6jZUBZEAGF8TUT0HUEWyhdonBgiSAwsowkyo4hyRxv+TUy+HIXeISJSTO0+0SSa1c0ShH1jnCH7lv1Oann7COofphV2QSgftNPUVCr3bKJxQO+WUogsAiZqWwmobqgr0C8YLSG8c3jOYUAg6KyE7SAbm/tRmDrSdK0oDE8rHU6Rx8DgUSK4EQ4QhJ/pwgnydLChwABYoOjmxBvx4WtGR4Rz6HVeyQ8P6FSdfbfSy0OuCFO1Q/QigGu0RQRfjFMspM7ovgx3J1oKm8elERyA/Ed2oe3ByQS0D+jPki9wDyZ0hLj0jyMvJhdrIp7RiKA+GpCbgRbUDaKNkF4uydk0KvFzdUSy3XkF3pJNBLZXG52PjtTbew0wkW1R2VAsoFUem0L2O7646HMlQKC6KAhbkzmxBOgQeNT7hVfdrIltzKhLzz8lGC3Purr6TSQ8admiTE8daypUSTy6TSaGnPEn3K0RTzZcpaAB+jtKhYZCeLVO6zIBBvmjM8Ygc0Fvz8WSbg1wmylg/lgOhzAGEDWYLkq15RI7RaLxWsrVQ5i9L2/XKAWbAIF8vYw68sBus8zkoV9bCcmC6cwCtc+hHDEZGRq6cMhgYGPDr1qjpzhGWfpYDvnAA6RB4RI6/t0b5kisbhuXAdOdAX1+fUqlk0luD93N8l61Nd46w9LMc8IUD6Eyox/0cf3UIfMmVDcNyYLpzAJ3PYZqtsRKC6V7NLP1B54AX2RrcK+2XVDroJLIJshwIQQ6YTCYvt+P29/fr9Xp2nROClceSdA054EUqjd6mZpFzDSuJzToEOYB0pT1KCODlKRY5IVh5LEnXkAPoFRCP2jf+3rd2DQvDZs1yYMo44F1CAG8ZsGPOlFUJm9G04ADS+PQ4W/P3vrVpUWyWSJYDAXLA+2zN3/M5ARLERmc5MC04gHZCPa5zjEajXq/3/XzOtCg2SyTLgQA54JP2jUajaW5uDjAnNjrLgeuJAwg5TGMOq0NwPVU5W5agcABma11dXUzIYc/nBIXXbCLXEweMRqMX7Rv2fM71VN9sWYLFASQhcC+VhpsKdTodu84JFsfZdK4PDqA7Pt3P1gA57CmD66Oy2VIEkQMIOe7HHHibmkVOEDnOJnV9cADJ1jyebPP3tcPrgy9sKVgOMHMAIYcdc5gZxfqyHLiKAz4hh5VKX8Uz9gfLAYLwIluDt6nZdQ7bVFgOOHEAbo3y8vIUO+Y4cY39yXIAZmsekQOnqdl7CNiGwnLAiQNekAN337BjjhPX2J8sB9Adn+53QmE/h0UO21BYDjhxAGl8updKw1sGrK60E9fYnywHkFSaHXPYxsBywA8OeBlzYLampYwfqbJBWQ5c7xxgXwG53muYLd/kcMD7mMPefTM5nGdTnd4c8K5DwN7xOb1rmKV+cjiAJARMsjVW+2ZymM+mOo05gE5Te5StsW8ZTOPqZUmfNA54GXPY93MmjfNswtObA0hCwDTmsLO16V3JLPWTwAEkIWA6E8oiZxI4zyY5vTngq94ae/fN9K5nlvpgcwC9AuJetoZ0pbVabbCzZtNjOTCNOYDuvmHXOdO4FlnSp54DaJ3DNObo9Xp2zJn6umFzDGUOGI3GmpoapjOhoH3DIieUa5Glbeo5gO4hMJvNdPFaGPrBvhM69bXC5hj6HPDyqju7Exr6VchSeE04ANo3HmdrIyMj8MIuO1u7JtXDZhqyHEBSaY+yNfYVkJCtPJawa8gBtM5B6xqwXFnn9Pf3s/cQXMMaYrMOTQ6g/RyPUmlWQhCaNcdSdW05gO5b8zhbY08ZXNsaYnMPTQ4YjUalUtnd3e0ROeyZ0NCsOZaqa8sBk8lUXV3NhBx2nXNta4jNPTQ5gGZrTOsc9o7P0Kw8lqpryAF0yoBJtqbX63U63TWkks2a5UCocQDt53gcc9jZWqjVGUtPKHDAO3JAQsDqEIRCbbE0hA4H0A0eHmVr8MIuO1sLnTpjKQkFDqBbo9zP1uAtA/YeglCoKpaGkOIAuleaaczRarXsmBNS1RY4MUaj8cCBA3w+/957773nnns4P2HzyCOPPProo6+88kpqaqrvjEWzNfdjDnrLQKPR+J4oGzKUOWA0GhMSEp588kmBQCCTydSsoTggkUh4PN6yZcsOHjzoS/Wh8zkekWM0Gtl3Qn1h5bQIU1FRsXTpUqFQyOLFEwdiY2MXLVrkVSRmMpmqqqq6uro87uewpwymBSR8IfLgwYMRERHsOOMJM8hdJpMtW7aMGTygt8aEHKPRyEoIfGmXIR6moqIiIiJCoVCg9sFaGDjgFTw+aXzqdDr2psIQBwYzeVqtdtmyZexowwAVVy+pVLpixQpPjAXZWk9Pj8d1Dqsr7Yl308idz+ezaxtXbHh1iYmJ8SQwQLM1j8hhz+dMI4S4JVWr1XK5XK+thA3gygG5XL58+XK3XPVJ+4bVlXbLu+nieODAAXbAcUWFjy7R0dEymcy1rtFpai87ocxyBtd0WZfQ4cCjjz7KCgZ8xIlrMIlEsnr1atfa9PX9HBY5rrybLi4PPfSQa4NgXXzkgFwu//vf/+5a1z7thLKzNVfGTRcXo9EY4CJHJBKFh4eHhYVxOJykpCQfG9yUBYuJiTl9+jRzdmFhYTExMcxhGHzvvfde1+r2SfuG3c9xZdx0cdFqtVFRUQzNwqsXh8OJjIyUSqXR0dGzZ8+G8FKpVCQSITG3QqEQiURisdgpNbFYjILJZDIIoFAoxGIxTCDFlAEXiAsuMpkM4QESQRNOetZSqRRQAZTQvdRqNVAlk8kCRM6yZctcq9uLbG14eBhka+xszZV308JFq9XyeDynBu3Xz/Dw8IiICNTW1Wp1TExMeHg4l8udPXv26dOnZTIZh8NZsmQJh8Oh5xUdHR0eHh4ZGRkWFiaRSGJiYjgcjlqtFovFYWFhMpksJiYmLCxsyZIlERERYWFharU6OjoaXDgcDgyVkAiXy+VwOAqFIjExMSwsLDIyMjw8XCAQQHgOhwPpA1WQHVCFXAIZc9wiB93g4VEqzWrfTAuEeCIycOTIZDIulxtGmZiYGLlcHhYWJhAIxGLxkiVL+Hw+jEVisTguLg4gAcjkcrkAOZFIpFAoXJGDkAYAQCmr1WouZWBISUxMFIvFHA5HIBDweLzZs2eLKAPjTFhYWGJiolqt5nA4fD5fLBZHRkZGRUUBxmQyGSQbdOR4l62xGp+eGuW0cA8QOXK5PDExEWZK0L6hNUdFRfEoIxQKeTweYABc0CxLJpNFRkZyOJywsLCkpCRX5KBJFIIcggGPx+NyuTA6obySkpJkMhmPx1uyZAmgV61WoyhhYWFcLhdoiI2NhTQBw+Hh4ZOBnKqqKi+3RrG60tMCJG6JDBw54eHh0IVzudzw8HCFQgG9u1QqBXehUDh79myxWJyYmEiXRvB4vJiYmJycnPDwcD6fD005Li4ORjAYyjgcTmJiIqALxo2IiAhw4XK5crkcGr1YLI6KioIpGY/Hk0qlMCgBcvh8vkKh4HK5UVFRUqmUz+fHxMRIJBJAFwA+6MhBbxl42c9hT7a5bZeh7xggctRqtUgkgmUGl8uVSCRqtRo1+sjISJgyxcbGwjpnw4YNaBGFIkIwuVwOQ5BQKORyuQqFAgYQABisc2CY4vP5CBgikQhSjo2NpWfN5XLpWUskEkSVk9eGDRsiIyMD2Qt2u87x8mYbe7It9LHBTGHgyEFICLolLi6Ox+PByiQiIkKtVgOKRCIRh8MJUCQYRGrdIgdpfHo8n8PqrTE3zRD3DWXkwJgDixMYQGDM4XK5fD4fXIIIgAkn5Qk51dXVXV1dTLI19oXdEIcHA3mhjJwJN+UpjjhB5MDJNnY/h6F1hrIXi5zAYeYJOXCa2v2YAzuh7MtToYwNZtpY5EwScpBszT1y4IVd9l5p5tYZyr4sciYJOaArzbSfw+oQhDIwvNI29ciJiYmBrRWZTAaCabVaLZfLQaiNpAICgQA0cbhcblxcXExMDPKC/Rm1Wg2bP0lJSVwuVyQSIRcejzeV8gO3szWQSvf09DDJ1lhdaa8NNGQDTDFyJBIJtPLIyMiIiAjYjpRIJHv37gXFHNAflUgk4eHhiZQJCwvj8XhJSUnR0dF8Ph+8BAIBqM/w+XwejweKArBDKhKJIiMj6VuugY8qzCm4RQ7Slfa4E8refROyqPCFsClGjkKhgF2a8PBw0O/kcrkxMTGgTQNqyyCGBoUdgAc0XNj+j4qKAq2c6OhoSAEUz0BBAWKBFinSnmZu94H7MiCnu7ubaZ3DSgh8aaOhGWaKkQPNXSKR8Pl8aPcweeNwOEKhEDAgFArhxIFMJqMjB1AhlUo5HE5MTAwokioUCqT3CUMNHEBwPdEQOEI8peAJObCf43G2ZjQa2dlaaKLCF6oCP9nmqT25dY+JiZk9ezafzweVGdCXAT1rWJkg9dDw8HChUOiEHFDuBF01mUwGAxecQUhMTIS5X1RUVARl3BIwGY5uL/EAHYKuri6PszWTyaTRaNj9HF+aaWiGmeLT1CKRSCgUSqVSdIBUJBIhOyjCCQQCpAKHNMpkMhm4i0QiqVQK59JAIQ20rQGHAoFAKBRO2VRNrVa7vXUN1jlMsjV2zAlNPPhO1bPPPjuV7SxYvb5UKoVzaaBvOpXCNHoRxGKx2xs80K1RHmdr7E2FvrfR0AyZkJAAHTy9QUwLO8i14WDctSI4Ojr61KlTrjWLZGtMyGHXOa6Mm0YuFRUVUynDvVZNfJLydSseIAgC7YS6R87w8LDRaGRla9MIJ25JXbFixTQddiYJDz4mm5iYmJCQ4JalaMzxKJVm36Z2y7jp5ajVaqdYTuBj0wzlYPCcgaeKRhICJuSwsjVP7JtG7jt37uTz+aHcUkOKNoVCcc899zCIlGG2xqR9w0oIphE8mElNSEhgweMLPmUyWUREhKdXDIDJ6I5P9+uckZEReNWdfSeUuVFOF9+dO3dyOJxrJeH1pdVe8zBisXjZsmUVFRXMdYp2QpmQo6UMc0Ks73ThgFar/Z//+R+4AOCaN9PQIQDuGeVyuatXrzYajV5r07uEgJWteWXidAyg1Wr5fP7y5cvRHWVwU9lP8/uhhx569tlnExISfMEMVDe8sOtF45O9V3o6YsN3mnU/eeM7r1BItJ/jUbbGat8gZrEWlgOIA+hVd4/IAY1PVkKAWMZaWA4gHQKmV91ZqTTbUFgOuHLApzs+Wb01V8axLj9xDiAdAo9SaRhzGDZTf+IcZIv/0+QAkhB4RA4rlf5ptgy21MwcQNo3Hs+EshqfzBxkfX+aHPD1zTZ2tvbTbB9sqT1xAM3WPI457E2FnnjHuv+UOYCQw7TO0el07JjzU24lbNldOYDuIWB3Ql2Zw7qwHPDIAXTKgC/RkYQAACAASURBVAk57Glqj/xjPX6qHPCuK93f389qfP5Umwdbbo8cgHWOlzfb2DHHI/9Yj58qB5CEgEm2ptVqGxoaTKxhOcBywMGB9vZ27/dKazSaysrK0Dm+x1LCcuCac6C6uprptUP0qjuLnGteVSwBIcUBQI7He6WHh4dhJ7SioiIQuuEmgyn7DoTU6yluXV2d6lqYAHk4sXYCciy44Yxu9z21pqYm3ymvqampqqryiBx4J/THOx8CHHPGptb4Xn4fQ7a3tw9MvjGZTD7S42OwkpKSrKysvKk158+f95E8t8G0Wq2/jYUgCIvF0traKpfLCwsLi4qK6urqjEaj3W4nCGJsbAy+vSZ7+fJltyS5dURjjsf9nP7+fr1eH+CY45VoegCCIHDK2Gw2DMNwHPex5CgRt0UNxNFgMKDEJ89is9kCIdI1bklJSUVFRctEjUqlUlCmvLzc9zQyMjJcKfHdxRfkQAsZGRmRy+UbN2587LHHOBzOnDlzOBzO4sWLFy1aNG/evJtvvjkiIuK11147evRoe3u7L63IL+TAmONdKj2VyMFxfHR0VCQS/eEPf3j33Xe7u7sxDPMLPL7Xk48hpyNyGhoaAkROSUlJOmUyMzP9Qk5DQ4OPjHUNxoAcwmEsFsuZM2cefvjhm2++ecWKFZ999lleXp5erzeZTMPDw0NDQ11dXVVVVUeOHHn11Vfvuuuu22+//YMPPtDr9ZDAmAfjF3KqKeP9NPVUztZMJtMbb7xx44033nDDDbNmzXriiSdqampY5Lg2MmaXhoaG4uLiQMacCSOnvr5+wuBhQA7MRIqKiiIjIzkcTlxcnEqlstlsHoBAOuM43tvbm5KS8thjj912221CoXBwcNATfiaAnO7ubo8an6BDMAXIwXEcw7Af3+X67//+75kzZ95www3wSt7MmTOXLFlSUFAAMzcGNiEv5iY1AV+/xpzOzk6lP6aurg4oD+5srb6+vqio6Jogp66uLujIIQjCZrPt2rXrpptueuONN1paWmAChuM4qndXC5r5WyyW1NTU2267bfny5Uh92Sm8X8ipqqpSKpVe7pXW6/VTgBwMw7KyshYtWjRr1qwZM2Yg5MyYMWPWrFnz5s07cuQIcweDGDEBbDBH8R05p06dmjNnzv/1x9x1110rV64cGxsLInIaGhrq6+svXbp0fSAHx/GRkZG33npr/vz5KSkpdrsd1bXvFhzH29ra/vGPfyxZsqS4uNg1Eb+QU1NTU11dzXRTIdxDMBnIgQkYDME2m23Pnj3/9V//BZiZMWMGDDhhYWHgMnPmzJ///Ofx8fHDw8MQhUFmwgyDCfj6jpzHHnvs7Nmzvlfn2NiYyWS66aabcBxnkaNWq51mazCzGhkZefHFFyMiIqqqqjzNtbzyHCJaLJa1a9fOmzevoKDAKSm/kONdtjapyMFx3G63G43G1157DRY2dMwg8CD8zJo1i8fjtbe32+12hB9Xlk0AG8xRmJEDk+menp7e3t7ly5cfP368h9H09vbSl20Yhs2ePdtGGWYy/PK9PsYcgiDsdvv69esXL15cXV2NYZhrdfvlQhDEyMjI+++//9vf/ra5uZk+2fMXOTDmuF/nwE7oJM3WCILAMKyxsXH58uWzZs26gTKekAO+YWFhs2bNuv/++8vKyhgEbn61MF8CMyDHZDL98Y9/5HA4t/tsOBzO0qVLBwYGoMonAznMszWVSpXvMBqNpsWDmbCEIIjrHBzHU1JSFixYUFBQwCBZhtHD6dstomDlMzQ09M9//vPRRx8dGhpCwfxFDtNOKHrtMLizNaDebrfDwoY+tvhoX7BgwdGjR0dHR91y0xcw+BWGATkpKSl/+9vfEPd9tLzwwgs7d+6EwFOPHKVSCeLm9PT0EEdOV1fXHXfc8cUXXzB0lBiGjY6OFhcX79q168MPP0xISEhJSTEYDGgn1LVScBxvbW294447duzYgcZ/v5BTVVXFNOaA3ppOpwvufg6O42azec+ePeHh4Z4GGWYIzZgx4xe/+EVCQsLAwIArePxChS+BXZGDurd9+/atXLkS/fRkcaq89evXJyQksMhxZT5a50D3umbNmkceecRsNtOnVYiZMGNPT09/8MEH58yZ88QTT7z00ks8Hi8iImL+/Plr1qwxGo2eIEcQxLFjx2677bbW1lYAj1/Iqa6urqmpmaKdUGhVOI4PDAy88847aIbGDBK3vjB5mzlz5j/+8Y/29nbgDuo8XOsjQBc6csrLy3/3u9/9fw6zmDKOX+7/33nnnZ9//jmq77GxMRY5ag+GjhyNRvOrX/0qPT2dzjq6HcOwTz/99JZbbklISOjs7ESrX7PZnJOT88ADDzz66KMtLS2oYdDjjo2N2e32FStWCAQCWD75i5yqqqqenh732jdBn61hGNbe3s7j8UAe4BYVvjvCVul9991XWlpKXzt6qJSJO9OR88QTT0gkEqs/prm5efHixXQKQw05er0eaUnqdLoWyriuc9wGg8DoOyMjIyjrHBzHP/roo4cffnh0dHTMxUAvnJqaumDBgpMnT9psNgQPsGAY1tvb+/jjjz/55JP0xQw9JRzHjx8//tvf/rarq2tsbMxf5PgklQ7KbA3HcYVC8fvf/37mzJkTm6S5guqGG26YMWPGrbfeeuzYMSShnzhEPMSkI2fFihXFxcX0CvBqJwjirrvuMpvNKORkI0etVjPI1lzXOXq9PiMjAxY/crm8hTKuyGlsbEQLpOrqagjm9B0s5Fit1nvvvfebb76h9zhjDgPyzDvvvHP79u1ut8hB/qTVau++++59+/a5newRBGEwGBYvXnz06NEJIEepVHqfrQVFQmCz2ZYvXw76AWij0xUMfrkgidzcuXPb29uBsR7a/8Sdpx1ymGVrwUWOnjKNjY0AoaAghyCIxsbGm2++uaOjAw0mDtSQ/3EcF4vFt99+++DgoKedPVgpbd++/cEHH/QkLcBxPDo6+pVXXiEIYmJjjnupNEgINBqNUqmceLtTq6HMdrv9hRdeuPHGGwNZ4dBxBbCZRZmlS5fCmDs2NhYIqW7jukUOQRCj3gzU+tSPORNATnFxcVZWVnp6uu9jTmNjo0KhyMvLy8jIyMrKCi5yvv322/vuu8/tWAFQWbly5SuvvOJ2REIYw3FcrVbPnz//8uXLbhE4NjZ24MCBe+65B8Owzs5Ot7Xv1rGmpga0b9yvc+Btaq1WGxTkEARhNBqPHTu2f//+O++8k46BCdtnz569Z8+eQ4cO1dfXIy67LWogjm6Rc/bs2V96M/v374dqnuLZmo/IycnJ0Wq1zc3NVVVVarW6qakpNzfXd+Q0NTWVlJTANC8/Pz9YyIE1zJtvvvmvf/3LU3PHMOzPf/7z9u3bPQUA8ECTW7hwoVwu9xSyrKzs17/+9Y96xv4ih2k/Z2RkZGBgIFgn24AjoLr3pz/9KfAJ2w033DBnzhyDwQCCacSaQEDiNq5b5AAkUKHcWlD9hSZy4MBoZmZmVlbWhQsXlEplXV2dQqEADDCvc1QqlV6vLyoqyszMzMjIKC0tDRZygLF//vOfN27ciOoUOIm+f1wzP/PMM0Kh0FMACEkQRE9Pz6233lpZWekpZHt7+7x58xoaGvxCTjVlenp6vNx9E5QxBwoDClrLli2b8DhDj3jLLbcAciBx+Hbb+gNx9IQceqYM9pCdren1+tzc3NLSUji8mJ2d3dLSUlNT00IZBuRUVlZqtdq8vLycnJzGxsaCgoLa2lqIFax1ziOPPLJ7925PXP1xMFm1atWLL76IJhpuQ+I4XllZOXfu3J6eHrcBxsbG+vv7Fy1aVFRU5O86B6TSHpFjNBo1Gk15eXkgLc+JaJvN9qc//YkOgAnbYcxxSj8QUt3G9YQct+MM3REIC03k5Obm6vX67Ozs8vJyvV5fU1MDxzlbHMYtcrKyslQqVVNTU3Z2dm5ubnNzc0tLS1NTk84hyw4Wch5++GGRSORUs+gnaOXMnz+/u7sbObpacBzfsmXL448/zqBlPzQ0dOeddxYWFk4AOUyyNUBOUGRrqGDXB3JkMlmEN/PDDz94XefgOP70009jGBZEXWmvUun8/Pzm5malUpmRkZGZmVlYWJiZmZmbm5uZmVlSUgJ4KCsrAxk0OhPa3NxcX1+vVqtzcnLy8/Pdau4ECzmPPfbYp59+6mmKRRCE2Wzmcrlr1661Wq1ug+E4LpfL582bJ5VK3QaABmkwGDgcjkKh8He2NhW3RiHMgIUZOUi5EyzMy6FrOOaYzeY6b6a/v98rciBAcM/nMCMHhgiFQpGRkVFVVaVSqcrLy2GSVltbK5PJsrOzKysr9Xq9UqksLS1taGhooYxer6+trc3MzLx06ZJerwdHp+/AkQOD9vPPP//uu+8ytHiCIHJzc2+//fY9e/bQ98rGKEMQRFNT0/333//CCy/AXqqnpJqamm655ZbW1tYgI2dgYCDoemvMyIGZmy+wCQsLu4bIgRry5Zt5toZSCOKYwyxb02g0MMjU1dW1UAbU4fPz85VKJdizs7NzcnLq6uq0Wm1JSUleXp5cLq+qqsrIyJDL5TqdDm3gQAroO3DkQFeyefPmp556ylNzH6MMjuM//PDDwoUL//nPf+bn5w8ODtrtdqvVqtVqd+zYcccdd/z73/82mUzMiZw7d27hwoVms9kv5FRRpqury+M6B+6+mcrZ2g033PCzn/1s+fLlb7755jPPPDN79myGYec6QA7M1qbsZFtTU5NMJsvJyWlqagJgtLS00HUIQLam0WiKi4thowZE1Tk5ORkZGRUVFU1NTRcvXpxUHQKCIDIzM2+77bbh4WEAidtvu92u0Wji4uJ+9rOf3XjjjXfeeeeDDz64dOnSm266acaMGffff39OTg5cPOA2OjjC7Tk4jvu1zqnxeia0v79fp9MFUbYG0xIGCcEvfvGLxMTEoaEhHMetVqtUKr311ls9gecaIic/Pz/am0lLS/M6W5uCUwY6nU6lUsEULjs7G5YosMiBtQodOWg/R6/Xq9VqGENaWloqKipycnJAHJeens6MHFgOuRW3MDsijU+DwTBnzpyioiKnEQN2IDAMq6ysfPnll+fPn3/fffe9+uqriYmJe/bsEYlEe/fu3bVrl0AgePrpp+fMmfOHP/zh66+/tlgsoFhNTw32sh9//PGtW7f6q30DYw7TDR6wnxMUvTWEe+bZ2hNPPDEyMgKTXTgSuHHjxhBETktLSzKjOXz4cG1trVfk2Gy28PBwu90+SbO1xsbG7Oxs2K/MzMwEGbRcLofVPwNylEqlTqeTyWQgMyigjEajgYjMyAn8Bg8Mw55//vnVq1c7aQmAbEAoFP7qV7966aWXysrKQEUadG1Qs4GfXV1dP26UL168mMvl1tTUOB1IIQhCqVTedNNNoIjo15hT7bhXmkn7ZorXOQKBgC6kx3H8/PnznjREr+GYgzoCrxa365wHHnjgNcr89a9/ffbZZ4MrIUDrnPLy8sLCwoKCAr1eX11dnZGRodFoqqurofWjk21ux5zS0lKVStXQ0JCdnZ2eni6TyZqamioqKqYGOQRBpKamzp07t6OjA3EYzkK//vrr8+fPP378OH0AQWFcLTqd7vnnn1+0aJFSqaQf1/kRSJs2bXrqqacsFou/Yw66Hdej9o3JZNLpdFO5zklISKBzBKa8M2fOdLvnM32R88wzz3xDmRMnTkDNTdKYc+nSpZKSEph6AVR81/jMzMysra3V6/WwXdPc3IwgN9ljDowtDzzwAPSkMJjAnQR33303HKd3BYlbF0gqJibmN7/5TUNDA7QugiBaWloWLFiQlpYGPbVfY04VdSaUaT8HbvCYytnadEHOj8q8u7yZ8vJyt7O1NWvWwNyaXtOThBwQiBUWFubk5BQWFra0tPiOHMBJbm5uC2Wm8pQB8O3EiRMLFy6sq6uDowRZWVlz587Nzc2l9610HjLYzWbzU0899fTTT8Oax2q1vvHGG1FRUdBt+TvmVFPGy61RINdnXtgx+zqVh3mdM12Qo1KpPvBmCgoKoAUsXrxYIBBsokx8fPzChQsbGhpc2cLMRt990WytgrpXura2tqysrLKyEoYOf5GDdkKnGDkwg33uueeioqKsVqvJZFq6dGl8fDw6iOXEQOafOI7rdLpFixYdP34cw7CUlJRbbrnl0qVLKJZfY041ZTxKpYeHhyfjRvbrAzmI414tBEEsXrz4q6++2k+Zb7/9trq62jXWJI05LS5mGiGHIIiOjo677777zTffTElJWbhwocFgcJIZuHLSrQtcUbZly5Zly5ZVV1cvXLhw+/bt9BW1X8hBN7IzSQiC/paBzWZbsWIFWvSjTU+4lHDbtm1OyziZTHbjjTeCL9IwgEvY5s6dazQanTjle9/sY0i63lpkZGRhYaFTjsw/cRxftGgRmhV4Cswix/WmQpCGFRQUzJ8/f968eStXrmS4Z88TY8EdTok2NDTMnTv3N7/5zdtvv+10mNQv5FRXV8OZUI87oSaTKej3rWEYlpiYeNNNN/0fyvyMMmC//fbbS0tL6dJDuNT0/vvv/zll6IF/+ctfvv7661ar1YllPuLB92B05MTFxf3lL3/Z4o959dVXly5d6nVqziLHFTlQsxiGXbx48de//vVLL70El7x6ZaZTk4BjpBiG5ebm3nLLLf/+97/hMCk9mF/IQTuhTMgJ/J1QOn1jY2MYhpnN5ubm5oarjVqt7unpceoJoI8xGAxqtfrq4A1NTU1msxmkLvQsfIeEjyHpyLFYLAcPHtzqj9m5cyc66U2n08nOIscTcmBz5tKlS7/73e/+8pe/wNsWaOvGiY30nygMQRBDQ0M7duxYsGDB2rVrR0ZG6PM0iOIXcqoow7QTajQag3UmlF6kSbX7iAffg9GRM3mUTwZy5HJ5o4uhFxx5IkdXF7VazeyIfBsbG4Oit+aWyTiOt7S0/O///u+Pambr1q3r7u622+3Max7YSR8dHb1w4cKyZcvgsg5PAga/kOPrfk5wpdJu+RJER9QIgmWZpsiRy+VZlMmcKpOVlSWTyYJya5Rre4A5/I934pw8efKPf/zjggUL3nnnnZKSEovFQh9bkN1ut+v1+u++++6hhx66+eabY2Nje3t7IRG3kz2/kAM6BF6k0kHfCXVlSnBdggUYlE5ra6th8k13dzfKMXBLfX29SqWqqqqqdDEVFRV0twrKVFZWOrm7damsrCwvLy8rK4PATlGqqqpqamomCTmokRAEMTw8nJaW9re//e3WW2+9/fbbIyMjV61atX37dlBa27Rp04svvnj//ffPnj3797///datW3U6nev0DCUIFr+Q432dYzQaA9f41EytCbzZTfcUYD+ntrYWJhVKhykoKEhNTT1//rzDwf3/VMooFAq33mfOnElNTS0pKXHyraK21VUqVYDIgWcdmL/RRZE9PT0ZGRlCoXDlypV//etfo6Kinnzyyeeee+7H5w8OHTpUV1c3PDw8Ojpqs9msVitzmh0dHb7XezVlPO7nBOttat8JCvGQEokkMTFRJBLJZLJASBWLxYFE9yVuQ0NDXV1dbW2tSqWqoUx1dfWFCxcAFUqlEk6wZWdny2SyioqK0tJSUAyVy+UQJiMj49KlS+AOwbKzsy9duiSVSlNTU/Pz82UyGYSB9GtqagA2gbx26EvRQiGMlzEHdkIDn615KmpcXBxqggKBwFOw0HHn8XhCoVAikURGRioUigkTxuPxJhzXx4ggh6yjGaVSCZBITU3Ny8uDoQNcAAyu9rS0tOzsbBTLk0Uul9fW1kJWoQAbsVgsk8mkUqmPvJpAMFjnMOmtwfmcADU+PVHG4/EQcqAxKRSKxMRE6JKh8CKRCBxPnz4N6ezdu1ckEnlKc1LdEcExMTEw/vB4vMjIyNOnTysUCrDHxMSo1eqYmBgej8flcmUyWWJiYlRUVGxsrEgkioyM5PP5UVFREIbP508qipAcv76+Pjc3FzX9tLQ0QE56ejpynLClpKQEADPhwwU+1lpkZCQwFpjsNpZYLObxeAqFgs/nq9XqSWKv99laf39/4PetuS0hlEokEokpA42Jy+WKRKLY2Fhol3w+XyKRgCN089HR0RKJRCQSMfDOU3aBu/N4PD5lIiMj1Wp1VFSUWCwWiUQ8Hi8xMVEikajVaqlU+uPBY6gwqVTK5/ORF6pFLperVqsjIyOlUmkgY5fvJaqvr09LS3PFRl5enqsjuKBBSSqVnjt3LjU1lT400WMVFxcDRH2nZ2IhEQPBAiiSyWRxcXHAZ2hUUVFRMpkMWgiEpAeYWNZOsWC25v1V9wCl0k65op88Hk8gEAgpQy8ttDzU4KCdxcTEyGQyLpfLo0xERARKZ8osMOZIJBKolcjISCA+KSmJPvNE1fbjkX06cqB3QB2hTCYTCARcLneywdPQ0FBeXg5tPTc39+zZs6jd0wci5IhCgsXruJSfnz/Zow1UMY/Hy6EMNAkOh6NWq8VicWxs7I+7qNCrisXixMREtVoNYaDKYPyBmUJQWguarXnUW5vsMYc+W4N29uPD7jKZjN7g6MhBvc5ktza3/EWzNRgAgci4uDihUCiVSnk8nkgkAmojIyPFYnF0dPTp06dRFyBwGIA9j8eDqQVigttMA3dsaGjIyclJTU29cOFCZWXlxYsXARKpqakIOWiEQV4IMKWlpfRgMPKcP38eQqalpSmVyqlZ3sBsTSAQAMeA1Yi9gBlX5MBsOYYyMC8InKUwW2O643NgYCDwUwaeCOXz+ajRQK8QGxsLQ4pMJhOJRFBO6KqBX9BAobP3lOzkuaNFp0wmA+hKKAM5ymQyoVAI7nK5HNGPAqvVaggPpYYyTkEXUF9fjzZ2lEplZWWlnDIKhaKiogLslZWVxcXFZWVl8LOwsBCAcebMGdj8KS8vLy0traysLKMM7OrAhTgqlWrCFw/4VVmo34RYgByJREIfUlyRA3NmtVoduFAUUQsXCzPthPb397e1tdXU1KA4rGXacaC+vh72dqCnBJ0rpVKJLLAzU1lZCbgCaMF907CrU1VVBWFQAAgMW5+1tbVTgxwnyZBQKIS6EAqFIPaECQsIk2DOlpSUpFarIcCGDRuCVXcgf+/t7TWbzfQJWxj6MTg42NHRUVtbG6ws2XSmngP0vR369g48dglwon8DogAtEAZ2bOhhwI72cKZGQjD1rPOUI9wlZDAYPN5DMDQ01NXVNTU9iicqWfcAOQAqBWi/BSy1DgMbpo5f5H86ulQqFdqroYcBO0pzaiQEAfIhiNHr6uqam5uNRiMTcrq7u39qfAkii0MkKRgT6N/1jAbBqa6uDgJCXNdIP822UV9fr9Pp+vr6vCCnsbExRFoAS8ZkcwChC4HEFRsQZrIpCeX0GxoaWltbTSaTF+Q0NTWFcjFY2iaJA66YmaSMpl2y9fX1ra2tXmZrPT09TU1NCoXi4sWLGRkZZ86cOXny5LFjxyQSiVgs/t5hDjoMODh+kf+///57+Im8kMuhQ4foAZyC0ROBkOBy4MABlAKyHDx48NChQwcOHKAn4qBunADk5WRxogHRCWmiRCBxyJFOA0oNEXDgwAFE8KFDh+gpILuTBcIj+oEklAjKAiz0n0APnQ90X7odhUFZo/SBSHriiCcQGHnBTzorkBdKDeK6ZofSRFEQJd9//z2wFMVCYVxjofQRGfR0UER6oVAA8P3+++/pvigKCoYsEokkOTn5+PHjoGaek5NTXFxcU1Pjfczp6emBA9V5eXkXLlxIS0tLSUmRSCTffffdN998k5SUtGfPnt2U2eMwu3fvRo67d+/etWvXnj17du3ahex79+6lB4DwyBEsKAqE3Lt3L+RCT9yRIfmfHgAyolMFNNAzhbgoU5TsLsrQQ0I6u3btQllAWVD6KK4ThYg85I44gCiENBFznFgBZDgRQ/9Jt0Nc5IIsKHc6PeALLvQAqCx0PkBguguKAhaUmiufRSIRStMthaii6b6IVKhZ17JAvk4V4VQcOrcRw+kEI9ogIhQQAuylzFdffbVv376DBw8eO3bs1KlT58+fz8nJKSoqqq2t7ejo8DJbMxgMra2ttbW1CoWipKSkoKAgNzc3IyMjLS3txIkTx44dO3z4cDJlxGKxhGbEYvHhw4fFYnFycjJ8A3wl1GBFDwwBkAtYDh8+jBJz8kpOTkZeYEcEIC+xwyAvlDu4oJ+QOEQEO6IWSAXywI7ylUgkQCHKEZUCpX/48OEjR47QU0PUAnUoNRQGpYYCOMpB8haRR/elk0FnFAoDFYQIRgkiYoBgVE1ADPqGfFEiQDOiBLEXZZecnAwkIWJQRqi8dMaiiKhGwIJSpueI7PQ06XaUBTgiOpE7ZI2YAAGSk5MPHToEURCfjx49euLECalUmp6enpOTk5eXV1xcXFpaqlQqm5qaurq6+vv7R642V/ZzhoeHBwYGuru7W1pa4M6N+vr6urq6mpqaioqKsrKyoqKi/Pz8ixcv5uXlXaQMWJy+8yiTm5sL7siSl5eXn5/vGhiScvqmx8rNzc3PzweX3NxcREBeXh78dHVEuSBiUCxkQVlA9IsXLyIXehhEGKTp6SdEAZKcQqJkndzhZy5lkBdKAbmglJ0oBHc6W1BSqERALWIUWCAYfKOSIguKC5WFokBSqCzoJ7Kg4gCd4E7/hrpA4ZEXIttt2emEIZ4AGZAgOKK4iC30NoPCQKYQEQoI5S0sLCwuLv5RCx7e50IaRhqNprOz02AwDA4OXg2ckSvIGRkZGRoaMplMvb29PT093d3dXV1d8N3R0dHW1qbX63U6nVar1Wg0zc3NGo0G7FrKaDQa5EsPAL7gpaNMc3MzioLSgaRQmhrKNDsMShDFhYgQXqfTQXj4RlTR6YGQyIv+U6PR6PV6oJ+ejqsLyh0FQ2Q4JYjKRacN7EADiggWnU4HZUUp0xlCtyNWoBxRXlqtFux0OukpA9sR8xE9iBhIE76BJ0APh4sbJgAAAVZJREFUStApBUQD5ILYiwrlxEO9Xo+SQnnRaaazi84KxAGUo1ardUs/8AeVkU4J8AfxGSgBCvV6fVtbW3t7++XLl6HZQ8vv7e01Go0DAwNOgrWRkauRM0yZQXdmYGCgv7/fZDIZKQN2+GmiDLibTKa+vj6j0djf3w8uTuFNJhN4obgQuL+/HyLCN0oNJU4PT08ZuUPKKHGn1BBhEL6vrw8siDyj0QgpgDudfqABhQevfsq4Fgf5IsoRN/r6+qCYQAwEQJQAwU55oUJB7vQ06XYgHjJySha8EJ10xjqxERWQ7o7SRPWCgqE0Ec8R8fSmAqWGItPLiDgMHEDFoTOH3sxQmsB5VGRUQOSCUoaCDAwM0NNEpaOzFNIcGBiAto8sg4ODTtesoZHnqjEHubIWlgMsB5g5wCKHmT+sL8sB9xxgkeOeL6wrywFmDrDIYeYP68tywD0H/h9ZLt6FUOm3swAAAABJRU5ErkJggg==;" vertex="1" parent="WIyWlLk6GJQsqaUBKTNV-1">
          <mxGeometry x="227.29000000000002" y="10" width="136.45" height="263.96" as="geometry" />
        </mxCell>
        <mxCell id="XwaOPnEjYc4gbmmwaDbT-8" style="edgeStyle=orthogonalEdgeStyle;rounded=0;orthogonalLoop=1;jettySize=auto;html=1;exitX=1;exitY=0.25;exitDx=0;exitDy=0;entryX=0.006;entryY=0.277;entryDx=0;entryDy=0;entryPerimeter=0;" edge="1" parent="WIyWlLk6GJQsqaUBKTNV-1" source="WIyWlLk6GJQsqaUBKTNV-3" target="XwaOPnEjYc4gbmmwaDbT-7">
          <mxGeometry relative="1" as="geometry">
            <mxPoint x="400" y="83" as="targetPoint" />
          </mxGeometry>
        </mxCell>
        <mxCell id="XwaOPnEjYc4gbmmwaDbT-9" value="" style="shape=image;verticalLabelPosition=bottom;labelBackgroundColor=default;verticalAlign=top;aspect=fixed;imageAspect=0;image=data:image/png,iVBORw0KGgoAAAANSUhEUgAAARQAAAISCAYAAAANwTD5AAAAAXNSR0IArs4c6QAAAARnQU1BAACxjwv8YQUAAAAJcEhZcwAADsMAAA7DAcdvqGQAAF7QSURBVHhe7Z0JgCVFff9rZ0+OvblBRbyAxEA4lWgUxFvDldOogDExQYQQL5D8RWMEr4jKYYzKsd5gOGKMRpHDEwwR8ECNyiGKINce7LLHHP/+1HvftzW13f16Zt7MvF2+n6Xo7uqq6up+Xd/+/aqqe2asXr16JBhjTA8YaC+NMWbCNLZQhoeHY8iZMWNGGBgYiMt+ZWhoKKxfvz7MnDkzzJ49u6/raszmTCNBGRkZCStXrgwPPvhgGBwcbMe2mD9/fli8eHGYO3duO6Z/QABXrFgRA4KCkGyzzTZhyZIlsb4WFmN6SyOXB0FZtWpVeOihh+LTnqe8Qj9bJ9T5nnvuCRs2bIgCMmvWrHD//fd3zsMY01saWSg86e++++74pN9ll12iRZKC4DzyyCMd62Xt2rVhq622Cttuu21szA8//HBYt25dbNBYCOyD4thxSflr1qyJ+8lDeeyj0ZN+6623jsIFWBoqb86cOTE9yzJRQzwoZ7vttotlUO4vfvGLmHa33XYL8+bNa6c0xvSCnggKDf++++6LLhFWC+BW0GBp1IgN/ReUw/4ddtgh7vvNb37TERLECPEhnjQIB9us77jjjtG1ohzKQ7AQB8pDKLbffvu4zEF0QJYUx7j99ttjXTgPC4oxvWVMozw08OXLl0fxIDzwwAOxkdO42ce6BADLQSxcuDDsvPPOUYgQA1wOxIAGL2tmp512iqKAm4JAIRKIEmnov0EMECwEaMGCBZ3ysEAQurxvB3BzCORBvH75y1/G4y5atCjW0xjTW8YkKDR0RINGT8D1QEgAUaHxIgI0eNYlFDRg9pOfJSLBkoCVgOAosI01wjqCwTZigfDImiEOi4PyWRKvepTBcakrdcbyQVSMMb1nTILCUx1xwGUhLF26NDZq9V+w1DpigQhgyWAdsKRRS1QIkPd9sK2OXi1JKxcIQcMy+u1vfxvdH1kmKq8MLB9cnMc+9rFR6GRZGWN6y5gEhb4HBAR3RqHKdUA4cEVwU7AqsFqwOMg/HhAWAh2wdNRixVAm7hWdrsSnYIXgKuESUW/ycHwsKIQOgaoTIWPM2BmToIwFGjQWhfpUsGZYpyGPBwQD6wKrBSFDRLCWBGKTg5ip4xfxkMtGGYiMMaa3TJqgyJqhEd91113hzjvvjG5KWedpExAjrAuEgREnyrvjjjuiK6XRnBQEBiuGfb/+9a/j6A4BqwkhSl01Y0xvaDxTlv4PXAWsg9xtwRrR3BB1yALbjOhgIchdISA2dLrSuCmbPAgG6Qj0eRAolzTk5bhYFrgxGvVRPGXlLg8oP52xWEukp1xcH9XRGNM7Gr/LMxFo2AhHr9wMyqJMBAKR6cZY0xtjxseUCIox5tGBH9fGmJ5hQTHG9AwLijGmZ9T2oTAhrWz0ZCIMj7RmyY5sGAxh1Yqw4bf3hQ333BtmPLQqzFi/PgzQgVscd2DenDBj6dIwsNNOYWSH7cLMbbcu1G9yOlX5xAEjR8aY1hQN2j6juYyKjoVKQWFUhIInOrw6PDwSeHNmxshQGLn7nrD2xpvC2m9+Mwz94NYw8qtfh+E1q8MAozAzBuJyZEa7OsViRvFvZOaMMHP+gjCwx+5h1v77hTnPOCTMOXD/MGOrrdkbR24IE8GCYkw5CItmpjehVFCwIJiQRmFjVSgoZKG9FsL6e38b1l56WVj35a+EkdtuD0OPPFKIS3vnWEE3CnUaWLgwDPz+U8NWRx0Rtnrh88LAnEL0in0zRvhfK+lYsKAYUw9awOx0lnWUCgrWCVPkNQFtrAwPDYd1N98c1l7y7+GRK78YZjyypjjSxKyIMoaLImfttGuY+2fHhHlHviTMecxjwsDMsbtEFhRjuiNRQReqvIJSQcE6YVYs/RW8g9MEChkeHgqDd/wyrPjAB8LQF68KI0OD4zEYxsXMBduGea/+qzD3r48Ns+dtFQYKF6opFhRjmoGo8KWBqr7Mylan2aVNGCLt+g3h4XM/Gh486s/C4H98aUrFBIZWPBxW/8sHw0MvPDKs/dLXwmBxfM7BGNM7eOVFr8yUMaEhkyg6RRi54/Zw/x//RXjk7LPDjOUrCiHh3xTDAYswcnthIZ14Ylh15nvDhlWrLCrG9JjCq4ntqqxtlQpKk1ETihoaGQ5rvvjlcF9hlQzd8v32iE7rQNMW+Dc0EtZ87ILwwJF/Gtbf+csYb4zpHeoSydtWqaCQqE5UsEqGhobDqvd/KKz8+zeGsHxlTN9PYaAII7+4LTzwZ68Ij3zzO43dN2NMd3iDH1HhLf5UVCotFBKVNcLCCAlDa9eF1ed8OKw75yOFU9X68ln/Bc6jqPBv7g3LTzgpPHLdN6IFZYyZOAgJfSmNBEWNMhcULBPi1nzk42H1Bz5UtNjCkuFf2ypoErAcgCqMJQB5y8qsCnSqMNgzsnJlWFmIyrrv3mBRMaZH6FtHqU5UDhvzqUR6dPm4s1g/PBTW/OvHwur3nh1mjNeFKBr6Nmf+U5i7687tiGYgcKuuujYMfuJT7ZjmMF8F6RvYfklY/OHzwtYH7Nfe08LDxsaMnXvvvTf+VQv+5A0z6mmjlTNl9YX6VFDW3HBDWP7nrxz/TFcoTIYdrvlymLn749oRzcCyuO+jHwsP/PO7wkKm6Td4p4dqplWlw3j2E58QFn1qWZi7w3ZtK8aCYsx44NOqCAp/I0vv/JW2SkwYREXg6qy74/aw8sQ3FJZJS3DGGybK2kJYlheWkupYFeJoU/YPIRz8v1+EB0/+hyJ/UUaRzhgzfmiHGB6i8jGvfohWAx0OK8/8lzBy3710S3T2jSe0Cm8tmtARifY6Rawrqr0imbi2yTEI8SDFdvsfBZAeoRn69rfDyksv6+Q3xvSGWr8hdrYUje7hK78Yhr5yVadRTiREGrbjTnpQVuJGhsLawu1ZEa2MTS2V3DqJk+8IrSKK5UB45N3vDxt+cXuMN8aMHbWdtPuhVFBIQOBpP7z64bD2zHe3Gm57/4TBeOhC14Ze1GdtsVhRiF7HdSnKpQN2ExIxERsefDCsvODCMORRH2PGRfQGMkoFJT7l8Y2KsPLTl4bB++5r7+kR3bSim5iIItm6IqwaHgx4cZuMOxX7RgrB6JSG51OcMYHUj3z2c2HDT/8v7jLGjA3aaS4qlYISWbEyrD3/X4tErb6JXoRudBMTitgYOKGR8EhRw+VDTLBpJ1KfSVtK4lFbURspCiiMnLDirPcUFk47zhjTGLVVjA+17VJBEeuvvz4MF6IyVTS2TKJEtEIhKVE41hfL5UOM/rT2xLLaxfHdJULc0YbdM2YMhLXXfSNsuOOOdqzZnGE6+A033NDeMpON/s4WYqK2WykoMcHq4tlPuyzWexUmCkWk5aUdsOsKa2VloSgb6O9BREhPSISkQxGJO8S8mMGbb2pHblnQuE499dQYaGwpis8b4EUXXRTjzznnnHZMPVdddVVMf/HFF8ft9JhNOPPMM2NaypkoRxxxRHjlK18ZLrvssnbM1PLjH/+4c+759d4Sof3lXkeloMQ3CWODo0lOLhKHsdCxOlKKMtaGobCC79cWZzZSCGirvyShOMxIp+eW8yusmqFNel+2CHbbbbdw+eWXx5A2Mm58xRNSzj333BjHpKUmqCwJAvnKyq2CfKSlnImy6667xmUT13oyYHKkzn0sEyUR8cMOOyy84hWvaMdsPqRzUKDW5Wm5COV9IeMNOWMVklhEu5iqnBsKpVm1oTjRZMinJVos23EIZREQzfgt2i0QGpgaWdpgU6vka1/7WnutlUZP1uc+97lxuTnxiU98Itx4443hqKOOasdsHnDNEeKmIt5PaMhYbbtUUMoafimxgRaBhtk4FK5Gu/yxiUnLvUkD/2IlsjAS56kMh+XDG9gqoorjxVDsjpCGwBr1aUdvgTznOc+Jy+9+97txCek6T1LdyKnoHHTQQXFJ3Gtf+9r4BCVgzk/Wja8n9ZFHHlnqcmFl8RRP06SuBXU74YQTOtYY5ZGebZWtc8hdEspKy9WxOPcqsK5UH8qssko4NuWq/PQask/WHHVSfQV1yfPmdZ9u0Au15VJBSRt6q+FtGmI73XbbMPegA8PcAw9qHOYddEAYGceX9Gnzs5ZuFxYdfHBYXIQl7cB2HhYcfFCYXzSIuUUYOWD/MBD/FAglEIqKF8LGsvX/LVhNCmRppE9ACYpEQ+5KGs+fTSA9Nzj7aSwy6bmxey0qlHvWWWfFchExXC/6VwQN67TTTuvU8Ve/+lVMg4AI9hFUt5/85Cdxm/4dlU3gWGm+d77znbGs9NgE8qYim0KjR2x0PMqkfjmUzbGpL9eUJWkRBqCOqi/XN62/6qW81CWv+3QiLVDnLFRaKBoKqgq0w63+8GlhyaWfDEsvaR4WfebiMGu7pS1RakBHwIrjbXfMUeHxl35mdLjk05uEJ3xO4VNhlwv+LTzEHw2jMP6HlVSUN1yc+pYuJrDnnnt2/qYKrg6BJ9xee+3VcQ24idPl4YcfHpd6GpIOV4JApyc3Pg2811x99dXhpz/9aTwGIAQcnwZGw4Lzzz8/prvyyivjeVFn1bsKypA7pLKVh7KXLVsW11/3utfF41N+lbUh1AmNS0m55JNAp3Bs4jk+dab+wPE59rve9a5w4oknxjjKohzqAcpLPoKugfJON7QjtKDruzxKGB/hNbSe8c2J5bbXu0FaQhVl+zeJY73wZ9aNME+Fd38KR2m4JSZxd/Gv5TptuSxYsCCKB/A01BOXG1XCoRtUN+nBhZUHaUNFQAjc5JDu6wbmeh7yBkFd1N9z3HHHxSVwnFtvvTWucy6sUw8sBKWXhVUF5y+rK2301EFlgwSWcrv1w3At4dhjj+0IdlpvgWAgIhyLOqfuTDeUl98M1yjt7+oH1H+StrlSQRG9bGp54x8vm4hGQVncaJj81upT2VAoWmFjxXPbmGPLtlTSfhTdlDRgGigNjKdx+sTFqkkbPGa23ADWIReEiSJxgHSdr4JJxKin6kFQo+5mTajBA+ecorIhPW6eLiU9Xlp2ml8gfgcccEB0j1KXrQlYiMqL29RNOKea+K5fRqXL00vGKiZjTV+GyuD/w3xzoRCNtcXpMk9lsNie+BE2H9SPwpOOG1pCAlpKKLRN41Bj4SmJKZ6HpuBC5CFvfKlApf0WDH0L6l1WD57k4yUVBAkU1Akm9VC+NB19HSm4lwgfyOVi2YSvfvWrnd9Eec8777y43U+ks2Sh3uXpAb0SE+LL9nVLj1PTiiAuhPVFWDk4FAWFIeSRwh0qL2HLgcabNuDU7Jd7o6duOlwsV4mnLA2HpznruCx1ox/jgcbDE5hGmXZuUgesKRowdeT4QH2YyEZdJuIKcP4SBywCRIBjqDFXoWuzbNmymAcRzDtlJTYIEOk5TpnLo+NzfSmHpSwniT9pxmLdTAV6gTil3kKZYEurauxV1IlDjgSjjNGmGOeysQOWHGuL/68oRGW4EJRoq4yxnpsjcntAfSegm1WkYsOTHyHiJqfhYn7zxKWhHH300e1UvQE3C5GinrJQ6JykbjQqdVRy/Kc85SmxPrIoyDte0rI5Lp22uH/d+lDe8pa3xLohcuRh5EsiI1IhPPTQQ2Ody4Rq7733jkvSUQ6ik+blupNXbmk/kYvKzNNPP/1t7fUONEj+tvH6H90a5lxfrYqznrRH2OolLy7tgZhsMSkjjWedEx0ZHAz3XrgsjDzySEcf2UdfClP05wzMCAN/cEiY8cQ92nu3TPju57p16+JNjxjQkAT7uHmxTp75zGe2Y1uNTeLDN0MRF7bf/va3d4SHT4Xy+T8aBXF6ssqy6AbitMcee4RjjjkmHpsGhEC85jWviR2eYt99943lcQ7UizQveclLoujx93ZBZT3taU+LS+rCeWGFqLFzT3AMtjlfzouyuSacH3Uo2kQsS+5hWg/BNXvxi18cyyIN+V//+teH+++/v1M28UrDcagH1y4/Psdlm3Oj3lxL6kReLDbKIS8ipt9QeacT+reo27bbbrvxvZ66j1Sv/MwlYZuzq4cH577wOWHxh8/fRFCqGnwVdenL9lWlJ177tBwuzuP7f3h4GH7ggej8tL6dgivUMs5mzhgOi099Y5j1/OfFbfPogsbNkx8BwVKRa4j7gzWBSDbt93i0cdddd3W+KTtv3rwYVz/KU9Fw6xhrnqr0xJfta5I+XcYwPBKGOt+QRf5a/SYEpunTr2IenfCExRJBPHArNPNVrknZULDZCBafho+hUlA6jbLmn+g03HaebnRLXxZPHK5YmldxebzSx2URWkLS6keJ2+34VopWnHn0ggWCO5EOl9OXQ3za92RGg5Co7YnKTlkSDcyIn1aq/Dce0oOXUbefeinUMaoMVmPy0Xm0VUhQe808mqGfhNmoGtZmqDztoDblSCtEqaB0EnTVjNGFTRb5MbSdxlfVoyUYSbpkyQhPHOUxxowZrJPU3YFKl0fKUxfGSrc8Zfs3cWfS9Tad9SSe5ca8RTkzEI8ivh0KR6lYKl9rYYxpTvrFNlErKNFEYVkVRmaEoaIxNgmDhKK8wXYDF60Gv1EIQGJAEOwdLP4/VNR4GN9tYEYMQ0WZw524gY1fKijqNzIws6hmcdLF+nBibrXEpH0cjt2KNlOMvtamoWazeZG3UagcNuaPID/82c+Hrc/+UDt2U0bmbxNWL1wU1hcNtmi+7dgyikbbbs8c/gnLLg7zHrvbKBERZXHAn/F48N+vCL85h7c10cFWupg8fo6gZVG15sBC64DDxbmsveuuYqtVQ6SEsgRrS099U5j/Qg8b16EZnsx/YG7HRGESGZO4gM7PLaW/gmFovXPTq2vVr2jYmD9XrDkxtfNQVn320rD1+2sEhQZchIeGhwrrQU14NBSeHmBGYVXsfe1VYfbjHtuO2UiVmBBPuPdjF4Zfv7P13oZSdpbF/jiaEyuxcVi49f/2jNgiUF/FttYKQTmtEJQXWFDqYHYq9LLxM/8D60Sv728JMErEsDNsSUJZBoLCHBRERfNQSmfK0jgHBwfDuh/8KMz+Tv1XxAcK62Ru0YiZy9Eanh1NdD/a6zBQCMp2x70izFy0qB2zkSpBAXatvumWsOob32zHbCy3JSZIBmrS8uJaxyUFNggC0xacNqzFvUXcNs94Rpj7pCfE+C0NGuwXv/jFaBHw9ExftgPeQ6EREM86czLYZsamIF7zMjSjMy2H2Zw8lTVlnlmkgrKIZ0YtTzHqQp2YQEY5LBcuXBj3qS5sM1ObtGyzj/kiKXldOcZtt91WeLczNkkr0mtBPuqpJ6uOnecviyf/N77xjbhMrynlf/3rX++8W8S1oqFpJi+keSkvPRbHIT69VsTp/FX/NG46oT78VsyUnTVrVoyrdXmYKbvtB1pvS9YRBaho0CuGi2VsukXjbe/LmTlzIOx19VfD7N0f145p5a9CPhoN/7cfuyDcfeZ7RpUdxSRKA2JCKOrP/+JfdW/FDZGifQz+T6AMlkNFkl3e/Kaw7Rbo8uCm0E/BDy9owDw5WXJj6mmKlaA3Y4HGQDoajNII8jK0CrxIl+YDhmCZ1wHaz5Oa4xF4T4ZZqSpXbx/LCmLq+4c+9KFOvdM6Q35MWQEIDOehd3NS+J4InwBIoTyGh5l/woQ28lM3vb2MmOiDTAwpp+lSdK34torSC+rGPtDs25S0vjov6iCxBOrJm8Ycu+qaTAfUD3dnhx12iMJJG6vslAWsDyBhXYDZMwbCosL6IEfpnwOtoKw8Qtrhw3aLgY6YEBXTYZnwxnAhHhKKYk/xX+vUYgdsOz//Vxq0Jto05J/TMte2JPixefuVG5AGTiNhkhbx3Ng53Oik00QunpQIEn0AqUvCzU46YD8NgDQICIEbHFeGxpFCA0GcyK83nKvg04e8G0NaoM56MY51iQkNmboRR32r4LgSE+pOQ9S14Fig807fXFZfCOeEmHC+EhOupxo0x0awsFRSQaH+eomS68E1Jn16rTgX9U8Jjsu+9Pzpb+JdprJrMp3QRruO8ijByKzZbMXtbqH4X5g5MDMsHpgVZqMoxJf8S1FDH1VOwUYB2bgeF+3oVlQhPESQh2xFaO9u74l7O24OC9Y6gYgi7/DMOWHJIVuen8sNDtyE3LzciDQCGn/69BPsIx1PbG5mIA1mdfrEp4FIUHRDY1EQR9DTPX8SA0959qtRVMF+6kLaVOBA50W9aNDU7YorrohxVeQWGlYDZZNP9VXDR3wkGlrqfNkHHBuBkfWBhcUUfcpOp+qnoqjrQX11rSTU+bXSuaXXSnUmyCJTfaYLxGRj+2wtSwVFO+c8/7AwsP0OcbtJ4IlfeDRh4cxCVKLFsOm/lLIyCN0p0hX/+LNB+p6JXBitU5ehbDSH9HFZiE9MX1yQHV/04jBvh40+/5aCXu3naYcrQTjwwAM7jSsXFIkIaL3bDatjYPHoGJjlUFZ+eow61GAAKyRF9adBawSFBlhXNvtUJi4g9dRnCgRlKI36TXR+emuaURvK4rpgMfBZAc6d9HWjOZSl65FeK30/pe63EGlc3blOJZqHkloptS7PjHlbhXmnnEDL61gQZaH4X9FI22ZCEWYVi0UDA2GWTIeE1jddW8Ixqgz2JWKSiktcFnUYnjEU12P+olz+lCjiMBK/yNYSGfpLOnnaMA8mdtIqUEZR3sziJnriG07qHH9LQje43II89PKmpMGVHWMySa0OQBDq0BMfiwcxwuLBMpAAgqwBLBNEAhAZXSuWlMO5SXxIizDkLl4VHCO/TrKANjfUxmg/Wq8XlKKdbfOnfxxmFheSDGWh1bgpLA2tghcMzAizaatFw+/AdpGkrCxRuV4E9ZkwUa0lHcX/21ZKqx4b87CQmOD6kDf2zRRLTm7no44OC5+wZY7u6MmOsGBmK9AoCN0aYBVpQ1ajooGqfMx8ys8ti17BsSB96rOUe1IG++mn4L7ApUu/IJ+WgzDKJVT/iVwhkNDQB4Sw8FnG3KUpg+uRCvxUXaupgGva6G1jGh4vB84sEs9/+1vDwOy5LXujaIgdq4LQiu38k1jArCL/gsIHmlVs89f5+BeHdtMyCkaJRsU6xL/6hzi1shVEOyUKSevfxjws4nYRouhRNULxb7goY9aS7cOT33hKHMbeEuFmVePgS2g8QXka8zRVR+pYUHo6MfX3ctTYKA9TPj2GGmSv0XnhdjBKhOvBpyDrzgfBoE4E6om4LGv/6QwJLCCyatzqnJVoAmJCGVxPrgH9ORIypUvrwbHkViEgoGtF/sm+VlNB/sW2UkFJG/uMIsO8w54VZh354qJBEtdusJ21jdCYUxFgAuvMosHTp8KHjKDV59EuI0mf583jtQsJae+Jge2W9ZGWFe2WtjtEGuLY356qX5z2Pu87K8xbvHjUxdiSoJHwFGXJDcuNzM3P9ng+dqwGQePU05ins+KJ4xjsp3HRUTsZ0OixMNSAmQNz0kkn1T7lSYu7w7lTTxpx1bXQ+QD5SCPYR98LYoZQ6I+HpedL/dJrJUHBrSGevNSBePYrfnMEo2NwcDAGUToPhYRMrmHJODONdXD58nD/8/8ojNx7T2yELXkYzTC9niVgGTAlfsXQcNhQNOjfufarYc7jHpMIwOh86TZ1aDEj3HPBReGXZ76nWC3iKLSIS+eYiE6fSfFPf4IoujtF+pHCOtn1iJeGAz98XnEerX333HNP1w7IzRn6C3BVeHrmDY+bGtKGQ1quB40jfeIST1mkzdNrFIby8zy6tmkeyI+t7fS4ZfmJg/Q4PO0RCfok6hqoLIqyawGch14JSEdZUurOV3AuhIleK8WVXZP895lqOL8dd9wxzpbVBMFKQSnio/J0LkbRaNf87GfhoaP+LMx4eHV8+rej2/+jAVfBnhlxev6KYv3JV39llKCIMoHpCEoR9ZsLLw53nckwX3vmaxGYSo+ZRQ6yxSUCFstoWSeIGalYX7LvPuGQyy4Ns7feqthqsaULypZE2uAZWqZPBZHAOgL6SDTUPFZwRRjZ4Rjc91hC09lg+x2sQwmKpt5XCgozZREULBTBU37NlV8KK089PQw/sqbdXAs2KWEjrTTRXCgaeiEqhQsy5xV/EUYWLWkLQCdFRPNGAMFgdCe+OVysPnzTTWHl178VcyAzCA+plUPrsc8krhf/ijRDUXIGwtxddwlPv/RTYdHjHx/L1DEtKJsXiEfZqAqWCRbKeKB/RJPSEJF3v/vd4xamRwtYKLzHo3d5aGvNLZQ26xGbj18c1rzjzCgOjLCoVyOnZWm0mm3sjC2Ic0CK+PhCIfsRi7iv1fhZMh2eItkzRCdslI/CwijiSBFHeuJaa1vxcnM2ig0uUasTdt7224dDPvPJsGCvPTfpiLWgbH5wM2NJsMT01wjNRMDSoQxmvNoy6Q4vB2rq/dZbbx3bXO27PGWCArgTqz/9ubD8rW8LYXCo1ZpLaAlEa1RmVJIink8erBoaDBuKPVEMYnQrVZSLuNqaZ5KS95m0xKOdvxA4vU1MGbHPpBA8Jq4d9KllYdFT9wozo0CNxoJizNi57777wqJFi7p/9T4d5SmDkZttX/ZnYcE/nRFmLpzfSl/EK8TmXTTsGVgVRcTG5t9q6Fggs4rlfIaUiYvJCxEp4tkfSykaPtvFf608xf/zl/wQkygo5CvEhHXqEq2StkWzzRMfHw68+ONhSSEmTIQzxkwcOmHzIWMobWE02o2jKyUUZfDi4PyX/XlY8pEPhxmLFkbrAFr2Bgdh9myMirQEoLUXWFLGtoWozCz2tKyJVl7+T8qNeVq5ysQEYhrqXOzgrwG2OmBHwtJnPDM84/OXhKW//3tFsQPlJ2uMGTNbbdUa1FCbFJVtrEx9cmYW++ccfFDY/tqvhrnPa/9N3EJFotUQRaWFZCA9dLRcisrEeSqzZhfLdjyCUogTaQmIRYxPxGR0QEha1glp43yUgZlh79NPC0+/5FNhqx13iJZJ/ZkYY8bC4sWL4zJ6J4lOVAoKDThXnzJmDhSismhBWHzu2WH+B94Xwo7btxovFkv7OLHRt1YjUUz4F49B0kJUChHg3Z/hGYUsRCsDgWjJSawGob1oCVbUrthnQqqhIg/fj130jEPCM//j8+HJJ54QZhfWD1+IM8b0jqVLl3Y+qJRTKihSnW4WisACmFP4VAuPPiLsePV/h62P+8sQttkmtnoafVsLIrJMiKT81uzblvszfyai0hIMWSaxf4V/RbJWfBHiessaiXNMioitdtk57PO+94anf/KisHT/AxrX3RjTnNmzZ4clS5a0t4p2ONx6cVjU9qE0sVA20uqYnb1gm7D0bWeEXb91TdjmdX8XBrZbWsQWjkwUj7aYxBhEYaAtGK2YmcX24oE5YSYv7xFfLOgNgVRMWmUUZRYFLvidp4Z9/u3D4fAbrw+PedmfhDnz5hXHIocxppcgJumnP2nThLS/tXLYeO3atfG7nmXDxk2gUA60fsXKMPj1b4VVV10V1n7z22Ho/gfQHuSgJRCForSkqJ2n+LehWK7QPJUiNrpARRLmvfCZhG33eEJYdMjBYecXvSgs/YNDoltDf854lcTDxsbUQycsE9hSV+f666+P35RNP1JdKSh89X4wmyk7XrAohgrhGF79cFh7yw/Cmm98Owze9P2w9o7bw3oEpjgOHzuKbgyhEAZEZEUhIENz54S5228fttl7zzD/4IPC0oOfFrZ+yhMKF2te7DjuBRYUY8qhjdFnwnyTHASFSYVdp94jKMyURQhI3Ct0IOwI+kXCunVhwwMrwoZVK8LQmrVh5oa1hfAUOwsVHJg3u5DFbcOcRQvDrAXbhhmz57QKwBChkB5iQTGmBQJCYOYrVglftK96cPO6AoLSyEJhpuzdd98dfvazn4UXvOAFnopsjBkFgoIuNJopK6XSdyONMSalbNCmVFAQEkSFDhh6dlk3xpgyUmGp7NVEVBATgjHGlCFPRlQKCkIyZ86c+BKQLRRjTBn0tzayUECujzHG5CAkuUbUCgqQ2KJijMmRLjSyUDS6U9aTa4wxgD40EhR8I1knFhVjTBloQ6NOWcgTG2OMQB8wOBoLCglrv9xmjHnUog5ZvBlRKSioD2KiTMYYk1LWFVIpKOo/Gft3UYwxjxakE6JWUBASi4kxporGE9tIlKuPMcakyPAQtZ2yFhVjTB25PjQSFGOMyUktE9GoU9YYY3JkbDSyUDRZJZ20YowxQkKSGh2VaqFEtlCMMVXk3SK15gcJ08TGGCPUh9JIULBMNMZc1vlijHl0I4Mj1YdKQeHzBeo/sZVijCkDw0PCApWCIuvEYmKMKUP6kHoxlYJCQr56705ZY0wVeDKp0VErKPwpUlsoxpgyZJ00EhR/sc0Y04TUi6kUFJkyuQIZYwyo7yTViEpBAfXg2kIxxpSRa0SloJCQYeNUfYwxJiV/Naery2MxMcZUkRsctRYKgQx2eYwxOamQaL1SUFLlsZVijMnB4MCTIcjoqBSUtP/EFooxJgdtQFQa/xkNZbCFYozJKdOFSkGB1O0xxpgU9KHxKE9qndjlMcbkSCNSfai1UOhssctjjCkj1QWt1/ahlJk0xhgDGBsEDA9RqxbKYIwxZWg0WG5PV5dHGYwxJkW6wLKrywPuPzHGVCFtaGyhkMGiYoypIteGrj2u7pQ1xpSBmDQWFCVOp9UaY4zQoE0qKpWC4o5YY0wd8l7SkeBaCyXtvTXGmJQyjagUFFTHVooxpooyjai1UDwHxRhThVwetEJWSqWggBJaVIwxOVgoEhVpRK2gkMjDxsaYMmRwNHqXh4QoUNqDa4wxKRgdGzZsaG81sFAIiIsxxqR03JzEi6m1UEhol8cYU4YEJTU6KtWCRBoWUkZjjBESEZbSiFpBSTtbjDEmRUKSGhy1/gwJpULGGJOjLpGuLg9YTIwxVaAPebdIpaCk5oyFxRiToyklWCldLZT0swVSH2OMERIRGR/Q1UIxxpgqco2oFRSRrhtjDCAmqbsDXQXFlooxpgyJSfp6TqWgICJKnCqQMcakSCugVlBk0thCMcbkMHAjMZFGVAqKUAZjjElBF1Ixga6CYgvFGFMGuqCJbaK2U5aQdrgYY4yQRmB0iFoLReYMS2OMSZGYpPpQKSgyYyQqxhiTgi4oiFoLRYltoRhjmlArKPSfpP6RMcYIjI18nlqlWiAkBP9tY2NMFbkH07UPBVHRujHGCIQk72PtKijgPhRjTBkYHOnUkkpBkfLkCmSMMYIukdTg6CooFhNjTBlohMREy64ujwXFGFOGtCGdfl8pKPhGqSljjDEpslAUoNZCIRHCYowxOWiE9KGrhQIkkrAYY0wK2pBPfq0VFAuJMaYKhCQ3OioFRQmNMaYM9AFRkbBApaCgOAQLizGmCrQhfZ+n1kIB/8F0Y0wZEpHU6GhkoSijMcYItCF1d6Brp2w6T98YY1Jyg6NSUFK/KFUgY4wRufdSa6EMDg5Gk8YujzEmR9ZJI5fHQmKMqQN9wOhIB25qLRQpj10eY0wZiEkjCyXFlooxJgchyT8RWykoJJZ/ZAvFGFPGmCwUBEXBGGNSZHDQ3yoqBcXWiTGmjlQjZHTUujwSE4uKMSYnnfQqjah1eWTK2OUxxuSgD4hKanDY5THGjAu0ITc2ai0UEktYjDEmJ9eHSkGRKSNRMcaYFIlJ41EesHVijCmj7EsEtS6PsKgYY8pQx6yoFRS7PMaYKhCTxi4P2O0xxlQhy6SRhZIrjzHGpKhTNqVSMXjphzcJbZ0YY6rA6CDIm6kUFJkxCIr7UIwxZaAPCtDV5bHbY4ypAsMj1YhKtcAqIbGUxxhjUtAIxKRRpyykpowxxuSgD2mXSKWgqKPFLo8xpgwZHKnRUakWufIYY0wK+sBocCMLRcrjfhRjTBnSiJSu/gzqY0vFGJNTpguVgqLELG2hGGOqwIuRXnS1UBATWyjGmBy0ATFJ/5RGraDIOrGFYowpY9asWaP+2Fdtp6wtE2NMHam7A11dHswZY4wpI/deai0U1Cf/26XGGCNyT6bWQpF1YtfHGJODLjR+lwflkXWSmzXGGIMu6BUdGR2VgkJC958YY6qQ0YFWyOiYsXr16lLzg4QPPfRQuOOOO8J+++0Xttlmm/YeM1GuvfbacMstt4SFCxeGZz/72WH33Xdv7+lPqG/OvvvuGxYtWtTe6l+4f5cvXx7ra3rL9ddfHxYsWBB22WWXMHfu3BhXKygPPvhg/EH2339/C0oP4Foedthh8QaXiNx8883hjDPOiKEfoc577LHHKNEjjm3qfOyxx7Zj+5O3v/3t4brrrgtXX311O8b0CgRl/vz5Ydddd+0ISqXLI7/I/Se94+ijj45Pyttuuy1873vfi4EbnZv+4osvbqfqTy688MJYbwKdcAjJ8ccfH8XFPHrJNaK2U9b0FqyRk08+eZSrgMtz9tlnR/cnBTfjlFNOiaFMbBAhGvNFF10UG7bSYP188IMfHBWXo/2UPV5BwDrhPK688sp2TIsrrriiU+8yVwlIo+OXpUnPgWVeR86ZfATSUJ5Ir1vVufE7sF/XiOOZ8aHPF3TtlBVpYjMxaIDpzS8QmSOPPLK91RILXKM777wzrFixIm7jdqQ3PnGvetWrwrJlyzppyEN/F/0zxKnRCvKzn7T8ppRPuTTa8YAIpnXCAqNOHJuyqQ/HSjn00ENjGh0/T4MIUCeEijQsSYMICESAPByPNKqD4nR81rkWKVx/rgH7cdvIQ/lm7HDtBwcHo/HRMUDoQ6kKxUUfKRR/5OGHHx4pzFyHCYYLLrhgpBCVkeJGHime8COFu7NJmsKl4JcZKayWTtyDDz7YyaM40hx33HGdbcrK87HO8bRNfsqhPMWpTmlcGlSfa665ZlR84a6Niqccyia90qhOKrssDXFpGvan50UoBHekcBU728961rM2OQ/V8/LLLx8Vx7kVVmAnjrxp+ZTBdtX5O1SHb3/72yM/+tGPRh544IGOZlQKysqVK6OgcMOsWrWqtECHsQducho6DYQGQMO48MILO/vZR1yaR/GpOKSNmaAGRUNXnBq0tjlmKjgKlJvWIQ0ql0Z57LHHxqC609CVjoaaCp7C4x73uM4xSZPmyYNEKj0HQn5uuSgQOHYqOgrUNxWUI444IqajzDSdw9gDgvLDH/4wCsqaNWuibtR2ysqMYd30hkIsootTNI7YwanOTfV3YNqTJmefffZp5OsvXry4vbYp6jtg3kAampRLnRRwS4oGHft+BHG4D3nZuBYqnzRFY47rZShdnkbXA1emCsouu255nOqMW0XA/SKvmRjSitpOWQlJxz8yPYWbvXiyRlFR52ZhLZQ28CaNvhuUTYO6/fbbNwnFk7udqhzqSF0JCCJ9EXmdqsomvWhyHnmaXpy74JpLzN/61rfGexthSftoTHNyY6PrKE8qLGb8MPrAE7vsxk0bDKM+PDHzRoTgsG8i8OSnk7JwQ0YFGj1i0xQJRNqZSt2oY13ZSpMiy4bzlWWSXyN1ZGOlVUFernF+3fKRLtLImsHKYjicejJXxYyPUfqQ950o0IdSXPjop7tTtjehuIljoG8DH54+AfoUip9h5LLLLuukKxpHDOwnHf0DeRq2y/pQigbcicv7ULRNeaQncHz6UFhXujSo3PRYBPpFiFe/BkuVrXrr3FR2WRr6N7gmKpc86TViyTZ5lKasD4VOVdIdeeSRo45PHMdQOtYJ7CePziM/P4fuIe1DkW5UCkrhr8ZOWX5QC0pvAjcxnYTcwAoIRyoUZelo8HmnKQ0lFxTiUkGhYRGnbQLHIk5l07hIl6ZJg8ota3DUPW3Yavwqm/15vrLjc4w0DeLBObOfZSomBK4NYpHGESiHY6ps0iEYdMRWpaF80qTlODQLCMqtt946cv/993c6ZSun3jO+jPlY/ADhwAMPDFtvvXV7j+kFdFYyj6O4odsxm8L1pyMSk7zXyDWoO/54aVJ2kzRco/Gce9PjT9a1fbRwww03xHd5dt555+7v8hQKFN/lwQc+4IADLCjGmFFIUHbaaacwb968GNe1UxZhMcaYHLSBqfcMNohKQSGRxMTDxsaYMugaST8TWykoUh+GhDxsbIzJwejIjY1al8cWijGmCnQBUUm/7FgpKEpkC8UYU4Z0Ie1nrRSU1C+yhWKMySnThUpBQX3IYDExxpSBRqifVdQKCokRlDSDMcYA2pC6O1DbKWvrxBhTR64RlYIi0kkrxhiTIkGRF9O1DyXtnDXGmBQJiYSl1uUhsftPjDHdaGShWFCMMXXQKZvOmO1qoSihMcbk5H2stRYK6mNRMcZUketDrYUCZCAYY0xObmxUCgqQGCvFFooxpgxphKgVFPwjgi0UY0wVqT7U9qGgPrZOjDFloBEYHI0sFImJrRNjTBlydxp9D0VCYkExxpQh76WxhQJpYmOMERgbCqLWQrF1Yoypgv6Txt9DkYViUTHGlIH3smHDhmYuD0IiUdHSGGMEuqCpJaKrhcLSVooxJkdGR6O/yyMRsXVijClDlklqcFQKCsg6sagYY3LUd5LqQ63LU6ZAxhgDMjhmzZrVjuni8ngOijGmCjQi14laC0UZ7PIYY3LQBmg8bMykFVspxpgyMDTQhzENG4OUyBhjUnIPplJQUB3Gl+3yGGPKQBfSN42hUlAQEwuJMaYKjI7BwcH2VouufSiIil0eY0wO2pDrQ6WgCLs8xpgyUqND1AoKGRSMMSaHUZ5UH2oFxX/X2BhThcSkkYVCh0ue2BhjRJnnUikoUp+yTMYYMyZBEbZQjDFloA0KolZQSGi3xxhThnQh9WS6CorFxBhTBiKS97XWCooSS32MMUakQiIqBYWEymArxRhTRmNBwTqRqBhjTI7EJNWISkFh2Jhg68QYUwZGR254VAoKCfyBJWNMFanBoWVtHwoZ1DFrjDE56ITEBCoFJf1wSprBGGNAutCoD0UvBpLYFooxJqdMGyoFBUicmzTGGANjslCUyGJijClDIzyN/7ZxmQIZYwxIH9L+1kpBITEJpULGGFNGqg+1fSgbNmywmBhjSsFzyb2XWkGxdWKMqULawFLCUtuHokS5ChljjEAfJC61Foqm3dtKMcaUkRsbtZ2ywhaKMSZHlkljl0fv8dhCMcbkoAu5F1Pr8lhIjDFVpJ5LIwslzWCMMSlydVLDo1JQUlPGwmKMKSM3PLq6PJ6LYoypIrdSal0ekKVijDE5EhPpRaWgdBSnsFCMMaYMhKSRhYJlkquPMcakoBOpF1MpKLJMUvUxxpg6av0ZhMRiYoypI+0WqbVQ5B8ZY0xOmTZUCkrqG1lUjDFl5NpQKSi2Towxdag7RAM4UCko6j/xxDZjTBkSEZbSiFpBQUwGBwfbMcYYsxE0IvdiajtlZcrkmYwxBtI/oQGVggIyZezyGGNy0AcNGcvo6CooymCMMSkSERke0FUtyvwkY4yhSwR9aPSHvpTYGGOqwNgY858iNcaYKlKd6CoodneMMU2pFBT5RrZSjDFloA3pLFmotVBkpVhUjDE50oiUSkGBfNKKMcYIxIRpJamoVAqKRnnKVMgYY6QPKZWCgvJ4Upsxpg68GIwP0VUxUCD3oRhjcmShpIZHraCQIe/FNcYYYBQ4nwBbKSgSErs9xpgyZKE0EhRQD26awRhjAF3IDY5KQUFIsFLs8hhjypCYpPpQKygokIIxxqTI4EipFBSZMwiLLRRjTBO6WihgC8UYU0aqE1ApKCBzxhaKMSYHXWDoONWHWpcHPGxsjCkjtUwkKrVqoc8X2OUxxpSRjwLXCgpCkvfiGmOMkLGhZVd/xi6PMaYMWSaplVKpFkpgd8cYU4a0Aa3oaqGQgFeTWaY+kjHGgIQk9WIqBQUzZtasWXFd6mOMMUJikhoctS6PhMQWijGmjMHBwRhEpaAYY0w3Gk9sS/0juzzGmDLQhlQfKgVFvhGJ7fIYY8qQTkgjajtlPanNGFOFLJNUJ2r7UKQ6dnmMMTnogya1SSO69qFIVIwxJifXh1qXJ1UeY4zJyfWha6esLRRjTBW5RtT2oYDdHmNMU7p2ytrlMcZUoa4RUduH4n4UY0wVaAMBnRCVgqIptXZ5jDFllGlDpaCQ2GJijKkj915qXR5ZKMYYk4M+NLZQlNAvBxpjqmhsofjlQGNMHWWGRq3LY8vEGNONVCcqBUWQ2MJijCkDT4YgavtQlNgujzGmDH3IXlQKCons9hhjqkAbcoOjq8tjjDFlSEgaWSjMlAVbKMaYKtCHRoKCb4QCESwqxpgy0IZGnbKQJzbGGIE+YHA0FhQSpm8SGmOMUIcs3oyoFBTUBzFRJmOMSSnrCqkUFPWfeOjYGFOFdELUCgpCYjExxlQxpoltufoYY0yKDA9R2ylrUTHG1JHrQyNBMcaYnNQyEY06ZY0xJkfGRiMLRZNV0kkrxhgjJCSp0VGpFkpkC8UYU0XeLVJrfpAwTWyMMUJ9KI0EBctEY8xlnS/GmEc3MjhSfagUFD5foP4TWynGmDIwPCQsUCkosk4sJsaYMqQPqRdTKSgknDVrljtljTGV6E8Wi1pBGRwctIVijClF1kkjQfEX24wxTUi9mEpBkSmTK5AxxoD6TlKNqBQUUA+uLRRjTBm5RlQKCgkZNk7VxxhjUvJXcyoFhYQIicXEGFNFbnBUCgoJsVJYypwxxhiRConWawVFiWylGGNyMDgYvCHI6Kh1eSQqtlCMMTloA6LS+M9oKIMtFGNMTpkuVAoKpG6PMcakoA+NR3lS68QujzEmRxqR6kOthUJni10eY0wZqS5ovbYPpcykMcYYwNggYHiIWrVQBmOMKUOjwXJ7uro8ymCMMSnSBZZdXR5w/4kxpgppQ2MLhQwWFWNMFbk2dO1xdaesMaYMxKSxoChxOq3WGGOEBm1SUakUFHfEGmPqkPeSjgTXWihp760xxqSUaUSloKA6tlKMMVWUaUStheI5KMaYKuTyoBWyUioFBZTQomKMycFCkahII2oFhUQeNjbGlCGDo9G7PCREgdIeXGOMScHo2LBhQ3urgYVCQFyMMSal4+YkXkythUJCuzzGmDIkKKnRUakWJNKwkDIaY4yQiLCURtQKStrZYowxKRKS1OCo9WdIKBUyxpgcdYl0dXmMMaYORCTvFqkUFCmOrRRjTBmaUoKV0tVCST9bkPpIxhgDEhGWjSwUC4kxpo5cI7q6PJCuG2MMICapuwNdBcWWijGmDIlJ+npOpaAgIkqcKpAxxqRIK6BWUGTS2EIxxuQwcCMxkUZUCopQBmOMSUEXUjGBroJiC8UYUwa6oIltorZTlpB2uBhjjJBGYHSIWgtF5gxLY4xJkZik+lApKDJjJCrGGJOCLiiIWgtFiW2hGGOaMGP16tWl5sfg4GB48MEHw5133hkOOOCAsPXWW7f3GDP53HHHHTEsX748BtMbdt9997jcd999w6JFi+L6ePnOd74TFi5cGHbdddcwZ86cGFcpKHTGIig///nPw8EHH2xBMZPOtddeG6688spw2WWXxYcYN6rpPatWrQo//vGPw/r168PJJ58cnvWsZ3WEZiwgKAsWLAiPecxjwuzZs2NcpaAwaeWhhx4Kt912W/xxt9lmm/YeY3oLFsgpp5wSb/LXve514aCDDmrvMZPN5ZdfHr7whS+Eww8/PJxxxhnt2GZcf/31UVBSC6Vrpyy4D8VMFjfffHN46UtfGm/oT3ziExaTKeaoo44KF1xwQfRG9ttvv+hmjgVGeRq9y6PRHY/ymMkCMXnFK14R3vGOd1hIppkTTzwxvO1tbwtHHHHEmPqs8GRSg6OroFhMzGTAkxD35pxzznFfSZ+w1157hTe96U3h6KOPbsfUg0ZITLTs6vJYUMxkcPzxx0fLxGLSX2ApHnLIIeGDH/xgO6YaaUM6/b5SUPIZcMb0iosuuigsWbLEYtKnHHvsseGSSy7p6vrIQlGAWguFROk8fWN6wcUXXxzdHdO/0JfSzUpBI6QPXS0UIJGExZheQN8JcxZsnfQ3z3nOc8JNN93U3ioHbcDdSY2OWkGxkJhew8iOR3T6H+aX3HPPPbVuD0KSGx2VgqKExvSSW265JY4mTDU33HBDnIHL0jRjzz33rJ2Xgj4gKhIWqBQUFIdgYTG9hBuUp99U8s53vjO89rWvjX03r3zlK+NQ9eYG53Dqqae2t6YGficeAHWgDbg9jSwU8B9MN71m/vz57bXJZ+XKlWHZsmWxE5j3hM4///z4Lgv8+te/DmeeeWZsqFgvgnXi2EeaFPIiSBIowOpRY+d4rJOPckhDetYpjxEu7Vc+bYPS6hhK97WvfS2GtJ7TjUQkNToaWSjKaMzmht41oWHTcFesWBHe8pa3xH3M0v3Vr34VXTAa+3e/+93YYE877bQYxz4adQqWAu+/0A8ksaDREwcIDuvEUZ5EabfddgtXXXVVOPfcc2OdfvKTn0RriXXCkUceGfOShzTAu03UmbycA4H1fgFtSN0d6Nopm87TN2Zz5Oqrr44WCtYDYoGQ0Fhp6HrzlkaNmNCgWScOlE4gFszTIJx33nnxHaQ6EJ53vetdnY5o0iNod911VzwOdVLg2ICYUV/es+HYEhMsu37r0M4NjkpBSf2iVIGM2ZygQSIgNFLcHQRFogF8moOp5rzLorkxNFziCIgGjVmwj8YPWDByn4B17WsCadPjSCym0iWcKLn3Umuh8JElTBq7PGZzhcaJqJxwwgnRfcGdQFwQCRowVgmuiFweGjfpicelIT4Fy2TZsmXRFUGcSCs3hMlguYtUBcehbhyHQHl1YkRa3CTS9guyTlKDo+sHlm6//XZ/sc30jOOPPz42yvSpP9nQ6BELLAoaP26HLA06OonHUpGFIEHBilHDT8HtyfMgSuRjm4bPkm2sFiaJKQ1llh2HOnFN5PaQBnfr7rvvjvmpK8clLa7QVED/0P777x9/rzLKvodSKygPPPBAHOajUH9gyfSC6RAUMz6aCMrixYvDjjvuGObOnRvjal0eYZfHGJODq8P3UFIqBSX1j1IfyRhjBPPUUn3oOmysYIyZGOmI0JaADA4GbkSloNg6MaZ3MNuVwQ06bLvByBL9F4LZtRptYgiczl1gybY6cqeaVCNkdNS6PBITi4rZnMASYBSmCflcEpHGsZ6nKYsD4sqOzYjQFVdcEV+4E1Vl5JPpECFNtEM8GPFhP0PN6UjTVJNOepVG1Lo8MmXs8pjNBZ7ahx56aJzKfthhh8WGx1OcxgdMnSceiCcdloMsgjSOxks+ymNbVoKOQRzpn/KUp8R4hoDzYwssFOJVH4LK0DtBTVEZCAkT8qYL9AFRSQ0Ouzxmi4J5Ee9+97vDNddcE5/kNHLmcTDfBBAJGiLxPPl5YZCp+Ux4kztCPuIY2mYSHGnOOuus2PBpzIgP80Z++tOfjhr+poyTTjop3HjjjTG+Tigohzoyp2SsgrJs2bKY/5hjjmnHTA9oQ25s1FooJJawGLM5cOutt4Y3v/nN4eUvf3k7pjUrVeKCaGg2LHGyFhAAtgHBkVCon0Iv7AFlaL9cGMoj0N8h66TMnREcgwlzqSBVoXoJ8pEfa6vuGFNBrg+VgiJTRqJizOYAlgTv5Hzyk59sx7SsFhogokADZh3Lg3j+uBgBSyFv3IgTFg0WSupakJ94+jVYAnlp6FguWDekZ308UBYWFW4SIRUwoGxeOERo0s7bqUZi0niUB2ydmF7CH+iezKcqnwSgrwOrAsEQuD1YDWrkLNXXQWCKey4oe++9d4yjryN1S3hbmMbMeztpntNPPz1aNPSpIF5pB+xYQBDJy7kQOIZeXBSKo14Stcmg7m8ep52ywn/b2EwpfEl97dq10e2YLBCs/P2bKiRudenz8nCdiGNKOp22NGisEoFw5eI0HprUbTLhhcr3vve9Yd99923HjIY/ls7U+x122CFstdVWMa62D8Uuj+k1++yzT6fzc7IYSwMkbbf0+X7cJUQFSwQxwf1I6YWYQJO6TSZ8pLpKTABXp7HLA3Z7TK959rOfPeppvjmikR9GeTgX+lS2NOgfOvDAA9tb5cjlSV2fSkHJlceYXvGqV71qUv1+M3Hom6l6y1ioUzalUjF46Yd+FFsnptecfPLJm7gJpn+gD4h2/6xnPasdUw1GB0HeTKWgyIyhYPehmF7CSM+rX/3qTb6GZqYfOoIZPXr/+9/fjqkHfVCAri6P3R4zGWClICzTOY/CbAqT5d7whjfUDhenYHikGlGpFlglJJbyGNNrzj777OhaW1SmHywT5u784R/+Yde+E4FGICaNOmUhNWWMmQwQlaVLl8bJZcwKNVMPQ+DHH398fAcKy3EsoA9pl0iloKijxS6PmWzOOOOM8I1vfCNON+cpyfswiIsmdpnewucVuL70YTFjmImG1113XaNO2BQZHKnR4a/em76Cj6Lz93Svvfbarn9X14wP+q4e97jHxVcPxioiKYjSwoULw0477dT5SHXt1HsEhan3THDx1HtjTApfvUdQdt555+ZfvcftSX0kY4yBMl2oHeXR0h2zxpgq6B6RXnS1UPJeXGOMAbQBMUn/lEatoMg6sYVijClj1qxZo/7YV6Wg2DIxxnQjdXegq8uDOWOMMWXk3kuthYL65H+71BhjRO7J1Footk6MMVUgJI3f5UF5bJ0YY6pAI/SKjqyUSkEhoS0UY0wVMjrQCtah1uXRGLMxxuTIKpGYQK2gkDBNbIwxKbk+VAqK/CILijGmilwjajtljTGmDrpEZHxArcsDaWJjjBHowuDgYDQ+ZIBUCoo7Y40xdSAi+RcdR31gCbVZs2ZNXCcx68uXL48fUJkzZ06MN8YYuPXWW+P3gNEH/rYxmhEFBdOFIeL169eH++67r53cGGOqueuuu+LnHxGUefPmxbhoryAmBCwUY4xpgmbJpkQLhdluBFychx9+uL1r8th2220736DsF1asWDElgjp79uz22vTC752+g9FL+G35jfsdvvZe3P/trd6DO9Ar1OkpejFQwj1Al8Z44ev5slBGfaSaG4uLi6CwnGyoxIIFC9pb/QHm2yOPPNLemjz65WPf69atmzQB5cPFO+64Y3urd/D7fPnLX25vhbDLLruEgw46aNyNi4fIvffe297qPU9+8pPba81ANCQc/D6//OUvw/e+973w4x//ONx9991R/DhX7iEa8V577RV+93d/NzzhCU+ILoeuQ9PrsWHDhvhXLcYLfwN5hx12GOXydCwUhGTlypVT8kLgRARFT1WW999/f1zffvvtOxcx73VuigWld0yWoDzwwAPhBS94QXsrhGc84xnxD4WNl34SFISEtsefEVm2bFn841u//e1v47XcY489wuMf//iwePHimBar4s4774xpaQM0av4kxl/+5V+GJz3pSZ25Id3ohaDQljk+f2aHc4itj4On6tjPUFcawsUXXxz233//+DeD+MNQxDVVZmP6AbU3Ho4/+clPwgknnBD+4A/+IHz9618Pf/M3fxO+9a1vhZtvvjl86UtfCh/+8IfDWWedFcN5550X/vM//zPceOON8Q+k/f3f/31My9/Y4S8A/t///V8scyraNOWXvhw4FQcfL6obgb8m9+Y3vzn+hXjMQFTypJNOinHs6+fzMCYHz+Bf//Vf498Uxlr4/Oc/H6666qooLlgbWLR55yfbBKwCrCBE5Ctf+Uq48sor4ygtZfFnRbFCJxPVKW1vHZcHcx+XRy7FZDJWl4cKU0d8SsTjv//7v+O2ToSLi5n3vOc9L3zoQx+KfxUt/xG60e8uD08dzNyJ/D6Yz/vtt1+cU2SXZ/pcHu5bfseHHnooWiJYGgjAn/zJn4y6b5vev2mDpl38+7//ezj99NPD7/zO74Tzzz8/9nFQVl7eRF0e2sxuu+0Wf2vNU+sICh2yCEpauclirILCxf/mN78Z/vZv/zY2LOqoAPoR2H7KU54SPv7xj4enPe1pjX8Q6GdB4bfhr7RhDvOV8fFC5x7599xzTwtKwXQKCvfbscceG0dV6TPhvi1r9GNF7QKh4O9E8xsjMLvuumtsJym9EBTaMoGJbTC+HsxJRv4fF4PJdvSRHH300dHPZJ/2C7Zlsfz0pz8NL3/5y8Pll1/eaTTEk2ZzhfOgF52hOSyx8Qb+pu1UjOKZcrgPCQjZMcccE8WdUSsEfqwWdRWUQVl05H7hC1+I1skf/dEfxQ5eHb9XcKy8vFEuDyfaywNW0c1CoT5UFvV+29veFs021BS6CQP5CJT/pje9Kbz2ta+NcyI4LxpVFf1koXDeP/zhDzs+MHWnbmP5g/XcrHvvvXdnZACYN8CowL777jvtFgqWZjrniTrlT9Cczd1C4Xfkuh933HHxfqO/hBGSuvtyvHAsAn+f/KijjgpLliwJn/70p+M9RPuAiVoomofC8H3fujwcH9HAv3zNa14T/uM//qNjkXSrmy4UsM5J/umf/mk488wzK/1I0U+C8t3vfjf+SFyn8UIH9f/+7/+Gww8/vB3TX4JCo/rRj34U15ns9+1vfzuu17G5Cwr38Qc/+MHwnve8J7rwDAXX3ZO631nSRvVQ5b5ORahbfkTjOc95TuwyeOMb39gR7okKCgMi/M7cp6Om3uukqio2FXDyXHACvv6LX/zicMUVV8SbXoLSDdIokAfz/lOf+lR42cteFicI8aM0LWs6wc3jiYKVMd5Ao0Y0+v1cxeZSz/HC+dF4EUCGfnffffeubY48P/vZz8J73/veOODw+7//+zGw/s///M9xX911U9kMUlAGQkbb6tW1pi3ldARlun9Qjk+DZ3ydpxA9372oEyfNGP2f//mfR4FClaf7XFMYueLpfN1113UCrgBWShpXF77//e+X/rimP9C9zUgOna/08WFhVIkJvyUPAwYXDjnkkDjJ7ZnPfGYUIsp47nOfG/tH6KQ/99xzY9qq359jYJEw8Y2BCgSNtL1oA5Sdn0fHaa06ucmGkyPgbrz//e+P1gSmVK9OWj/mL37xi/DXf/3X8Ri4AzrudMI585RhCjWT9BQw5Zmwl8bVBaw4+iRM/8LvgzCcdtpp0YKsg4cewvHWt7413q+4R6zTF3LEEUdEt4XJb0xwe9/73hfLrHNfadsckzIQIh5AvRKUvA1FQVHj7cVBxgrHpFExbfj//b//F9V2sqCP6B3veEccTutmLk4F9FvRSUbHKR3H4w28erCljN7wm2BRMgOU0KRvBeh8pJEpn/pn+gUmnT3xiU8MT3/609sxm6I2yMgP86kY3aRd0MeEINCAJQ6M+DFSdMEFF4TPfe5z0fpW/iqYg0RHPZ3BvaDsod+xUKYLRjNQXlwd9ZdMFpw8De+//uu/4jE5tukv+I1e//rXh3/4h3+IgQdAE5gukObjSdwvcE8zFwRxQAjqGj0PVCwJOlBxbbpx2GGHhVNOOSU+jFd3eXMa94RBCqZU9OIBhCulc5GH0+lDmQ6oDFOGuRlUsbqLPVHSY3BMZtxO5vFMf6DfGFf6N7/5TVyfKjg2M5wJCASNsKq9ITy33HJLrONf/dVfxbRVQ8qUwX4CFjejd9/5znfae8shLaN+jJbRd9eLe1/norKioLDBjukQFjqdmISD6Y96T2YdKJtjcCyOSadWP4HFhLnfJOAK9OKG6Ede8pKXxFGqiUIj+8QnPhH+7u/+Lg6b0jGZfv5gstHvwwjjdtttFx772MfG7Sq4P2+66ab4SQJGZrqhtkLZ++yzT/if//mfuF0H0xGYNUudJkrqTagu0+ryUAl8SnzfG264IfzjP/5jp2KTAQqNacg0do7JsSfzeGOFeQm8f9EkPPWpT+2ruk8EbnAaH3OP6DDk6YwQ0Fk9kXPkhmfEjNf86T8DrttU84Mf/CAOE2uuRh283EejHwtcI/I0+XwrU+R56ZDh44lCe+IasxxloehHm44nHsdmYgzTj5l8NtlwDG5UjtlvDZJJb0yPbxLmz5/fzrV5g0mPyCPwL33pS+PLclgSDIfTMYlFOR6wQnlyM0xLfwGTwfi9mzz5e4XuL96Kf8xjHtP1fmM/vysT7sYK30ghb5NjIOC9cP0kJimjtrpVZjLQMafi2AgmYSqPaepB3LEaNL+Cfi1GL/j+B78V3/gYK0yKZCYuIx8MqfIuCx22WICIzFTCPYaVxEOgyf3G9cCiYWpDU+jIxV3mOnYzCqgD7iQduL0wICgvLafTh5Iup5omF7oXcBwda6qOORYwzbmZmgSGRcf6e6Xn3y9glWFBYK4z/4YhdCY2csMztP/KV76ynbI7XA8mMOI6f/azn40iRX5GQbB++DxAP/7ugvoz/wiBuOSSS9qx3WHUEpeO6zfV5Pdgx+WZLjExG6Fx8Y5Tk9D0iZeCqUuHXz9A3ekY57sdTDrEJTnnnHPCJz/5yTiZC7Au+FoZNLk/X/3qV0fxYLLXhRde2Hk5lGMxl+OP//iP2ymnDurNXCFckm7ngPvAKxd88+ed73xnfL8s7fjMYcImI1dnnHFGeMMb3tDIjacOWD9N3KNuqO8kreMoC2VzgIugkG8rbnOFCWr4+E0C4jAeqoYhpxpG95iUxSS0k08+OXaQ01n4sY99LHYc8olPXBVcHywLXkVARJmfgRVD2tQdOvDAA+Pw6amnnhq/ePZP//RP8ZMX04naFQ0dcWjSzriH+Roh7+wggFij5CsLzL7l2jB6xBfemt7/1KUX/ZXUAdLjju5R2QzQxQQUUieTxptyeDLxROsHXvWqV0VrhJfWmGSol9euvvrqaKHwgiQN6jOf+Uz8qvuJJ54Yn8K8GHfppZdGMaLDldFBnv64TLydzjwO3uh99rOfPe0PGB2fId2f//znjSeTYanyHg8DFS960YuiwFx77bXhnnvuiYFpA0ze41pg5XEtmg6z40ryXSFmzE4Uzo82uImFop7a6f4BmkAd6fnn6fVv//Zv4SMf+Uh44QtfGJ+8Oo/NFW4WJhw1CQjDWAWU0YMmQ4uTDa8cvP3tb4+CglvDMDHo/mMeCqM9vERHQ+KlONwhzpvZpjQ2ZpPSP4J7QByNDmH56Ec/GvsgmLbeL/CnPujjYLSn7DdTnB6KiCnDurg/dOjyPSDu8d/7vd+LgclpiCYPCNxfOmSZZa78KiuHOO4b6tELQQHEJLV6Ywus89P6DSrPkwiTmKccNyMdWMRt7vA70BiahF5MnZ4KdJMrIJp8+pBJWIgEjQ03Jn2YaQo5jYnPT7CPN2WxTEhLJySWDOLBqBBPZ/oT+NgznwhAXJgN2g9Qd767yggT9a5qa8RzDlgfCAaiSqc03/K55pproiXGUusMq//Lv/xLFAgsOTpkEV/KqToG15/rhruD1Zde8/Gg46TH2+we6ag2fzYgnYeBz43v3IvZldMJk5PoG2gSmt4QNLDbbrstdnxidk/1sClPT6wR3pD92te+Fr/QjiWJdUlHKZYIDacJvJ3N0DKCxDwThkn5zXlq0/9EQ2FOC0/4foLfiaFsJutVPQiI5zqRjjfImXzJx8WY5ctX7DlHOtQJnDcCwgOVd4SY9YrgIiyMcFUNCSNYvEj4/Oc/v9Eku25wXgpisxMUOuS4cdKTIXBDEcxoaFwEXonnC2I8LacKXBQsR0SFafC4N7xxS8cr71LRIMbigtHosFh4IQ5xQTywSnjyY+kgnlPx1b2xwv35F3/xF1HY6VxOGzvrnBcPSb05TB8S/UMIL0H3uEjjePOYfpQPfOAD0YLjM4+MdOWiwjp/4+fWW2+NrmJa3nihHngMo+rWXpo+ABOf1/CbhKazKbkx6dwjjHVK90Th6ckIBzc6fRqqA9YlN36VaV4FNy5vpdOI6EOgL+CrX/1q7GthIhti04/QmJl6z5u+9AdhKRBHYJ04rDfekMbdGW9jZ9Tri1/8Ypx1jNim/So8VIij73GirzQIfj8eVJUuDwc20wcNhKdsk8DTLv0h6ejkm7EKuBG4A724ccYLZjX9PXSWYjlwUyMGEwEhpd+MjnnmmvDRItwmvp+L2PQj/AacN6NUTEik/08NnTeEGVhAIBkqJt14fjPyYC3wnhfWChP76GfRcZg1zDXC9ZzobyAoV1aU6KxN541nWuCS5F9jqwrcfOkPidmMW6FA48UNmE54J4ebDgHAiqBDlnkTE4Vy6Jylw1KM1dqZDrBSmMiHpYDLx2/GNn0f6ce3JwLtmH4m5uQw4Q3XhxnYTPJDTOh/6xXcf/y+WFmic0eyw6IytXC9ue69gM5qvmavQMed/rTBdEFfF0O8zKWgIxA3h0l5E0X3KcK5OUEDpEP50EMPjSLLqAwT1xj67lXbk9XAvB0sWaw2xIV7ggmEvWzjKistMwpKLw8yXrgQjNbQ80998sBFwqTTn6FIG6LW2Uc6QlkZmHqMDvSqEU8U+hJwVfgjTKl1MdbAm6PpqFc/gagwJR63hNm9/A6PZrj/GC7nOvDeESM4GrHrxbVROVxrRoK49lhCdIT3+gGjdpS2pygoZTumA5Qb84+ORALmGW4AgW2GzjDbEJ0cLhZmHbMSy/ISeIuV2YX9AudBfXmS0OcxnsBQMH0lmNOmv1Fj5xUCRnNwXekL43fsFXL9KJdAnwr9J0wX0PF7BceivLRPpm/+0BfHpYIKZajyuihapoKonu0ylFchpZ/+0NdUQGdp3ZfSJwIC1+0PfTFkjLkPCCsTuvhN+O15z0d++dKlSztfWWN0C9dJ8ATWH/qicxPXQfDwYG5SHVP9h76E7nXaHLN8GUrmPHgFIf3+S36PVpHe/wQ6ZN/85jfHPjRm2fLXCcvu+Yn+oS86/7FAac+q9yiXp+kJTAYcG5eGm4vKlQWskNSdEdpmH2nK8hIoX/mNmS64/7gXeQuZoXU6ZrGumR3LzF9clLSjsw4EhLTkYVSHMhATLHkm0iEmk3XPUy6kBkC0UIigN1h/r2ayKbNQppupslDwofsBLJSmN+1Y6Wah0AiY7MY9BzQuvgPCTc/9xxNbMPRMhyLwROflPzUOXAfmtgCfj+SlN+1jvku3r6RNl4UiZFkAM5mZj0InKudE/woT+OgL4Z7ReegaASLCVAPmsPASJedPBzjD05SR5imjFxYKvzPXmgc29N3fNp4upkpQHg1gZfZqrsNkgstHo5osuglKDnVhiJeJgEy716sS9I8xw1nfwKGd8hV9+kiY48PnCxAShubp4EWgmzBRQdFnEGjPmso/SlCmykIx5tFAt36knPRhjgWJYDARju+e0H9EHCDYTBNAPOjYRVDSd3OqLJIc2vpE3j5HUBA6XnkZJSicCNO+LShTC2/c8gTSN0cx0XsFLgAmMU+QfoMPIPGUHcsHkJgR2yQ9HbHvete72ltmMuFNZ/pouMckKLFXpd9EhNez0+9ZsN4vHwbqJXTK8Vo7k9AQFUD1GUbUV8kRBQ0Rsw6YqYyQMAcFmDnKfspQfu3DrCc939dQ/umG3zf9PakbDzPiRb5Nvwpxypeuk1/rjJSA8vf7fUP9qCeBOjeBtPSb6LqxnC4wRlKLqNVN24ekF1frLJkUxJRr3Sg8udhmqfV8H51V/QiNHR8YEaDPAauCH4c5NIgDAoAYIDpYL8RpEhsixDplsCQNZZCG/OrDoEzS80JYPwgKv41+T3W+8pvyfguNhN8M64VvqpKOb8IKbl7SAfsBi4QyFc+f2QQ+iaj7pZ/hfLFU6VxldEbXpo5ly5bFIWHOm2uVvoIw1dBfk7pqo4aN0x3TDTcbNwNBNx5/p4W3MZm+rIvIxeWDOqThK1Q8oTCpUXF+pLe85S3xR2vyQ001iAEdwVgYiAANnnqqo4z9BMQBkxL3CAHSN02wcNjPPtJQFq4TaMnnHvCTeYqRdrrhd0HcCPxOQAc9U8X5rfgd2eZ3ZBQhffoST5xgBITRDOL4y4ApiCjx3Bv9DuLA+XJvc/6IJYLI9cE6Z13CSXvgmnAd02sB3Odp2qkA72YTC6WfhERww+EzE1gHGhvr3Eiaas4NxbriuOlQbX4YlvwALKfqAo8FhAD/E+sDK0XCgLWBWMgvRWgIuDH6grrilQY4f+1L01AegiU3ajqhkfAb8VtWmep8koCX55icxu+aQuPjNz344IPjNmlYp9zUEuVPaBBP4+rHh0kK14H6E7ifqS9zUxAYrBcmpyGMWGEsuQbsy8+Lex5RRpxksU0mEpNNLJR+nOwlkUjFg6WEoZtAIDzcUPwAXOD8xuwH9EEoht3oucea4By5wfg9EBeEALEhqOMWkSCNOnFVDulZZx/lEBAc8mL1UNZ0wm8m64OAVUEjyGEeCx8CKus74wFDY6FBAWloiFijuk9AT3hI4/sRhIGACOo+Zcm559tV8NBEUHH5uKYS3KmmL4eNuXBcHJmx+NaoMheNG4h64vYgGlxAbk6lQS1RdfKee+650SzEFRrLH4wy04+evrkYcG8gKDyJBWnLRKMqvp+QtcW9K9KRKta513FxEFrude0nLwLLNrNilZZ2wgMpLXMy4LdgaHyTeSiIiCa29duIjzEp9J3RaPrR4hwPWJNYben5YGFIDGi0WFo8PBWn/eRlHghLtknLPsrL+5QmAyxfxITAlwLAE9uMMeNCgkI/IIKCdzBqlMcYY8aC+l/VMdsZ5UkjjTGmG4hJrhlRUIQtFWPMWKgUFHbYQjHGNEX9rakh0hnlYZYlozx8I4J1ZlUy34GOWiZJMaWbeIkOhWDykFfuEoGpuIpjyba+u5GbSKyXxZE3raTKI1BW6rcpPRDPfu1T2YQUpRcqo6pMjg/EqS7pNpAnPxdQWsWzrXzEcX3yclLYp7Krji3S47MkjfKTVtOkFUfQ75OWTzzbkB6DfULpQMuyOuo4rKf5QWWn9VYalUNIyySd7rE0j46tY+XlsZ3WT/FsK16kedJ1yPel5VIvSO9BUB5I8wnyA/E6hxSlZ6myVF9tQ3q8dD0lT1N1bJbKy5J0Oi8+YsbbzrwYyB8Z07BxzKNRHsQC8UBQirj4rQT+FAPTtvmIMqJCGhWaozhVhMpRCVUw368KlsF+5SOdTlRlgNbZl8aTThcpPTbrTPzimHl8Sl6uttN0ypfn1zZBdYA0Ps3DOiH9IUHxZem1JA8ojfaxreue5tM6lG0DZeoaiTQtS50X8bpGZWWRjocS20pD0H7FaRu0rrQEiUdaRnp+WgetK73itM0StI8lIb2ntRRsp8dSGWwrreJZ5u1D+RWnclhqW0ulZT+oTFC6vDxRtj9Nl5YF6bUoK49tgu6FdD8ffEJM+HwCkyVZ1wewOxYK1oisFL67gKCwZJs/PM1LZmyr4nmldZG0H8rilF5oXfHpMkdpKZc652nSslSOSMtN06VpII9L0wqVo3XqwjKNB+1Lr4MaSIrypfm1rnMF8hKn45Xl0T6hMpRGeYTygNKlZaYoX1pGml5L6qmGlZajc0njWSeuqo55WkjLTNOWwf60bNUByvKWHQOIz+uZlgUqT/Fp2WXlKa7sdxUqswr2pftVn/Q3gLTMNC4/B8iPybrqRsAaYVY3fxKF2dpYK6MEhQIkIBIT4rBQNOENsWGbglVZwUFIT7wOrIqqcixTFC+UhmVaecUTl6ajfJGXpToqDygfaEkZxHMuaXqVneZP8+j46X6heii9qIvP40S+j/W0nLye2i4rLy1L5Whb6yob0jjKT/fp3NNroHTEKa8CcSwh34Y0TmUQ+F1Y6vj8RqQhsJ02GC2VX2lUP8UB8VoXxBF0TFBeUH4tVT6QB8uOONWVddVXcQTVL03HNoFy2BbpftVFx09RuUA9UstQx1MelsRDul/5032kVT62FYegMO+E1zz4iDizkSkjpkNQSEglOCGWKoiDsI2QsERoQPvTg6tCqjwXU+WCKgOkSW8GkKmtE0xROtVJ22l+XRTSqHzF67jal26nJj7lpXmBOJ1b/mOlqF4ElS/S4+braTnaZsn1A+qi9Gla1ZP4fD/rkJaVnxMoj86PdZULaT1ZB5UNyk/gGNwfylOGjqWyRJo+PaYgHxCXl6+0qke6j7S6fqDfiDTUV9vaB6Qljm2VC1qCylRcmk7lsK3jAmnYRxzrBJXButIQ9Hulx1RarjHvfaW/kY5JXpXHMg0qT8diXfXRfqEyiQeWSs+S/VgkuD4IC+2CuJgWQYlrBRxMlQMdnKUOqMoqXX6wHO0nf3ryrKv8HOK1X3nS9DoeqD7s13aKtrUfdC7kY3/+A6bl53ESIOUV6TZpSEs6lZ3fwErLNkF1Ih0orc4fyKP8wDYhzaPjpPlJw7bWiVc+HVdxIs0H6XEhTa+yWOblsK0yiNf1U/mKBx2DbYLSsFS80PlBXhdQfUDnTkgfCCojPYbSAvHpfvZpnaDyWaqs/LjKz1JxkIoCpOUrv46jdMRTPmUpLeR1LIM0SkcgneqguhGvNCmK05LjAEt+T+WHUYKSo0JEvg3d0qTbrAviyvbl8TlVeVLyeOWpSp+Sll9FmqYsfZMympDWV+tCcekS0jyQ7ytL320d2IY0LqcqTV5Wznj3d6uT8ikd1B0nJc1bl2c8+8vKZh3y+JyqfcoPVfu75QOlUXyap6qMjYTw/wE370r8BwpZ4gAAAABJRU5ErkJggg==;" vertex="1" parent="WIyWlLk6GJQsqaUBKTNV-1">
          <mxGeometry x="212.72000000000003" y="280" width="151.02" height="290" as="geometry" />
        </mxCell>
        <mxCell id="XwaOPnEjYc4gbmmwaDbT-10" style="edgeStyle=orthogonalEdgeStyle;rounded=0;orthogonalLoop=1;jettySize=auto;html=1;exitX=1;exitY=0.25;exitDx=0;exitDy=0;entryX=0.003;entryY=0.321;entryDx=0;entryDy=0;entryPerimeter=0;" edge="1" parent="WIyWlLk6GJQsqaUBKTNV-1" source="XwaOPnEjYc4gbmmwaDbT-1" target="XwaOPnEjYc4gbmmwaDbT-9">
          <mxGeometry relative="1" as="geometry" />
        </mxCell>
        <mxCell id="XwaOPnEjYc4gbmmwaDbT-11" value="&lt;b&gt;System of Prompting&lt;/b&gt;" style="text;html=1;align=center;verticalAlign=middle;whiteSpace=wrap;rounded=0;" vertex="1" parent="WIyWlLk6GJQsqaUBKTNV-1">
          <mxGeometry x="405" y="20" width="130" height="30" as="geometry" />
        </mxCell>
        <mxCell id="XwaOPnEjYc4gbmmwaDbT-21" style="edgeStyle=orthogonalEdgeStyle;rounded=0;orthogonalLoop=1;jettySize=auto;html=1;exitX=1;exitY=0.5;exitDx=0;exitDy=0;entryX=0;entryY=0.5;entryDx=0;entryDy=0;" edge="1" parent="WIyWlLk6GJQsqaUBKTNV-1" source="XwaOPnEjYc4gbmmwaDbT-12" target="XwaOPnEjYc4gbmmwaDbT-18">
          <mxGeometry relative="1" as="geometry" />
        </mxCell>
        <mxCell id="XwaOPnEjYc4gbmmwaDbT-12" value="&lt;div&gt;&lt;b&gt;Reaction Presence:&lt;/b&gt;&lt;/div&gt;&lt;div&gt;Whether user react to a prompt&lt;/div&gt;" style="rounded=1;whiteSpace=wrap;html=1;fontSize=12;glass=0;strokeWidth=1;shadow=0;" vertex="1" parent="WIyWlLk6GJQsqaUBKTNV-1">
          <mxGeometry x="410" y="60" width="120" height="90" as="geometry" />
        </mxCell>
        <mxCell id="XwaOPnEjYc4gbmmwaDbT-22" style="edgeStyle=orthogonalEdgeStyle;rounded=0;orthogonalLoop=1;jettySize=auto;html=1;exitX=1;exitY=0.5;exitDx=0;exitDy=0;entryX=0;entryY=0.5;entryDx=0;entryDy=0;" edge="1" parent="WIyWlLk6GJQsqaUBKTNV-1" source="XwaOPnEjYc4gbmmwaDbT-13" target="XwaOPnEjYc4gbmmwaDbT-19">
          <mxGeometry relative="1" as="geometry" />
        </mxCell>
        <mxCell id="XwaOPnEjYc4gbmmwaDbT-13" value="&lt;div&gt;&lt;b&gt;Time to Reaction:&lt;/b&gt;&lt;/div&gt;&lt;div&gt;Record the time it takes for user to respond to a prompt&lt;/div&gt;" style="rounded=1;whiteSpace=wrap;html=1;fontSize=12;glass=0;strokeWidth=1;shadow=0;" vertex="1" parent="WIyWlLk6GJQsqaUBKTNV-1">
          <mxGeometry x="410" y="183.95999999999998" width="120" height="90" as="geometry" />
        </mxCell>
        <mxCell id="XwaOPnEjYc4gbmmwaDbT-26" style="edgeStyle=orthogonalEdgeStyle;rounded=0;orthogonalLoop=1;jettySize=auto;html=1;exitX=1;exitY=0.5;exitDx=0;exitDy=0;entryX=0;entryY=0.5;entryDx=0;entryDy=0;" edge="1" parent="WIyWlLk6GJQsqaUBKTNV-1" source="XwaOPnEjYc4gbmmwaDbT-14" target="XwaOPnEjYc4gbmmwaDbT-23">
          <mxGeometry relative="1" as="geometry" />
        </mxCell>
        <mxCell id="XwaOPnEjYc4gbmmwaDbT-14" value="&lt;div&gt;&lt;b&gt;Sentiment:&lt;/b&gt;&lt;/div&gt;&lt;div&gt;Recipient&#39;s attitude when receiving interruption&lt;/div&gt;" style="rounded=1;whiteSpace=wrap;html=1;fontSize=12;glass=0;strokeWidth=1;shadow=0;" vertex="1" parent="WIyWlLk6GJQsqaUBKTNV-1">
          <mxGeometry x="410" y="310" width="120" height="90" as="geometry" />
        </mxCell>
        <mxCell id="XwaOPnEjYc4gbmmwaDbT-28" style="edgeStyle=orthogonalEdgeStyle;rounded=0;orthogonalLoop=1;jettySize=auto;html=1;exitX=1;exitY=0.5;exitDx=0;exitDy=0;entryX=0;entryY=0.5;entryDx=0;entryDy=0;" edge="1" parent="WIyWlLk6GJQsqaUBKTNV-1" source="XwaOPnEjYc4gbmmwaDbT-16" target="XwaOPnEjYc4gbmmwaDbT-27">
          <mxGeometry relative="1" as="geometry" />
        </mxCell>
        <mxCell id="XwaOPnEjYc4gbmmwaDbT-16" value="&lt;div&gt;&lt;b&gt;Notification context:&amp;nbsp;&lt;/b&gt;&lt;/div&gt;&lt;div&gt;Fine tune when to prompt the app on prompting base on what the user were doing&lt;/div&gt;" style="rounded=1;whiteSpace=wrap;html=1;fontSize=12;glass=0;strokeWidth=1;shadow=0;" vertex="1" parent="WIyWlLk6GJQsqaUBKTNV-1">
          <mxGeometry x="400" y="450" width="140" height="90" as="geometry" />
        </mxCell>
        <mxCell id="XwaOPnEjYc4gbmmwaDbT-18" value="In the database, if a prompt was never clicked before the next prompt, it&#39;s failed" style="rounded=1;whiteSpace=wrap;html=1;fontSize=12;glass=0;strokeWidth=1;shadow=0;" vertex="1" parent="WIyWlLk6GJQsqaUBKTNV-1">
          <mxGeometry x="590" y="60" width="120" height="90" as="geometry" />
        </mxCell>
        <mxCell id="XwaOPnEjYc4gbmmwaDbT-25" style="edgeStyle=orthogonalEdgeStyle;rounded=0;orthogonalLoop=1;jettySize=auto;html=1;exitX=1;exitY=0.5;exitDx=0;exitDy=0;entryX=0;entryY=0.5;entryDx=0;entryDy=0;" edge="1" parent="WIyWlLk6GJQsqaUBKTNV-1" source="XwaOPnEjYc4gbmmwaDbT-19" target="XwaOPnEjYc4gbmmwaDbT-24">
          <mxGeometry relative="1" as="geometry" />
        </mxCell>
        <mxCell id="XwaOPnEjYc4gbmmwaDbT-19" value="Record the time between system sending the prompt and user clicking the prompt" style="rounded=1;whiteSpace=wrap;html=1;fontSize=12;glass=0;strokeWidth=1;shadow=0;" vertex="1" parent="WIyWlLk6GJQsqaUBKTNV-1">
          <mxGeometry x="560" y="183.95999999999998" width="120" height="90" as="geometry" />
        </mxCell>
        <mxCell id="XwaOPnEjYc4gbmmwaDbT-23" value="Inludes a text-field&amp;nbsp; recording the attitude of being interrupted by the system" style="rounded=1;whiteSpace=wrap;html=1;fontSize=12;glass=0;strokeWidth=1;shadow=0;" vertex="1" parent="WIyWlLk6GJQsqaUBKTNV-1">
          <mxGeometry x="590" y="310" width="120" height="90" as="geometry" />
        </mxCell>
        <mxCell id="XwaOPnEjYc4gbmmwaDbT-24" value="Also record the time user being prompt and opening the app, since user may go straight to prompt" style="rounded=1;whiteSpace=wrap;html=1;fontSize=12;glass=0;strokeWidth=1;shadow=0;" vertex="1" parent="WIyWlLk6GJQsqaUBKTNV-1">
          <mxGeometry x="697" y="183.95999999999998" width="120" height="90" as="geometry" />
        </mxCell>
        <mxCell id="XwaOPnEjYc4gbmmwaDbT-27" value="Have a trail run on the app, gather result, and tune the system accordingly" style="rounded=1;whiteSpace=wrap;html=1;fontSize=12;glass=0;strokeWidth=1;shadow=0;" vertex="1" parent="WIyWlLk6GJQsqaUBKTNV-1">
          <mxGeometry x="590" y="450" width="120" height="90" as="geometry" />
        </mxCell>
      </root>
    </mxGraphModel>
  </diagram>
</mxfile>
